/* XPM */
static char *_0558_7e3d52ebfeae73075042073cd72c5d10d72a32dd71e961821b231f9cca09fc13[] = {
/* columns rows colors chars-per-pixel */
"64 64 256 2 ",
"   c #050805",
".  c #180904",
"X  c #041805",
"o  c #171909",
"O  c #011817",
"+  c #131315",
"@  c #271707",
"#  c #281A16",
"$  c #30120A",
"%  c #062605",
"&  c #182905",
"*  c #062915",
"=  c #182718",
"-  c #13340F",
";  c #2D2A0E",
":  c #091927",
">  c #12192E",
",  c #08272A",
"<  c #162925",
"1  c #153130",
"2  c #282826",
"3  c #2B3030",
"4  c #291D29",
"5  c #412515",
"6  c #324836",
"7  c #234417",
"8  c #4B5132",
"9  c #69712F",
"0  c #6C672D",
"q  c #172545",
"w  c #33514E",
"e  c #3C6752",
"r  c #3B5B65",
"t  c #3A6A69",
"y  c #485A47",
"u  c #465B57",
"i  c #4A4D4A",
"p  c #486758",
"a  c #556758",
"s  c #516F4F",
"d  c #737056",
"f  c #486868",
"g  c #556A6A",
"h  c #4C7568",
"j  c #587669",
"k  c #4A6B73",
"l  c #4B7577",
"z  c #577677",
"x  c #576C74",
"c  c #667A76",
"v  c #6B7169",
"b  c #635A5A",
"n  c #8A6E57",
"m  c #92776D",
"M  c #778A39",
"N  c #719039",
"B  c #6F9B3C",
"V  c #5E8753",
"C  c #768B48",
"Z  c #6B9748",
"A  c #779849",
"S  c #688A56",
"D  c #758D56",
"F  c #6D9557",
"G  c #739C5B",
"H  c #779857",
"J  c #668749",
"K  c #7AA64B",
"L  c #7CA454",
"P  c #7CAB53",
"I  c #73A45B",
"U  c #7AA45C",
"Y  c #7CAB5C",
"T  c #74A957",
"R  c #75AC57",
"E  c #5A8679",
"W  c #548671",
"Q  c #698969",
"!  c #6E9863",
"~  c #769A65",
"^  c #698A76",
"/  c #779879",
"(  c #718E73",
")  c #7CAD63",
"_  c #78A767",
"`  c #7DB267",
"'  c #7BA576",
"]  c #73A86B",
"[  c #899939",
"{  c #98B83D",
"}  c #92AD39",
"|  c #A6B636",
" . c #86984C",
".. c #859B56",
"X. c #93974F",
"o. c #84A34C",
"O. c #8AA44B",
"+. c #83AB4C",
"@. c #89A947",
"#. c #96AA48",
"$. c #8AB24B",
"%. c #9CBA44",
"&. c #93B44C",
"*. c #9CB54C",
"=. c #9CBA4C",
"-. c #97B645",
";. c #84A454",
":. c #83AD54",
">. c #8BAC54",
",. c #82AC5C",
"<. c #89A659",
"1. c #96A858",
"2. c #8CB45B",
"3. c #8AB556",
"4. c #95B553",
"5. c #9CB553",
"6. c #94BA54",
"7. c #9CBA53",
"8. c #93B45B",
"9. c #9BB45B",
"0. c #95BB5B",
"q. c #9BBB5B",
"w. c #A7AC4A",
"e. c #A3B44C",
"r. c #AAB54B",
"t. c #A3BA4D",
"y. c #A6B747",
"u. c #A7AA56",
"i. c #A3B552",
"p. c #ACB553",
"a. c #A3BA54",
"s. c #ABBB53",
"d. c #ABB55B",
"f. c #A3BC5B",
"g. c #ABBD5A",
"h. c #A2B55A",
"j. c #B3B453",
"k. c #B4BC55",
"l. c #B3BB5B",
"z. c #BBBC5C",
"x. c #B7B65A",
"c. c #B5B250",
"v. c #9A8777",
"b. c #90936F",
"n. c #A68675",
"m. c #A89071",
"M. c #87A966",
"N. c #96AB66",
"B. c #8AB566",
"V. c #93B564",
"C. c #9CB462",
"Z. c #9CBB63",
"A. c #97B668",
"S. c #96A875",
"D. c #8AB576",
"F. c #98B676",
"G. c #87A676",
"H. c #A6A96B",
"J. c #A3BD63",
"K. c #ACBC64",
"L. c #ACBC6B",
"P. c #A7B569",
"I. c #B4BC64",
"U. c #BBBC63",
"Y. c #B8B868",
"T. c #A7B975",
"R. c #B5BA76",
"E. c #A9A972",
"W. c #A28659",
"Q. c #C3B95A",
"!. c #C3BB67",
"~. c #C3B776",
"^. c #9BC148",
"/. c #9EC156",
"(. c #A5C14C",
"). c #ADC25B",
"_. c #A7C558",
"`. c #B4C35C",
"'. c #B8C358",
"]. c #B4CA4E",
"[. c #97C46C",
"{. c #ADC263",
"}. c #A7C369",
"|. c #B3C263",
" X c #BCC363",
".X c #B4C36B",
"XX c #B9C669",
"oX c #A8C677",
"OX c #B6C476",
"+X c #ACD477",
"@X c #C4C35B",
"#X c #C5C467",
"$X c #C5CA75",
"%X c #B0C238",
"&X c #597E84",
"*X c #5B9489",
"=X c #5A8A8F",
"-X c #698A87",
";X c #758A87",
":X c #6A978A",
">X c #779788",
",X c #688C93",
"<X c #6A9894",
"1X c #769997",
"2X c #738E97",
"3X c #79A488",
"4X c #78A597",
"5X c #70A896",
"6X c #769AA4",
"7X c #6B9CA2",
"8X c #79A6A7",
"9X c #76B1AE",
"0X c #859988",
"qX c #849A96",
"wX c #988E88",
"eX c #AE918B",
"rX c #97B887",
"tX c #87A79A",
"yX c #8FB090",
"uX c #A6B887",
"iX c #B3AF8C",
"pX c #8A9DA5",
"aX c #87A8A7",
"sX c #87B5AA",
"dX c #96B7A9",
"fX c #88B5B7",
"gX c #95B8B7",
"hX c #88ACB2",
"jX c #AAB7B0",
"kX c #CAB792",
"lX c #C6B9A7",
"zX c #B6C684",
"xX c #B1CC8F",
"cX c #98C4BB",
"vX c #9AC4A8",
"bX c #A7C7B8",
"nX c #B2CAAD",
"mX c #9CC38F",
"MX c #CDDF9E",
"NX c #98BCC4",
"BX c #82B6C1",
"VX c #A1B8C0",
"CX c #9AC4C9",
"ZX c #8FC9CB",
"AX c #A5C7C7",
"SX c #A9D6CA",
"DX c #B0D4D4",
"FX c #B9E2D2",
"GX c #B6DCE6",
"HX c #BAEFE9",
"JX c #9EDFDA",
"KX c #C9DDCE",
"LX c #CAE8D0",
"PX c #CFEEE8",
"IX c #EAFFFA",
"UX c #F1FFF6",
/* pixels */
"c.c.p.j.'.(.(.(././.9.8.A.F.T.F.C.F.oXA.S.rXrXd D ~ S.xXT.U C C H S C M.E.Y.I.XXM [ | r.x.z.!.!.Q.!. Xd.#.#.#.p.s.t.e.w.w.w.j.x.",
"j.x.k.z.'.`.`.`.7.6.q.9.<...H C G G M.G.~ D D D D uXxXzXT.R.C...H D H P.OXOXR.|.`.e.#.w.j.!.!.!.Y.U.U.l.p.i.e.r.e.e.e.r.p.k.l.x.",
"z.!.U.z.l.g.g.g.&.9.J.8.<.C C H S S ~ F J G ..D C P.zX!.x.!.!.c.N.N.N.R.$XXXl.k.$X'.s.p.k.!.!.x.Y.Y.U.U.z.l.s.e.e.t.s.).`.|.|.|.",
"U.z.l.l.g.d.9.#.B O... .C ..P.mX~ ! S S ~ T.uX .X.X.u.!.Q.Q.Q.!.$XL.R.R.R.U.x.x.k.|. X XU.Y.Y.!.!.~.!.!.U.I.s.e.*.t.a.).).{.`.).",
"j.j.u.d.I.K.1.X.9  .A M C C.zXzXrX~ D N.T.T.R.P.u.X.w.!.#XQ.Q.!.#X.XI.U.!.Q.'. Xk.l.|.K.I.Y.Y.~.!.!.!.!.Y.I.g.).a.a.t.=.^.=.=.=.",
"j.w.w.p.P.u.X.C ..A.H.....OXoXT.zXP.P.T.L..XXX.X X!.I. X!.Q.Y.x.K.l.'.!.Q.x.j.j.g.p.f..XOXR.E.u.u.H.Y.U.I.l.`.|.g._.(.=.=.=.=.=.",
"r.s.j.g.u.1.X. .R.zXOXT.L.L.L.P.z.#X$XQ.p. X#Xs.l.XX.X.XC.C.N...#.p.z.'.z.r.w.w.i.5.f.}.OXL.1.X.W.u.Y.R.|.I.{.|._.).a.t.t.=.a.=.",
"y.c.'. X|.K.K.L.R.oXR.oXK.h.i.g.@Xc.Q.Q.k.w.r.s.g.J.oX[.B.H ~ ,. .#.e.p.p.p.p.*.5.q.0.8.:...<.<. .#.P..X.X{.f.s.a.e.t.*.e.e.e.e.",
"].].s.g.K.|.L.I..XOXL.K.g.i.e.y.| Q.w.k.@X} '.[ [ >.L U ` ] ] _ $.@.5.5.i.#.|.4.[.K K K R P K ,.o.$.0./.q.7.q.a.*.e.i.r.w.e.p.l.",
"y.y.y.r.g.`.|.L.K.K.f.p.i.e.*.y.s.'.@X#X#.a.B @.:.L ,.) _ ` ' ] A +X;.8.}.}.o.8.K B 3.K B R 2.K K K P $.0.q.a.5.5.e.i.p.p.d.x.U.",
"%.%.-.%.t.).g.).i.i.e.*.e.e.y.t.$.+.4.oX>.+XN V.L Y U U _ _ I G U ) U H M.A.oX,.B.R ` R [.[.K P P K K K $.8.7.*.e.e.i.p.g.z.I.I.",
"^.%.=.=.*.y.t.a.e.e.*.e.%.%.=.&.+X[.B.B.Y U _ _ _ D.F F F.G.U D.' ] _ mXS F _ G B ` R K R [.}.3.^.P P +.$.$.&.&.5.i.i.p.d.d.d.d.",
"6.6.6.7.=.*.*.*.e.e.t.y.e.*.#.$.B K R ) _ _ ' ' yXyXrXrX] ! ! ] ' 5X' W yX' rX! ` R Z ` /.R +X+.` /.P /.$.&.5.a.a.5.5.5.9.9.9.5.",
"3.3.7.6.7.=.=.y.y.t.t.a.i.5.#.&.}.K Y T G mX/ yXyX* X * * V 3Xh W w 1 * * % V D.` mXZ R +X$.@.^.^.0./.6.&.5.7.a.9.f.f.q.9.8.>.>.",
"P 3.8.0.7.7.=.t.t.a.t.a.h.q.q.9.f.#.f.L.S.s - * CX<XhXcX*X*X9X*X*X9X=XaXp IXnX% - D.mXB K /.=.XX5.7.0.7.a.*.*.*.5.7.[.0.3.P P P ",
"K P B.Z.0.9.&.=.=.y.e.*.a.f.K..Xh.h.C.C.S.- 0XdX2X<X<X=X9X*X*X5X7X*X9X<XcX:XbXdX] - I xX3.}.q.#.i.i.5.7.h.5.>.@.>.8./.2.3.T K T ",
"R 3.2.B.V.V.q.7.%.y.} | k.i.OXR.xXyX& % % p tXdX-X;X:XgXgX:Xt cXNXZXCXCXO ;XAXAX1Xj O = % F.V.}.=.e.a.O.Z.<.L Y Y P R R T R R R ",
"K T Y Y B.2.9.7.%.(.y.y.p.$X$XE.o 2 0X>XO j tX-XPXDXdX>X4X:X:X5XZXfXk =XE SXDX;Xr x , ;XyX% _ V.>.a.6.zXZ H M.Z I T T R R R T T ",
"R R U H U ;.;.@.@.[ t.`.$XP.E.& ( ^ c ^ 6 E w sX,Xz z 1XSX5X:X*X8X<XcXSXh j 4X1Xz x 6 2X>X( rXrXoXA Z.M.B.F D.` ` Y R ) ` ` ` ] ",
"` ) ) ,.M.<.O.O.5.).#.P.C.zX& ; b.u aXIXr 2XAXgXf z z k AX1Xr l k 9XSXh % IXIXdXVXpX&XqXg ^ >X% M.N.U G ' D.V ` ] T T I I ] _ ] ",
"G ~ ~ G.M.C.C.C.#.9.P.P.S.; y 3 tXw 3 w f -XgXgXNX: r 6X=X9XJXHXl 5X>X4XyXFXnXcXSXg , w q r u u % ' S / ' ] ' ] I ` ` ` _ _ _ ' ",
"~ ~ ..M.S.A.C.9.J.OXP.xXrX= v c 3 3 tXO c c pX2X6X1 k 7X8X6X&X<Xt :X^ ( h % Q 3X>X;Xx w r r > k * X / s ' yX/ [.B.D.[.F.) ~ ! Q ",
"~ H ....<.C.C.u.OXC.OXX v i   gXbXPXIX= g ;XaX2XCXCXNXt l ,X9X6Xl h 5XsXbX3XnXQ 0XqXu : VX&XDX, w p 1 :X^ Q ~ F H L <.;.H D D D ",
"D D D ..1.P.K.L.L.zXS.y y v x VXjX0X2 c UX&X< f 1XfXCXNXBX, r l t l sXdXFXLXQ W = * 1X2XNXNXDXr : p h 6 ^ ' V D N N N  .<.T.iXiX",
"uXC  .M [ d..XI.1.T.; s a g k 2XdXdXLXKXUX;Xg f 1X<X<XHXFX1 * 1 AXNXNX&X&X4X>Xy s V h bXdX,XhXk x > u w c G.xXT.OX9.[ [ P.$XiXR.",
"OXH.OXR.d.|.d.d.P.& & ; * k r l 4X3X/ KXdX2 i j 1X5X-X:XE 1 f aXNXfXGX> 6XaXj ^ KXLXUX>X-XaX2Xf z + PX< = uXuXOXL.|.x.d.Y.R.R.~.",
"R.P.XX X`.p.w.h.K.& s 7 p h cXO 5X^ ^ tXu u g ;X:X5X5X4XaXX a qX6X6X6X: 6X1 PX% dXdXFX% bXz , aX2Xf 1 y y & E.iXK. X#X@X!.z.Y.~.",
"XXI.l.x.@Xz.u.Y.@ 8 y j j e 8XZXcXtXbXvX3 = 3 gX3XE 5XE h LXc 2X2X6X: DXhXVXDXbX* % s nXdXdXFX8XDXu + ( a 8 S.R.Y.U.x.k.Q.!.x.Y.",
"U. Xx.'.@XQ.x.R.9 D LX0Xg SX9XvXsXJXvXgXu O x jXcXCX5Xh * bX6 < z gXPXGX2X2X6XgXh = vXyXdXAXCXNXgXqX  x s 6 & T.OX#Xk.j.'.'.z.U.",
"d.U.z.z.j.j.~.E.d   PXaX-X:X5X5XJXHXCXz f 3 x u sXHXSXSXAX>XwX< g 1X-X1XVX2X2Xx a h j FXLXDXGX6X1X1Xc < < 6 9 b.P..X X`.z.p.w.l.",
"!.#XQ.Q.x.!.$XX.8 i g u 1X9X*X*X5X*X9Xl f : g g l <X<X5X>X;Xv X s p tX2X=X2XpXk j w p p 6XaX7X&X<X8XO e X y ; S...P.|.g.s.#.#.s.",
"U.z.r.@X@XY.m.; 8   a tXdX^ 4X<X*X5X*XE f > pX: qX;X>XtX>Xo m eXb.- = o qX2   > >X< p >X1X-X, IXPXgX1Xz z X y & N.P.e.e.s.a.*.a.",
"'.].%X| ].*.S.6 w a s V uXjXjXjX2X6X,Xl &X: VXwXlX$ lXlXm 5 lXm iX; kXW.kX$ kXkXjX+ j p / IX( o bXdXk k 2XIX6 & A }.5.} p.a.J.4.",
"} %.| | ].[.0X, < yXs Z M.D d qXpX-X&Xk f : eXm eX. E.W.W.$ n.n eX. n n.m.$ n n.eXv v a j UXLXG.y h x f f fXh X F.&.=.y.s.#.C.J.",
"H..X`.*.&.M.>Xx 6XjXxXMXxXMX7 v v qX* t 1 , wXeXm 5 v.m m.5 m v.v.4 wXm m $ m m m +   v 3 dXLX% p z l fXGXsX3XV H @.`.%.-.*.}.8.",
"E.N.@.*.8.M.7 f 1XgX- LXMXoX- KXjX3 tXDXe   ; $ 5 $ @ ; o . 4 4 1   . 4 $ $ 5 5 3 b x AXjXuXiXd j cXgXGXfXfX4Xy 7 @.a.*.#._.}.@.",
"h.J.a._.0.D.X 1X2XaX^ ' s 6 e E ;XAXSX>Xa j d b n n $ # > 2 > > > > i + $ 4 n b   c x c KXnXs s y 1X<X7XhX9X:X>XX V.B {._.-.&.6.",
" .4.a.B K M.% 6X6X6X4XW yXh 1 :X1X:X5X4Xw /   m n n . . 1 : > q > q   + 5 m b m 3 u qXqXqXG.d D j <XBX=X,X=X5X1X% F. .f.7.$.$.$.",
"N...+.;.oX' p l CX-X3X3Xe LXO 6X*X9X:X*X1Xp # eXm m # + > q q q > > 2 # n d m wXo v ^ >X0X( ' nXvX, w 9XBXBXAXe 7 S M.>.4.6.6.B ",
"M.H V.<.Z X W <X<XSXsXvXvX4X, 6X9X=X<X9Xt , 4 m n.eX# 2   q q > > > . # wXkXeXv.= KX>X>X^ G.xXFX, cXZXZXBXBX6X1Xy - M.N.[.+.+.K ",
"M.A P N Z 7 e 3X:X1Xh FX3X:X1 BXBXJX9XZXZX9XO v.$ eX$ # > > > > > + 2 @ v.lXkXd = dXAXgXSX4X- vXf 1XDX&Xt =X4X<Xp % S.M.M.L ,.:.",
"6.}.^.B B.7 7 ! aX>X^ sX^ <XhXDXZX9XZXZX9XBX+ eXn kXv.. 2 > > 3 4 . . 5 m.n m.; o gXcXaXfXGX4XbXj -X8X:X,XgX:XX - % ~ G.F.,.T Z ",
"/.{ -.K B V.G 7 >X( qX1X,X-Xk GXGXHXt l t u v @ n.m.m.; . o 3 + # 4 # $ n.n.n.. v aXr l =XAXPXKXj X >X^ tXX ( 3X/ S G.M.M.I B.[.",
"{ ^.^./.&.V.,.G G.rX/ X <   c 1X6Xz 5X5X:XqXv . m m.n @ iXwXb.; + jX@ 5 n m.m.d   aX1X2X1X2X<XqXa = X ~ / ~ ~ F ~ ~ D H G F ) D.",
"8.Z.V.oX<.A.N.F...S.S.M.B.d X b.G.rX~ Q - X d 5 m W.u.& ; iXE.iXlX  @ ; m.W.m.. jXo X >X>XqX( = & d S.D.U Z L ..H A...D.B.B.D.[.",
"V.A ;.N.C T.oX9 OX .M 9 9 M OXX.X.E.M.S.G.uXR.. 5 0 W.. 1.S.E.S.b.nXo . ~.0 . kXH.S.uXyX0XuXH.b.H.H.C M }.0.@.$.q.oX1.;.H F T ] ",
" .@. .8.Z. .M K.K.M  .OX1.zXX.x.~.u.P.P.N.E.m.~.W.~.R.R.9.<.L. .Q ~ E.E.x.x.0 c.P.X.<.N.L.P.w.Y.H.E.d.#.-.(.^.(.-.>.Z.>.M.,.R R ",
".X{.}.L.h..XXXf.I.K.L.OXK.XXd.u.w.c.[ M  .T.u.E.R.1.X.L.>.oXC H ~ F ,.1.u.u.k.c.#.X.*.5.#.w.x.w.$Xu.#X'.y.{ } y.t.{ _.[ K P P R ",
").|.K.g.K.{.{.{.i.h.f.f.q.J.J.{.#.#.O. .A A ..1.<.;.A A A Z K Z F I G G H L ;.:.P $.$./.6.7.=.5.d.I.XX`.e.*.y.{ y.} } @.^._.{./.",
"a.i.p.i.i.e.i.a.5.i.h.7.5.7.q._.q.q.8.1.o.o.A K A A Z F F Z I I F G G ! ! ! G T P P $.3./.6.0.0.5.h.h.9.5.a.a.=.(.=.} -.=.(./.^.",
"r.w.e.w.w.e.e.e.a.p.a.t.*.*.5.5.h.6.q.0.q.9.3.:.L U Y U F F F F I ! ~ / ] ! ! ~ R Y :.>.3.8.N.1.<.O.;.o.O.0.q.6./.6.6.6.6.6.6.3.",
"r.y.e.r.r.s.s.r.k.g.s.r.e.e.w.*.5.&.6./.q.[.Z.A.V.A.F.A.M.M._ M._ ` M.' ] ' ' M.U L P ;.;.;.;.;.;.<.;.o.:.8.0.0.0.6.0.0./.0./.0.",
"w.y.y.r.r.k.).'.'.'.k.s.c.r.r.e.=.6.6.=.&.>.>.8.:.<.M.M.<.M.G.F.A.2.B.Y Y Y Y ,.P K +.@.O.@.O.O.C.A.}.Z.9.8.9.q.&.4.6.q.3.6.0.q.",
"e.e.t.s.(.'.`.'.k.).k.'.'.k.k.s.=.-.&.$.@.@.@.>. .;.;.....<.N.A.q.6.$.K K K K :.+.$.$.&.&.-.5.9.K..XOX.Xf.h.e.*.7.a.7.e.6.=.7.7.",
"t.a.a.a.s.).`.`.r.r.r.k.'.'.k.k.a.=.-.$.&.&.4.4.[.Z.J.Z.C.J.Z.Z.^.^.^.$.K +.+.:.$.6.^.(._.).g.g.I. X X`.k.s.r.y.r.r.w.y.y.w.y.*.",
"4.4.&.7.7.7.7.a.5.t.e.p.g.`.`.)._./.&.=././.4.&.=.=.*.5.9.5.5.*.^.{ ^.-.6.2././././._.{.{.{.g.g.l.U.U.z.x.k.c.y.r.y.y.y.y.y.r.y.",
"3.0./.q.q.0.4.q.9.5.5.i.i.a.i.a.5.6.7.&.6.=.=.=.=.=.%.%.%.%.{ (.^.^.6.6.V.A.A.F.Z.J.}.K.L.}.L.L.u.#.X.#.p.g.|.|.'.).s.e.a.i.e.*.",
"P P B.2.2.2.0.0.0.q.7.9.9.9.5.5.7.7.7.7.7.=.=.=.%.{ ^.^.%X%.{ { } $.4.8.V.A.F.A.<.<.<.<.<.1.1.1.1.@. .O.1.q.{._.}.{.}.[.J.}.C.8.",
"P R P P :.:.2.2.Z.0.q.0.7.9.9.4.9.7.7.7.7.=.=.=.^.=.-.{ { { %.^.^././.[.A.A.V.M...o.O.O.#.1.#. .H L U U ,.B.) Y P Y B.) Y ` I I ",
"R P P P K P :.:.K o.+.o.@.O.$.>.7.7.5.7.7.=.7.=./.%.=.-.^.-.%.%.-.^.3.6.3.<.;.K @.>.4.5.f.s.5.O.M.` ` ] I I I T I I T I R ] ] I ",
"P P ;.P K +.:.+.@.@.@.$.&.&.4.&.5.=.7.*.5.=.7.7.&.6.q.}.[.q.4.$.-.-.-.6.9.0.V.0.3.&.=.%.y.y.%.@.B.D.D.R U I ) R R ` ) I ] ] ` ] ",
"+.:.:.:.:.:.8.6.0.q.q.q.q.q._.q.=.*.*.a.7.7.9.q.Z.V.2.2.2.M.V.V./.^./.0.V.V.A.A.Z.f.7.-.{ { y.*.A.A.B.Y L ,.B.B.B.B.Y I T Y Y R ",
">.4.4.8.9.9.q.q.4.4.&.&.-.-.-.-.%.%.%.*.7.5.q.V.C.M.H F F ~ G.D.[.3.<.H F D F H A.A.Z.5.&.a.).{.f.{.9.@.@.4.h.7._./.q.4.4.0.8.2.",
"9.9.Z.q.q.q.7.q.a.7.5.=.*.=.*.*.%.y.%.=.7.7.C.C.A F H D Q ! Q S A.2.;.D S D ! G H M.C.Z.q.f.{.|.{.l.u.} } e.t.*.*.i.e.5.5.h.5.5."
};
