/* XPM */
static char *fb4e07e042924060e79d1812b40214dazDOsURh9ymvyfFTV[] = {
/* columns rows colors chars-per-pixel */
"64 64 256 2 ",
"   c #131212",
".  c #2C1805",
"X  c #133114",
"o  c #273818",
"O  c #342F0E",
"+  c #193836",
"@  c #132F2B",
"#  c #273A26",
"$  c #353A27",
"%  c #253839",
"&  c #343335",
"*  c #1E1B29",
"=  c #483409",
"-  c #4B3B29",
";  c #2F471A",
":  c #25472A",
">  c #384A29",
",  c #284737",
"<  c #374838",
"1  c #395639",
"2  c #2E5430",
"3  c #1A412C",
"4  c #4E4D11",
"5  c #6B520C",
"6  c #465838",
"7  c #4E502E",
"8  c #466339",
"9  c #556A34",
"0  c #6E6F36",
"q  c #675731",
"w  c #313C4B",
"e  c #423B48",
"r  c #1D4D4A",
"t  c #294747",
"y  c #394B43",
"u  c #375646",
"i  c #364D55",
"p  c #3A5759",
"a  c #295552",
"s  c #3C645A",
"d  c #38664D",
"f  c #375663",
"g  c #3C6766",
"h  c #3C6C73",
"j  c #485947",
"k  c #575A48",
"l  c #455957",
"z  c #4E4F4E",
"x  c #635C4C",
"c  c #486649",
"v  c #576947",
"b  c #5C7648",
"n  c #476556",
"m  c #566858",
"M  c #5A7757",
"N  c #4C734F",
"B  c #677A48",
"V  c #666759",
"C  c #687955",
"Z  c #736D4E",
"A  c #4D5A66",
"S  c #486867",
"D  c #566866",
"F  c #497469",
"G  c #597769",
"H  c #4B6974",
"J  c #4C7778",
"K  c #587877",
"L  c #586B74",
"P  c #677866",
"I  c #667979",
"U  c #726C66",
"Y  c #867434",
"T  c #89774F",
"R  c #8D7A68",
"E  c #768839",
"W  c #708C3C",
"Q  c #6B8849",
"!  c #788848",
"~  c #79964A",
"^  c #698654",
"/  c #798A57",
"(  c #799957",
")  c #6A964F",
"_  c #7DA74B",
"`  c #7CA453",
"'  c #7CA45B",
"]  c #78A957",
"[  c #7DB15A",
"{  c #598378",
"}  c #528570",
"|  c #6B8666",
" . c #778A67",
".. c #799867",
"X. c #668678",
"o. c #799679",
"O. c #719076",
"+. c #7AA766",
"@. c #77A773",
"#. c #7EB176",
"$. c #518650",
"%. c #898D3A",
"&. c #8FAD3A",
"*. c #A8BA3E",
"=. c #B0953C",
"-. c #858849",
";. c #95894A",
":. c #88974A",
">. c #848A57",
",. c #879A57",
"<. c #949C53",
"1. c #978D4F",
"2. c #A49150",
"3. c #83A54C",
"4. c #89A648",
"5. c #97AA4A",
"6. c #8BB54A",
"7. c #9BB445",
"8. c #9CB54C",
"9. c #9CBA4C",
"0. c #97B94A",
"q. c #84AB53",
"w. c #84A45B",
"e. c #84AB5C",
"r. c #8AA857",
"t. c #97AA58",
"y. c #8BB35B",
"u. c #89B557",
"i. c #93B453",
"p. c #9BB554",
"a. c #95BB54",
"s. c #9CBA53",
"d. c #94B35C",
"f. c #9CB55B",
"g. c #94BB5B",
"h. c #9BBC5B",
"j. c #A8AA4C",
"k. c #A3B44C",
"l. c #A3BA4C",
"z. c #A8B748",
"x. c #A6A957",
"c. c #A3B553",
"v. c #ABB453",
"b. c #A3BA53",
"n. c #ABBC54",
"m. c #A3BB5C",
"M. c #ABBC5C",
"N. c #A6B45B",
"B. c #B5BC5B",
"V. c #BABC5B",
"C. c #B4B758",
"Z. c #B3B051",
"A. c #849867",
"S. c #8E8F70",
"D. c #AB946C",
"F. c #87A865",
"G. c #96AB67",
"H. c #8BB463",
"J. c #8BB667",
"K. c #94BB63",
"L. c #99B766",
"P. c #8AA775",
"I. c #96AA76",
"U. c #9AB873",
"Y. c #A9A965",
"T. c #A7BA66",
"R. c #BBBB63",
"E. c #B7B967",
"W. c #A5BA78",
"Q. c #B7B875",
"!. c #B6AA75",
"~. c #C3BA5C",
"^. c #CBB848",
"/. c #C4BB68",
"(. c #CCB776",
"). c #E2BE74",
"_. c #97C259",
"`. c #93C14A",
"'. c #ABC259",
"]. c #B3C453",
"[. c #B5C35C",
"{. c #ADC34B",
"}. c #98C161",
"|. c #AAC367",
" X c #B3C363",
".X c #B7C568",
"XX c #B5C475",
"oX c #AAC575",
"OX c #D8CA4E",
"+X c #E8D858",
"@X c #EEEB55",
"#X c #C8C577",
"$X c #CEC66B",
"%X c #DAE870",
"&X c #EEF273",
"*X c #E7D568",
"=X c #C5BB37",
"-X c #587684",
";X c #677C84",
":X c #598686",
">X c #5C9392",
",X c #688987",
"<X c #748B87",
"1X c #68938B",
"2X c #769689",
"3X c #668C94",
"4X c #699796",
"5X c #739B9C",
"6X c #799995",
"7X c #738A93",
"8X c #78A59A",
"9X c #72A491",
"0X c #6998A2",
"qX c #749CA4",
"wX c #69A6A6",
"eX c #77A5A7",
"rX c #7AABB5",
"tX c #79B3AD",
"yX c #7FBEC7",
"uX c #879984",
"iX c #8A9289",
"pX c #95A887",
"aX c #86A699",
"sX c #90AD91",
"dX c #AFB590",
"fX c #869CA4",
"gX c #85A9A8",
"hX c #93ACA7",
"jX c #89B4AA",
"kX c #89B7B7",
"lX c #95BBB7",
"zX c #8CB1AF",
"xX c #ADB9AC",
"cX c #A89495",
"vX c #D2B695",
"bX c #B5C98A",
"nX c #89C3BB",
"mX c #97C4BA",
"MX c #A8CABC",
"NX c #B4C8AF",
"BX c #CED08A",
"VX c #F1F38D",
"CX c #C7D2B3",
"ZX c #D3E8B6",
"AX c #F3FBAE",
"SX c #EBCD97",
"DX c #8BB9C3",
"FX c #98BDC3",
"GX c #A7B4C4",
"HX c #8AC3C6",
"JX c #97C5C7",
"KX c #99CED2",
"LX c #A8D0CD",
"PX c #B3E0D9",
"IX c #EEFAD0",
"UX c #D6EAD7",
/* pixels */
"6.a.a.i.g.|.L.~ ! / >.>./ / / / ,.! -.Y././.~./.C./.E.<.! / / ^ ,.W.W.,.! ,.I.,.,.( ' F.e.` ] [ _ _ ] ] +.+.F.J.K.g.0.0.i.8.p.p.",
"g.g.g.d.r.~ W ! W.W.W.G.,.>.,.G.G.<.<.N.E.R.R././.#XQ.Y.,./ / A.G.XXbXT.,.r.G.W.G.w.w.H.H.e.e.y.u.u.e.+.+.+.F.J.H.a.a.9.s.m.m.T.",
"U.w.~ ~ :.~ G.bXT.Q.XXXXT.T.|.XX|.M.b.M. X XV.C.R.E.Q.dXI. ...I.XXE.|..XT.T.T.XXT.d.r.d.L.g.g.K.}.K.H.F.+.+.F.F._ 3.&.&.4.5.t.t.",
"T.r.,.L.oXT.T.XXXXT.T.T.oXoXT.m.|.|. X X.X.XN.5.5.t.T.bXbXI.P.W..Xk.5.n..X.X X.X|.m.f.m.m.f.f.h._.g.y.e.' ' ' ` 3.4.4.4.4.5.5.t.",
"'.b.b.'..X.XT.N.XXT.t.r.G.U.W.W.T.T.T.T.T.T.t.:.:.3.d.W.oXW.W.|.b.z.k.k.'.[.[.M. X X X'.M.c.8.s.s.i.y.y.e.F.e.e.|.|.M.M.M.T.T.T.",
"l.l.l.7.5.c..X#X5.t.t.r.,.r.U.oXL.G.r.w.w.F.e.` e.e.r.q.r.d.d.i.5.b.'.b.k.b.n.b.M.'. X[.n.k.k.k.8.i.i.d.L.L.L.L.|.|. X X XE.E..X",
"5.N. XT.c.8.5.5.5.c.m.f.4.&.3.3.H.F.( ' +.+.+.+.+.+.' ( ~ 3.3.4.4.p.f.f.d.f.f.p.p.p.c.k.k.k.z.k.8.p.p.f.h.T.T.m.f.p.c.c.c.v.v.v.",
"T.x.5.x.N.v.v.n.v.k.8.8.8.9.s.h.r.,.' F.F.@.@.@.@.@.@.P.F...,.F.F.( ( F.U.W.G.r.r.4.:.4.5.k.k.7.b.s.8.8.p.p.8.5.b.b.k.k.k.k.z.j.",
"E.E.T.N.c.c.v.k.k.l.l.9.9.s.s.a.h._.q.J.+.#.@.9X} X.} , X @ y u 1 : X 2 8  .^ ..( W.! t.4.p.8.'.l.7.9.b.l.9.7.&.9.l.l.k.z.z.v.].",
" X XB.B.n.v.z.k.n.8.8.8.a.h.g.}._ 4._ H.) $.d s r a J qXqX,X;X7X4X1X1Xa F F O.o.2 b I.bXr.3.|.p.c.'.b.7.&.l.{.{.9.l.l.l.k.z.n.].",
"n.{.].].].].n.n.n.5.m.t.r.w.Q w.e.( ' F.c 2 } LXa eXDXqX3X3XqXgXqX0X3X0XeX,X,XjX2X: 1 / bXU.U.d.t.b.8.&.7.7.&.7.9.l.b.n.n.].].].",
"z.z.n.].].].].].8.5.|.d.G.U.G.bXP.pX| 2 : o.mXgX5XeXqXeXkXqX:X0X0XKXDXrXqXeX4X1XlX9XM o ^ P.+.U.W.T.5.9.'.{.&.0.9.s.b.m.'.'.].{.",
"f.f.N.m.M.M.'.'.[.b.M.5.d.oXK.G.> @ @ + S 6XlXlX8XzXjXjXjX1X{ jXJXDXKXkXkXa ,XlXzX6XF , # : o / G.L.L.i.9.9.9._.i.i.f.h.m.b.l.k.",
"L.f.f.f.c.c.b.b.'.m.p.p.L.r.9 ; l ;XI t l <XhXzXJXlX1X} 9XtX4X:XqXkXDX4X3Xg eXgXzX6XS u X 2XX.: 9 ,.oXT.4.a.'.4.i.d.L.L.f.s.8.9.",
"b.s.9.9.9.9.k.k.5.f.t.oXW.Q b 6 I I l + D G <XaX<XF J 8XtX>X>XeX9X1X,XlX6Xg 4X8XgXL t D + ,X<X< b B I.bXL.}.|.3.r.H.L.L.L.d.p.s.",
"a.a.9.9.9.l.9.9.m.oXr.W./ ; M o.D MXMXD <X6X6X2XK g F 1XeXtXrX4X{ G jXhXgXn MXmX6XhX;X7XA 7X6Xm S.> 8 P.F.` y.` ( ` e.e.r.r.t.d.",
"+.' _ _ &.&.&.&.'.r.W.A.# : X.P < xXO.< 6XlXlX4Xa @ h 4XrXDXKXkXK L 6X2XX.c ZXIXsXxXGX7XH I M d X.l , c o.pX@.+.+.] ` ` H.w.( w.",
"+.+.e.u.0.0.0.9.t.bXA.6 n n t y 7 > < j X.jXPXHX>Xr h 0XrX>X4XeX7XS fX6XG 2 ..dXsXhXfX-Xf t , 2 u l p , { O.9X@.' [ ] ~ ` w.F.F.",
"H.y.g.a.0.9.a.L.U.^ 1 , y n G m xXk $ P uX2X{ 1XJ g J :XeX5XeXqXeXi 4XeXJ a u N O.6XqX-Xf + r F S l D , u d @.@.' H.y._ q.d.G.L.",
"_._.a.6.6.i.L.U.P.> < l @ S MXaXIXZ k P o.G X.lXeXlXeXJ :X,X5X4X-X@ J kXkXmXmXjX{ { S S J h 4XjXlXX.t @ n c M ..F.L.f.i.f.f.d.L.",
"6.`.`.0.g.T.W.pXm D L i t 7XmXaXS.7 xXCXP < G I LXLXJXlXzXp p J h r h tXtXJXKXeX,Xs : : X.8XJXJXlXhXt + n j > P.G.L.f.m.M.f.p.m.",
"6.`._.h.L.U.A.| < D p w H 7X5XaXNXCXIXUXP < D ,X7X6XzXPXLXp p ,XH J :X4XJ 4XeX5XX.u M M uXaXlXkXeX6XK S @ j v B G.T.T.M.[.M.M. X",
"0._.h.d.G.A.b < y % @ t H -X3XgXuXxXpXuXV m l <X2X5X4X5X,Xt K gXJXLXMXaXs 1XK 2XP 6 bXBXbXpXuXqXgXF S S @ I S.. Z Y.XXT.M. X X'.",
"h.K.K.r.A./ 6 # < y % t H -X-X4X<XS.1 m X l I 2X4X5X4XeX:X+ S 7X8X6X8X} u 6XH hXuX> BXZXZXdX2X6XF >XJ t i I P 6 4 <.bXT.c..X[.8.",
"~ ! I./ A.v o j c y y X.lXFX:Xa 1X{ D u @ t n ,X1XeX4X4X{ { S 6X7X2X8Xs t 5Xf hXxXX ! W.bXv hXp a kXJX4XS w D m $ 4 W.XX|.N.p.p.",
"^ A.A. .C b >  .dXP u { zXJXHXDXKXJX8Xs @ K gXlX:X4X>X} g PXF K J mXzXgXjXlXFX5XhXuX; 8 P.sXgXJXKXkXnXkXH i l m k 7 / :.T.p.p.%.",
"A.dXpXI.C V v uXNX| G aXmXnXHXHXtXnX8Xs @ K 6XzXjXJXtX8X8XjXK i a -XeXeXDX0XrX3X4X,X: 1 o.lXkXJXkXLXJXkX3XH w I # 6 A.G.bX3.4.:.",
"W.bXNXI.S.j m P uXc N 2X4XeXHXKXKXkX:XS @ A L aXlXLXmXmXMX<XiXl i f qX5X5X3X5XeX4Xi % S K 1XKXKXLXmX1X5XgXi   @ y v 6 / G.<.:.E ",
"T.bXdXA.U $ & & n u X.aX9X4XwX0XwX:Xg S % D D <X<X2X9XuX| uXU x y I 7X6XX.fXgX,XI K w S p :X:X9X9Xn hX6X,X;X;X% , k ; / G.Q.T.XX",
"]..Xt./ 7 < & % ;X,X8X8X1X4XwX>XwX4XS l * V z k  .o.P.uX .7 R D.U k V U k uX> v < I w * A 6X9Xo.| 1 UXhX<X7XK D # < o ! -.Y.x.#X",
"{.z.x.0 o z w A A -XeXlXnXnXwX>X>X1Xl & * cXxXNXU S.I.dXdX. vXvXSXT D.dXD.vX= dXdXcXU * z k A.I.I.>  .uXxX;Xi I CX| ; 7 -.#X(./.",
"*.&.|.9 o % i L L I X.2XaXaX8X8Xg K S A & iXR Z 7 q >.S.T = T T Y 5 5 2.T 0 . T T R & A V k 9 ZXIXCXuXP G A ,X+ lX< o O ! E.#XR.",
"z.8.0 N d g gXmX2XCXZXCX7 C  .2Xt J A i * iXS.S.q 0 !.D.D.. !.2.D.5 Y D.T D.7 R R S.e w j M 1 hXCXNX1 n K g 3XkXJX1Xu X Q E c.v.",
"j.:./ 3 d >XnXjX| ZXAXBX4 I.dXj + f p t * V U Z O = T 1.5 O q 0 x.4 5 Y.;.=   U S.V * w j c u ,XO.O.X u 1XgXKXKXHXwXJ : b W 4.k.",
"E.E ..X } wXwXtXn pXdXB O  .pXm MXMXaXD % & - O - . 0 !.x.BXx.x.j.j.Z.C.;.O = - . - * z m NXPXMXdXpX1 G aXlXJXeXrXeX1Xu 6 ! :.m.",
"Y.E ^ X >XwX>X4X2XuXpX6 o P G aXjX9X,Xn z z V x Z = D.SXVXAXAXAX%XVX&XVX#XO 0 q q x & I | o.hXaXpX .1 c X.6XrX4X3X4X4Xu > A.~ d.",
"! >.v @ J rXrX>X1XX.o.| 1 G 1X4XqX5X6XI m - Z 0 1.Y %.#XVXAXIXAXVX&XOXVXBX= ;.T R x   D 2XO.fXaXP. .8 : d ,XeX3XeXqX7Xp # / B ,.",
"! / > u :XeXDXrXgX8XhXUXn t kX0X0XeXqXI z O T D.2.j.5 BXVXAXAXAX&X&X@X+X=.0 #XY T V < I aX6X6X<Xo.NXCXO.X.8XgXqXDXgX4Xn # M ^ ,.",
">.b o G 4X3XrXDXlXzXzXPXr + :X>X>X0XJ l %   Z D.T SX5 VX&X%X%X&XVX&X@X@XY Y $X;.S.$ y xXlX,X:XeXu sXUXaXjXmXkXJXDXrX5XK , 6 ^ ..",
"0 7 o m 1X5XzXeX4XlXzX{ s PXrXKXHXnX1X,XA e U Z !.SX= OX&X&X%X&X@X@X@X@X5 ;.$X%.S.* y aXzXkXKXkXK { <XG jXkX4XeXqXqX5X,X2 ; 9 Q ",
">.9 o > G ,X6X6X1X2X1X1XgXJXKXHXKXnXkXFX<X& k R vX).5 OX+X+X@XOX@XOX@X+X5 (.x.%.Z & D aXkXHXyXKXJXFXJX4X1X5X3XqXqX3X:Xd 2 2 8 Q ",
"0 0 C b 1 # l <XaX2XG F 6XLXKXHXwXwXwX5XL & - T (.).5 OXOXOXOX=X^.^.+X+X= vXY.;.x & l 1XeXwXwXrXKXLXlXJ S 1X4X5XJ a t 1 N ^ Q ( ",
"t.~ ! /  .|  .S.| | 1 # d 2X8X4X0XwXrX4XX.m 7 1.;.=.5 OXOX*X^.^.^.*X*X$X= !.2.-.q j l X.1X4XwXwXqXgX,X+ % K ,X2X{ n N M ^ Q W q.",
"XXT.r.,.>.>.>./ / ..C 8 c | 2X2X9X1X{ , < 6 O T 2.Y 5 $X&X*XZ.Z.j./.$Xj.O S.1.>.$ 6 y n n F 4X1X1X<XD @ # c m c M c C ^ Q ~ 3.oX",
"T.|.f.~ E -.:.! ! ! Q 9 v v M  .....| c m V $ k T 0 0 x.BX$XV.v.E.Y.E.;.4 Z T >.O 9 j y 1 c X.X.n m < > v  .A. .B 9 9 9 Q G.T.|.",
"s.b.5.%.5..XE.:.<.<.! ! / B B / 9 W / ^ o.| $ $ o 7 9 4 E :.t.:.G.! >.0 7 4 7 q 0 >.U k 9 b O.o. ./ 9 B >.>.-.! W.,.! 0 :.Q.T.c.",
"0.{.'.k.j.j.j.j.x.x.<.<.<.>.B ! ~ ~ Q B ^ ^ b B B ( I.Q A.F.P.F...^ ( A.I.S.S.S.T >.R V 0 ! /  .>.>.0 <.Y.<.x.Y.Q.!.Q.Y.E.XXE..X",
"9.7.*.z.z.z.Z.C.v..X.XT.Y.<.! E E E E ~ ~ Q Q Q Q W ~ ( I.P./ ..( Q / W.dXdXS.T -.;.S.Z -.t.-.>.:.x.<.E.#XC././.E.E.(.#X/.R.j.j.",
"{.{.z.z.z.z.z.k.n.M. XT.T.t.r.4.5.5.4.W ,.W W E E 4.M. XE.E.Q.BXE.:.T.#XY.Q.Q.-.1.%.;.1.2.C.R.x.C.B.B.V.V.V.V.V.V.R./.~.V.V.C.Z.",
"].].n.z.z.z.n.n.7.8.b.b.c.f.f.b.7.'.m.f.d.:.E E %.5.n.B.C.v.E.R.#Xj.R.#XR.R.Q.1.%.%.;.x.C./.$XC.C.B.B.B.B.B.V.V.~.~.~.~.~.~.~.~.",
".XR.C.v.v.v.n.B.k.k.k.9.7.7.l.l.&.b.p.T.r.,.0 E p.b.n.n.k.k.N.C..XC.B..XR.E.E.5.%.%.5.R..XV.B.C.n.n.B.B.n.v.v.v.V.V.V.V.~.~.~.~.",
"R.E.E.C.C.C.B.B.[.].n.l.z.7.l.l.k. XN.t.,.:.! :.f.s.l.9.9.k.c.c.c.v.v.n.R.E.N.x.:.%.5.M.M.c.c.k.c.c.v.v.z.k.k.z.B.V.V.V.V.V.V.V.",
"R.R.R.R.R.R.R.R. X[.'.n.'.'.'.'..X.XT.:.,.! :.r.h.s.0.0.9.9.p.8.7.l.k.b. X'.c.m.4.E E 5.p.8.s.b.8.k.l.k.k.k.k.k.[.[.[.[.V.V.B.B.",
"C.V.V.R.B.B.B.M.M.M.m.f.f.f.f.f.f.t.Y.:.G.~ r.d.h.s.9.0.9.9.9.7.7.l.l.l.'.b.8.s.h.4.&.4.4.6.a.a.9.9.b.b.l.k.k.k.'.n.n.n.n.n.v.v.",
"z.z.z.z.z.z.c.c.m.f.t.r.r.w.w.w.r.G.G.G.U.L.L.L.h.h.s.9.9.9.l.l.l.l.l.l.9.9.8.s.'.i.i.i.6.u.a.i.0.s.s.s.s.9.s.b.b.b.c.c.k.k.k.k.",
"*.*.z.z.k.k.c.f.f.d.r.w.w.F.F.+.( H.w.H.e.H.~ 3.g.h.a.9.9.l.{.].{.l.l.l.7.9.'._.i.i._._.a.g.}.a.6.0.s.s.s.s.s.s.8.8.s.s.b.s.s.p.",
"*.z.l.l.l.9.9.i.r.q.e.' ' +.+.+.' ' [ ] ] ` ` 3._ h.f.p.[.[.n.[.[.l.k.8.k.8.s.b.s.h.h.i.3._ q.g.g.a.a.a.a.a.a.a.s.s.s.s.s.s.s.s.",
"7.7.9.9.9.0.i.i._ _ ` ] ] ' ' ] ] ] ] ] ] ] ` q.y.|.T.M..X[.Z.n..X.X.X.X Xs.5.4.5.i.i.r.4.3.q.4.g.a.a.h.h.h.g.a.i.a.a.h.h.h.h.a.",
"h.h.h.g.i.q.3._ q._ _ u.}.u.u.u.[ [ ] ] ] [ [ _ ~ r.r.t.N.B.C.B.M.M.M.|.M.i.4.4.4.4.4.r.d.y.q._ q.u.g.g.g.g.i.i.4.u.i.g.h.g.g.i.",
"L.L.K.d.y.q.3._ 6._ 6._._.a.a._.y.[ ] [ u.u.u.u.( w.,.,.t.x.C.B.m.t.4.4.4.r.i.f.3.4.r.d.L.L.H.e.q.u.g.K.g.u.q._ _ 3.q.u.y.u.u.q.",
"e.r.r.y.d.g.g.g.i.6.i.a.a.6.6.g.y.e.q.u.g._.K.K.U.U.W.L.t.f.N.N.oXL.K.d.d.d.d.K.y.d.d.L.L.L.H.H.y.K.K.K.K.u.q._ _ _ q.` q.` _ _ ",
"r.r.y.d.d.h.L.L.h.h.h.h.a.i.i.f.L.L.f.g.h.a.i.r.H.G.U.U.G.L.T.f.H.H.J.U.U.H.q.3.L.L.K.H.H.e.e.e.H.H.L.K.y.q.` _ e.q.q.` ` ` ` ` ",
"9.9.0.0.p.p.p.f.p.f.d.t.f.T.T.t.G.N.N.b.s.i.i.r.` ) / ( ( H.}.r.) ) ' F.H.e.` _ H.y.e.e.' ' ' ' w.e.y.y.e.` ` ` J.H.H.y.e.e.e.e.",
"0.0.0.0.9.p.f.f.E E E E <.T.G.:.-.:.5.c.b.b.m.L.U.( ^ Q Q ` y.~ ) ) ) ] ] ] ] [ ] ` ` ` ' ' ' ' ` e.e.e.e.q.e.H.K.K.K.J.J.J.J.J."
};
