/* XPM */
static char *_7556780e9454e48eabf011dfd876faeUOnRPzo0SkvpcJfX[] = {
/* columns rows colors chars-per-pixel */
"64 64 248 2 ",
"   c #6C7B42",
".  c #857C53",
"X  c #788938",
"o  c #7A9238",
"O  c #6F863E",
"+  c #588750",
"@  c #688949",
"#  c #768C44",
"$  c #738549",
"%  c #7A8C4C",
"&  c #758B4C",
"*  c #6D944B",
"=  c #73924D",
"-  c #7B934D",
";  c #7E9E4B",
":  c #779646",
">  c #6B8D54",
",  c #6A8C5B",
"<  c #638B59",
"1  c #7A8956",
"2  c #6E935C",
"3  c #6B9659",
"4  c #7D9353",
"5  c #749D52",
"6  c #74925A",
"7  c #7A9C5B",
"8  c #769858",
"9  c #7DA344",
"0  c #7CA54C",
"q  c #7DA94D",
"w  c #79A74C",
"e  c #6CA558",
"r  c #76A354",
"t  c #7BA554",
"y  c #74AA54",
"u  c #7DAA54",
"i  c #75A55B",
"p  c #7BA55C",
"a  c #75AB5B",
"s  c #7CAA5B",
"d  c #7BB15C",
"f  c #7DB051",
"g  c #7B8467",
"h  c #6C9363",
"j  c #6C9968",
"k  c #739A62",
"l  c #779865",
"z  c #7A9373",
"x  c #6FA56C",
"c  c #74A563",
"v  c #7BA464",
"b  c #75AA63",
"n  c #7BAA62",
"m  c #73A56C",
"M  c #7BA46B",
"N  c #74AA6C",
"B  c #7AAC6B",
"V  c #79AA76",
"C  c #7EB37D",
"Z  c #7BB165",
"A  c #8A953E",
"S  c #8DAC3E",
"D  c #A8B83F",
"F  c #B0B53F",
"G  c #878C47",
"H  c #8C9A46",
"J  c #869949",
"K  c #929749",
"L  c #838C57",
"P  c #839C53",
"I  c #849D5C",
"U  c #879958",
"Y  c #949856",
"T  c #84A244",
"R  c #8CA544",
"E  c #84AA45",
"W  c #83A54D",
"Q  c #8AA44C",
"!  c #83AA4C",
"~  c #8BAB4C",
"^  c #8CAB44",
"/  c #92AB4C",
"(  c #9CAD4B",
")  c #96A847",
"_  c #8EB24E",
"`  c #8EB54B",
"'  c #9CB545",
"]  c #95BA43",
"[  c #9CBA45",
"{  c #94B44C",
"}  c #9BB54C",
"|  c #94BA4D",
" . c #9CBA4C",
".. c #96B345",
"X. c #83A553",
"o. c #8BA454",
"O. c #84AB54",
"+. c #8AAC54",
"@. c #83A55A",
"#. c #8BA45A",
"$. c #83AC5B",
"%. c #8AAC5B",
"&. c #93A553",
"*. c #92AC52",
"=. c #9CAC54",
"-. c #94AC5B",
";. c #99A758",
":. c #8CB254",
">. c #85B25B",
",. c #8CB35B",
"<. c #8DBA5E",
"1. c #89B554",
"2. c #93B454",
"3. c #9BB553",
"4. c #95BA54",
"5. c #9CBA54",
"6. c #94B45B",
"7. c #9BB65A",
"8. c #94BA5B",
"9. c #9BBB5B",
"0. c #A4AD4C",
"q. c #ACAE4A",
"w. c #A4AF46",
"e. c #A3B44C",
"r. c #ABB34D",
"t. c #A2BA4D",
"y. c #A9BA4E",
"u. c #A4B545",
"i. c #B2B44C",
"p. c #B5BB49",
"a. c #A2AD54",
"s. c #A4AD5C",
"d. c #ABAC58",
"f. c #A3B552",
"g. c #ABB552",
"h. c #A3BB54",
"j. c #ACBB54",
"k. c #A3B45B",
"l. c #ABB45B",
"z. c #A3BB5B",
"x. c #ACBC5B",
"c. c #B3B553",
"v. c #B3BA55",
"b. c #BABA54",
"n. c #B3B65B",
"m. c #BAB65A",
"M. c #B4BC5B",
"N. c #BBBC5C",
"B. c #BBB455",
"V. c #B3AE4E",
"C. c #869D64",
"Z. c #939964",
"A. c #8F926D",
"S. c #83AC62",
"D. c #8CAD62",
"F. c #83A46B",
"G. c #87A767",
"H. c #9BAC6C",
"J. c #94AB66",
"K. c #84B364",
"L. c #8CB463",
"P. c #8DB965",
"I. c #8BB46C",
"U. c #88B966",
"Y. c #94B463",
"T. c #9BB563",
"R. c #94BB63",
"E. c #9BBC63",
"W. c #9BB36A",
"Q. c #94BB6A",
"!. c #9CBB6C",
"~. c #92B369",
"^. c #84A371",
"/. c #9DAD72",
"(. c #94AF74",
"). c #89B87A",
"_. c #9CBE72",
"`. c #96B572",
"'. c #A6AD65",
"]. c #A3B563",
"[. c #ACB562",
"{. c #A3BB63",
"}. c #ABBC62",
"|. c #A3BC6C",
" X c #ABBD6B",
".X c #A4B46B",
"XX c #B3BB63",
"oX c #BABD63",
"OX c #B4BC6B",
"+X c #B9BE6C",
"@X c #BBB561",
"#X c #ABB672",
"$X c #A3BA72",
"%X c #ABBD73",
"&X c #A2BC7C",
"*X c #ACBC7B",
"=X c #A4B477",
"-X c #B3B472",
";X c #B5BD77",
":X c #ADA970",
">X c #C2BC5C",
",X c #C3B957",
"<X c #C2BD61",
"1X c #C4BA6C",
"2X c #9CC04D",
"3X c #9CC155",
"4X c #9BC15C",
"5X c #95C055",
"6X c #B8C64E",
"7X c #ADC255",
"8X c #ADC35C",
"9X c #A4C259",
"0X c #B4C254",
"qX c #B4C15C",
"wX c #BAC25C",
"eX c #B9C757",
"rX c #A9C04C",
"tX c #9BC36C",
"yX c #97C267",
"uX c #9FC173",
"iX c #8FC067",
"pX c #ADC264",
"aX c #A4C16B",
"sX c #ADC46A",
"dX c #A4C463",
"fX c #B4C263",
"gX c #BBC263",
"hX c #B4C36B",
"jX c #BAC26A",
"kX c #B8C968",
"lX c #A9C279",
"zX c #B3C372",
"xX c #BCC375",
"cX c #B4C37B",
"vX c #BCD270",
"bX c #C1C15E",
"nX c #C3C364",
"mX c #C1C36D",
"MX c #C9C468",
"NX c #C3C576",
"BX c #7EAE84",
"VX c #98BB84",
"CX c #85B18A",
"ZX c #AEBC81",
"AX c #ABC285",
"SX c #B8C786",
"DX c #BCD184",
"FX c #CBCB81",
/* pixels */
"Y.!.Y.-.W.lXH.4 % % L L 1 1 1 L A.. G '.jXb.p.6XD eXx.K % g z g I %X%XP # I J.I @.7 p K.n e e d u W q w w q >.<.R.8.8.4.| | { { ",
"T.T.T.Y.#.- # # *XAXZX/.U L Z./.:XZ.Y '.oXM.0XeXeXeXfX].U 1 g A.H.zXcX].U #.W.$XJ.#.@.L.L.d d U.,.,.:.O.q O.>.<.<.<.8.8.5.5.3X9X",
"E.T o : J : -.DX.XcXSXSX*X=X*XSX;X-X'.OXjXjXM.x.x.z. XcX/.1 l /.+XXXoXjXXXl.XXNX[.=./ 3.7.4.4.9.E.E.6.O.X.0 O.O.0 0 W E ~ / { { ",
"z.R T 7.sX{.{.sXzX X X%XcXcX%X.XzXzXzXzXxXzX].-.&.#.W.SXAXJ.J.%XjXq.0.n.gXgXoXjXXXl.f.h.h.t.[ 5.E.T.6.O.W 0 0 0 W W E Q R R ) ) ",
"8Xh.h.8XkXkXx.z.sX{.&.Q -.T.|. Xx.x.}.{.|.$XH.I C.C.(.&XlX_._.aXk.e.0.g.M.jXoXn.M.M.qX0Xj.e.'  .7.6.,.+.o.o.o.o.aX|.{.{.}.x.x.x.",
"e.j.h...) f.kXvXR ~ ~ Q T Q 7.sX} { / Q #.G.F.C.^.^.F.F.S.L.L.:.*.z.pXz.k.z.[.l.x.}.fXqXh.} }  .2.6.2.6.7.E.E.E.aXsXsXfXfXfXfXgX",
") e.0X7Xt.' ( ( ( 7.z.7.~ J T T ^ E T 0 X.F.F.F.^.^.v 7 5 t t q O.L.Q.Y.Y.Y.T.Y.6.6.7.7.2.4.4.4.5.3.2.7.9.{.{.{.7.7.f.f.f.r.g.r.",
"j.e.) } h.h.h.h.z.7.3.2.6.7.9.9.E 9 9 O.%.@.v v v v F.S.$.t t $.$.r 5 S.Q._.P.%.#.o.W W +.8.8.2.5.5.3.3.5.3.3.{ z.f.f.e.u.q.q.q.",
"qXM.j.f.f.f.f.z.7.7.7.7.7.9.9.E.8.R.R.,.$.u s $.S.s t r p s s s s d S.s t 5 @.D.X.X.o.+.+.:.8.4X} } } } } } 3.5.3.h.j.r.w.u.i.6X",
"fXfXM.x.x.z.k.7.z.z.9.7.7.8.8.8.t u O.q 0 w ! 1.<.>.O.u s s n s y 0 u @.@.X.o.o.7.T.{.z.3.{ { 3.t.t.t.t. . . . .} t.t.e.e.r.p.6X",
"x.M.fXfXfXpX}.z.3.2.*.~ ~ ~ ~ O.@.@.O.W ! ! ` 5X4.1.1.O.t t p @.+.~ 2.7.z.z.k.=.l.XXjXfXM.r.e.e.' ' ' ' ' } } }  .t.h.y.j.0X0X0X",
"f.g.x.qXfXfXpXpXz.z.9.3.2.2.2.6.Y.Y.Y.8.2.4.3X3X| | 1.:.O.@.G.D./ ' 3.z.x.x.l.g.N.N.N.wXN.v.r.u.t.t.}  . .h.h.h.5. .h.h.7X7X7X7X",
"e.e.f.h.x.8X8X8Xh.h.h.5.5.5.5.7.9.E.E.9.5.4.| | | 5.5.4.6.6.T.E.z.h.8XfXfXXXXXXXjXM.g.n.N.N.v.u.t.} } } 3.5.3.4.4.4.4.5.h.h.h.} ",
"t.e.t.t.t.t.h.h.' ' ' { { { } 3.4.5.5.5.5.3.} { } 3.3.5.3.7.9.z.9.9XdXpX}.}.}. X[.=.&.=.[.jXfXx.fXx.z.z.z.9.6.2.2.8.6.8.9.7.5.5.",
"t.t.t.' e.} e.t.t.t.t.t.t.h.h.9X . . .5.5.5.7.3.3.3.3.3.3.} ' { W 0 O.O.%.%.#.#.#.U P #.Y.|.|.|.zXsX}.{.aXaX!.R.+.,.6.6.6.8.8.9.",
"5.5.5.5.5.5.5. . . . .[ [ [ [ [  .[ } } } 3.3.3.z.9.5.5.h. ...^ W t t $.L.Y.%.X.#.#.@.@.p p p @.X.J ; ; o.%.@.t 5 t @.$.u O.>.,.",
"$.$.t t O.O.! E 4.4.| ] ] ] ] [ { 5.5.{ { 5.9.4.dX_ 2.9.E T ~ T O.+.6.E.E.9.2.~ +.0 0 u s i i n s s s s s n n p n n n s r t t u ",
"s s u $.,.R.8.8.5.5.| 2X2X[ ] ] { 3.9.9.9.4X4X8.1.:.8.yX6.8.E.R.6.6.7.7.3.{ { { 4._ ! u s a b Z d a a a a n p i i i p u t t u O.",
"2.2.2.4.5.5.5. . .[ ' ' [ [ ' ' z.T.T.6.6.+.,.8.R.tXtXR.Y.Y.Y.!.E.{.z.7.3.} 5.h.z.9.:.W t s K.K.,.>.O.O.$.@.$.s t s %.O.O.:.,.8.",
"t.t. . . .[ } ' h.} ' ' } t.h.k.T.#.P - # # ; D.Q.uX%.# = # # - =.7.k.h.f.h.x.qXh.z.3.E W L.Q.Q.R.8.2.2.8.6.,.+.%.6.6.6.7.7.7.5.",
"] ]  . . . .5.5.z.z.7.z.z.].k.T.- - - - & & = 7 J.~.4 @ 4 P % P H ) ( g.x.x.qXqXx.8Xz./ Q 6.E.E.z.5.3.3.7.7.7.3.3.3.7.k.h.h.h.h.",
"{ | 5.4.4.2.2.6.+.6.W.!.W.J.I P $ U /.=X/.G.4 $ 4 4 4 C.=X*X=X#XA A ( g.M.M.M.M.qXfXM.k.=.=.7.7.h.t.} t.f.h.h.f.f.f.j.x.0XqXqXM.",
"R.R.R.P.$.t 5 5 5 7 F.F.M k 2 > L =XSXSXSX*XH.U % $ G .X;X;X;XOXa.0.0.g.M.N.N.M.gXN.gXXXl.a.=.f.e.e.e.t.j.j.x.x.0XM.M.qXwXgXqXM.",
"I.I.I.S.p 3 > @ > 2 k k , , h l L '.;X-X#XSXSX#X#XY '.NXxXOX+XoXmXN.n.n.M.gXgXN.M.M.oXnXoXd.0.g.e.e.e.y.j.0XwXwXqXqXM.M.M.M.j.g.",
"6 7 l 7 6 l (.AX7 6 @ @ C.VXVXC.G G '.NXxXOXOXOX+X+X+XXX@X<X<XN.oXgXoXXXM.M.oXgXoXgXgXM.M.N.M.g.e.t.j.7X8X0X8Xx.x.qXfXM.g.f.a.f.",
"  Z.Z.$ $ /.SXAXH.I P I W.lX*X.Xs.) d.jX+XXX+XjXXXoXoXN.b.b.b.c.M.M.XXXXfXOX[.l.XXoXjXN.N.N.N.g.t.t.f.h.h.f.t.f.j.f.e.f.XXXXa.K ",
"G -X-XK K +XFXOX+Xl.d.XX+X+XoXjXmXl.XXjXXX[.XX[.l.XXgXwXb.p.p.i.g.k.}.hXhXhXk.&.=.l.OXfXoXN.N.v.x.z.h.h.f.3.} } f.( ( k.l.k.H X ",
"@X1XMX1X@X@Xm.m.<X<X>XwXN.b.b.N.kX}.sXhX{.=.=.Q =.l.qX0Xp.p.F w.f.k.{.{.|.].-.o.J -.}.hXfXqXwXwXfX8Xx.h.h.h.h.h.( f.}.}.k.&.H J ",
">Xm.N.MX<XV.q.b.c.bXnXb.i.i.i.0.7.7.|.aX-.X.X.J J *.z.h.e.u.D D 7.6.6.,.%.#.#.#.; o.T.}.pXx.M.0Xx.h.h.t.} t.t.h.( x.jXjX[.k.[.OX",
"wXN.b.c.r.r.r.r.0.wXkXj.e.g.e.R X.@.%.S.r r @.@.t +.6.7.5. .[ ' :.%.O.t 5 r p @.@.%.Y.{.z.f.t.h.f.t.t.e.e.t.j.j.0Xx.M.XXhXjX+X+X",
"8X8Xj.{ ' 5.5.3.3.{.dX{.E.7.+.X.t i a b 3 c B n s S.L.,.8.5.| | W u t t p n n n S.@.%.6.7.3.} e.e.e.e.r.y.j.0X0XwXj.e.f.M.+XXX[.",
"} { { 5.h.5.8.9.8.8.R.tXtXU.s s s i b n b b B i i n s s $.>.:.O.u t t $.I.I.I.S.s r W +.6.4.3.h.e.e.e.t.j.7X0X0Xe.e.0.f.l.XXXXfX",
"f.t.f.f.h.9.7.8.8.R.P.U.d y i a u u u s s a s a s s s n S.S.p r i i i $.Q.!.Q.R.R.,.~ E E _ { { h.t.} } 3.5.3.2.9.7.3.3.3.3.5.5.",
"f.f.e.} 3.3.*.+.0 q u u y y a d <.1.1.q q u O.>.s t r i n n F.n S.s t O.,.Y.6.2.7.2.{ { 2.4.4.5.5. .3.3.7.7.6.6.8.8.8.5.3. . . .",
"h.5.3.3.7.3.2.2.~ +.+.O.t t s >.yX4X8.:.O.O.,.R.L.,.$.t t p p s R.,.+.+.:.2.5.5.5.3.3.5.5.4X9.5.3.5.5.9.7.2.+.+.+.2.7.5.3.} }  .",
"5.5.3.3.5.z.z.{.z.7.7.-.+.o.%.6.6.5.9.8.2.2.8.E.tXR.,.%.$.$.$.$.E.8.2._ { { 3.5. . .5.5.5.4.4.{ 4.5.9.7.2.O.W W W +.8.9.3.} } [ ",
"4.4.4.| 4.9.z.pXk.k.a.a.=.k.].}.3.3.5.5.4.2.6.9.8.8.6.6.Y.Y.R.E.8.3.| { { { } [  .5.5.3.4._ ~ ! +.:.6.6.+.X.0 0 ; O.6.7.5.3. .t.",
"4.4.3X5.9.z.pXfXl.l.l.l.l.n.XXfXpXdXz.5.3.7.9.E.6.8.E.R.Y.Y.R.R.4.5.3X5. . . .5.5.5.5.4.:.O.W O.0 O.$.$.$.s s s t O.,.6.5.5.5.h.",
"{ 4.4X9XpXfXfXgXgXoXN.N.N.N.N.M.pX9.3.3.7.9.9.6.8.6.6.6.+.O.O.O.8.8.4X4.4.{ 4.9.9.9.8.,.$.u s s p i i n n n n n p s $.O.+.2.2.{ ",
"S ^ h.8XfXfXoXN.N.N.N.N.N.N.N.qX~ ~ ~ +.6.6.+.W X.O.O.u t t u $.1.>.>.:.W W O.,.R.Q.P.S.n c v B B b b c B B c c v i r r 0 W ! ~ ",
"h.f.f.f.g.n.N.<XN.N.N.N.wXqXe.) Q W W W W W X.O.u t t s s s s s s a s s S.@.p p 5 F.I.M M V V j N N N N x x m N m c v S.$.O.W 0 ",
"f.f.g.g.n.m.m.>Xb.m.N.g.e.e...R 9.R.,.>.O.O.s s s s s a n b b b b b b c v v v v 3 2 , < j V BXC V N x m V C C ).B N c p s L.!.aX",
"g.g.M.N.N.N.m.m.b.N.N.j.' ....{ 8.R.8.,.,.>.>.K.s s b b b b b b m V V m m M M k l j , h m CXCXCX).).VX).V h + + 3 3 c n S.L.Y.Y.",
"M.qXgXgXoXN.m.m.m.N.N.g.} } 5.3X2.:.:.:.O.O.$.$.r s b b b c b N m V V j h k k , 2 , , h j j j h > 7 I.I.v 3 3 2 > 6 7 D.!.!.T.6.",
"8X8X0XM.M.N.N.>XN.N.g.0.} 5.5.3.5.4.4.:.~ W 0 0 t p p p c b B B m m j < < 2 l 7 l 7 6 > > , 6 6 % # # # P J.&XSXI & O # o.]. X}.",
"3.5.5.h.g.v.N.<X<XN.g.0.f.h.3.{ 5. .5.3.4.2.+.+.$.$.s p v v B N V k , < 2 C.(.&X&X=XJ.% % Z.=X*XxXs.H K '.;XcX#XH.Y X A K k.x.x.",
"| | | } t.g.n.m.nX<Xm.n.M.fXx.} ' ' }  .5.5.7.9.Y.,.@.s n n v k M h 6 F.(.=X*XSX*X;XH.G G '.cXxXmXN.n.n.mXNX+X[.xXOXXXXXoXN.b.c.",
"| |  . .t.e.r.r.N.N.M.M.M.fXx.f.u.u.u.u.[ } } 2.{.6.o.X.#.#.P - = @ 4 $XSXcX#XOXOXNXOX;.d.1XNXd.c.>XnX<Xc.d.N.mXoXoXoXN.m.c.i.V.",
"7X7Xj.t.e.e.e.0.g.0XwX8Xt.' t.9X' ' [ [ [ [ [ } { k.}.OX+XOXXXXXs.s.s.[.XXXXoXoX<X<X<X<X<X>X<X>Xb.N.wXN.N.N.N.N.N.N.m.m.m.B.B.B.",
"wXqXv.j.r.r.y.j.} t.t.t.t. .h.h.h.t.[ [ [ [ ' ' } k.[.[.n.n.M.N.oXM.XXgXnXgXN.N.m.m.>X>X>X,X,Xb.b.qXqXwXN.M.N.N.>X>X>X>X>X>X>X>X",
"wXb.v.r.r.g.j.M.j.t.( } } f.} ( f.f.e.' ' [ t.t.} z.}.x.a.0.g.qXM.M.M.gXgXN.M.v.n.v.b.N.N.b.c.c.j.j.M.v.v.v.v.b.N.N.m.N.>X>X>X>X",
"N.b.v.c.c.v.M.M.gXx.h.f.z.z.z.3.k.f.f.t.} [ t.t.3.z.z.z.} } e.y.e.e.f.x.qXj.j.g.e.f.j.j.j.j.r.e.e.e.j.g.r.e.r.r.M.N.N.N.N.N.m.N.",
"N.N.N.N.N.N.N.fXfXXX}.}.pXsXsXhXOX}.x.z.h.} } } 5.5.7.5.5.[ [ ' } } } h.8Xh.h.h.} 3.h.h.h.h.3.} } t.t.t.t.e.e.e.qXwXwXwXwXN.M.v.",
"c.b.N.N.M.M.M.x.x.}.z.7.7.7.T.E.].].].z.z.h.5.5.7.5.2.5.5.2X[ S t.} } h.h. .}  .} 3.3.5.5.5.3.{ }  .t.t.t.} t.e.7Xj.j.j.j.j.j.g.",
"r.r.r.g.g.g.f.f.z.7.2.o.X.W W X.o.#.-.6.7.4.4.4.7.8.5.3.5.t.t.t.h.} } }  .} { { 3.4.5.4.4.4.4.4.|  .5.5. .}  .5.t.f.f.f.t.t.t.e.",
"g.r.e.e.e.f.f.9.7.2.+.X.O.O.O.@.@.@.%.O.O.! T 9 8.9.9.7.} t.rX7X7Xt.} 5.h.5.3.5.5.5.4.8.8.8.8.4.{ | 3.3.} { { } 3.3.5.5.h.5.5.5.",
"h.h.h.h.h.5.3.2.~ O.O.0 w t u s p n s u q w 9 ! 9 9.9.7.fXqXv.eX0Xj.f.f.f.3.5.z.5.9.9.2.! 9 ! 8.8.4.4.4.4.4.4.4.5.5.3.3.3.3.5.5.",
"} } 5.3.5.4.2.:.q w 0 u u u u a i i y y y q q W :.aX{.}.jXgXc.v.kXkXkXkXfX7./ R *.2.2.+.! ! W ! 4.4.4.9.9.9.8.4.2.4.4.9.9.9.9.5.",
"5.5.3.4._ ~ E 9 ! w u <.iXU.K.U.Z b a y u f q q ; o.o.&.[.XXn.M.}.}.}.}.{.=.Q T E E W +.:.:.O.0 ! :.8.8.8.8.:.:.! :.2.8.9.8.8.2.",
"4.4.4.2._ ! ! 9 ! q 1.yXtXR.P.tXK.n a u >.<.>.O.; X.P J &.s.n.XX].=.&.&.*.*.-.T.X.X.+.6.R.R.,.O.O.:.8.R.8.:.O.0 0 W O.:.,.>.+.O.",
"E ~ _ :.2.4.8.8.:.:.8.R.8.:.,.R.L.S.$.>.R.yXR.R.uX_.$XW.;.;.].].zX!.Y.6.Y.6.Y.T.,.6.Y.R.Q.R.,.>.>.R.R.R.R.>.O.0 q q O.u O.u 0 0 ",
"~ ~ _ 2.2.7.9.E.E.E.E.9.6.6.6.T.!.W.T.E.9.8.,.%.~.D.`.`.J.W.|.T.D.D.~._._.Y.%.t Q.Q.P.L.>.O.O.O.,.L.Q.Q.,.O.t 0 $.O.O.t t t t t ",
"7.7.6.6.3.3.3.7.3.7.3.*.3.{.k.=.T.'.].].7.6.-.o.t * = 7 7 ~._.D.* = t S.L.$.t r U.K.$.u u u u 0 u $.,.%.$.t t u P.L.L.>.$.$.$.>.",
"7.7.7.7.7.7.7.7.o o o X H k.=.H G K ;.k.{.{.{.!._.7 @ @ @ p L.5 * * * 5 t p s $.s y y r w u w r t $.$.$.$.O.$.L.Q.Q.Q.P.P.P.P.P."
};
