/* XPM */
static char *_b006c1348d64f09af236cd5d0d3df4bFhmRkkbpnfQ4SZOF[] = {
/* columns rows colors chars-per-pixel */
"64 64 256 2 ",
"   c #050703",
".  c #160809",
"X  c #091505",
"o  c #141803",
"O  c #191817",
"+  c #0E0D19",
"@  c #241719",
"#  c #2E1013",
"$  c #182508",
"%  c #192615",
"&  c #082813",
"*  c #262504",
"=  c #242715",
"-  c #2D2D15",
";  c #191925",
":  c #151330",
">  c #271625",
",  c #30162B",
"<  c #192528",
"1  c #272725",
"2  c #322D31",
"3  c #421728",
"4  c #74373A",
"5  c #461D29",
"6  c #2C5128",
"7  c #4B5233",
"8  c #5D7936",
"9  c #65753C",
"0  c #2F2846",
"q  c #703949",
"w  c #5B3A4D",
"e  c #584652",
"r  c #674659",
"t  c #7A4A58",
"y  c #724D52",
"u  c #596846",
"i  c #597053",
"p  c #667A48",
"a  c #687855",
"s  c #6B714F",
"d  c #775768",
"f  c #6F546B",
"g  c #577366",
"h  c #71676E",
"j  c #5B5B67",
"k  c #883B3E",
"l  c #B4373B",
"z  c #B1453B",
"x  c #C2433D",
"c  c #933A4B",
"v  c #A93C4A",
"b  c #CE3C48",
"n  c #E13B4F",
"m  c #874958",
"M  c #944756",
"N  c #97565B",
"B  c #8D4E50",
"V  c #B54846",
"C  c #BA5748",
"Z  c #A84958",
"A  c #A95658",
"S  c #B85657",
"D  c #B44D4D",
"F  c #B16451",
"G  c #875568",
"H  c #8F5368",
"J  c #AF5768",
"K  c #916777",
"L  c #B3676B",
"P  c #8C745A",
"I  c #C74947",
"U  c #D84C4B",
"Y  c #C7564B",
"T  c #D5534C",
"R  c #C74B55",
"E  c #D84B54",
"W  c #C75858",
"Q  c #D75657",
"!  c #E44957",
"~  c #E45757",
"^  c #C86459",
"/  c #CE5666",
"(  c #CE6B6C",
")  c #E96167",
"_  c #C3373A",
"`  c #688438",
"'  c #758E37",
"]  c #7BA43C",
"[  c #4A8437",
"{  c #5A8555",
"}  c #688847",
"|  c #788A47",
" . c #6B964A",
".. c #77994A",
"X. c #678655",
"o. c #798857",
"O. c #6B9655",
"+. c #789857",
"@. c #7CA54C",
"#. c #7DAA4C",
"$. c #79A54A",
"%. c #7BA553",
"&. c #7CAA53",
"*. c #7CA55C",
"=. c #7DAB5B",
"-. c #75A857",
";. c #75AE56",
":. c #688A66",
">. c #799A66",
",. c #778F69",
"<. c #78A765",
"1. c #79AB6D",
"2. c #7CC45D",
"3. c #878D3E",
"4. c #8FAE3A",
"5. c #ADBC3B",
"6. c #868A46",
"7. c #889B48",
"8. c #848958",
"9. c #889A58",
"0. c #939651",
"q. c #83A54D",
"w. c #83AA4C",
"e. c #8BAC4C",
"r. c #88A547",
"t. c #96AC49",
"y. c #8BB34A",
"u. c #9CB445",
"i. c #95B44C",
"p. c #9BB54C",
"a. c #93BA4D",
"s. c #9CBA4D",
"d. c #98B845",
"f. c #84AC54",
"g. c #8BAC54",
"h. c #83AC5B",
"j. c #8AAD5B",
"k. c #87A457",
"l. c #95AA56",
"z. c #8CB254",
"x. c #8CB35B",
"c. c #88B559",
"v. c #94B454",
"b. c #9BB553",
"n. c #95BA53",
"m. c #9CBA53",
"M. c #93B45B",
"N. c #9BB55A",
"B. c #94BA5B",
"V. c #9BBB5C",
"C. c #A6AD4B",
"Z. c #A3B44C",
"A. c #AAB44D",
"S. c #A3BA4D",
"D. c #A7B848",
"F. c #B6B94B",
"G. c #A5AE59",
"H. c #A3B453",
"J. c #ABB453",
"K. c #A3BB53",
"L. c #ACBB54",
"P. c #A4B45B",
"I. c #A3BB5B",
"U. c #ACBC5B",
"Y. c #ACB45C",
"T. c #B3BB55",
"R. c #B3B65A",
"E. c #BCB65B",
"W. c #B4BC5B",
"Q. c #BBBC5B",
"!. c #B7B754",
"~. c #B4AD57",
"^. c #869A68",
"/. c #8C9570",
"(. c #86A866",
"). c #97AA68",
"_. c #8CB462",
"`. c #8AB767",
"'. c #94B364",
"]. c #9CB562",
"[. c #93BC63",
"{. c #9BBC63",
"}. c #9CBA6B",
"|. c #95B86A",
" X c #87A475",
".X c #98AB77",
"XX c #8AB777",
"oX c #9CB876",
"OX c #A6AB65",
"+X c #A4BC63",
"@X c #ACBC62",
"#X c #A6B668",
"$X c #B4BD63",
"%X c #BBBC63",
"&X c #B2BB6B",
"*X c #B7B667",
"=X c #A7B975",
"-X c #B6B877",
";X c #ACA976",
":X c #A1994E",
">X c #C2BB5C",
",X c #C3BC67",
"<X c #C3BC76",
"1X c #D79379",
"2X c #9AC256",
"3X c #99C44D",
"4X c #ADC355",
"5X c #A9C35B",
"6X c #B4C25C",
"7X c #B7C557",
"8X c #B6C74C",
"9X c #99C267",
"0X c #99C276",
"qX c #8EC26A",
"wX c #ADC363",
"eX c #A8C46A",
"rX c #B4C262",
"tX c #BAC264",
"yX c #B7C56A",
"uX c #A8C276",
"iX c #B5C475",
"pX c #BCD270",
"aX c #C1C458",
"sX c #C4C46A",
"dX c #C9CB6F",
"fX c #B66685",
"gX c #CE718D",
"hX c #92B087",
"jX c #A9B985",
"kX c #B8B996",
"lX c #A9AF90",
"zX c #B19CA7",
"xX c #B5AFAE",
"cX c #A69191",
"vX c #D39B8E",
"bX c #D5AC94",
"nX c #F1AB98",
"mX c #CD9DA7",
"MX c #D0ADB2",
"NX c #F6B4AC",
"BX c #F19994",
"VX c #AAC488",
"CX c #B6C686",
"ZX c #B3CF90",
"AX c #B5C7A8",
"SX c #C9CAB0",
"DX c #F4D4B5",
"FX c #D5CF92",
"GX c #B6B1C2",
"HX c #C8BEC9",
"JX c #FFCAC6",
"KX c #FFD7C9",
"LX c #F1DACC",
"PX c #FAE9C7",
"IX c #EFEED5",
"UX c #EAD8D2",
/* pixels */
"'.}.'.j.|.uX).+.| o.8.8.o.o.8.8./.P 8.OXtXT.F.8X5.8X4X7.| o.,.o.9.=X=X9.| 9.).9.9.9.9._.h.$.$.f.f.w.@.$.$.#.c.B.[.B.B.n.a.a.i.i.",
"].].].'.k...| | =XjXjX.X9.8.^.;X;X/.0.OX%XW.T.7X7X7XrXP.9.o.o.^.).iXiX#X0.l.OX=X).k.k.j.x.f.f.c.x.x.z.f.@.f.x.B.B.B.B.B.m.m.2X5X",
"{.r.' ..7.7.M.CX#XiXCXCX=X=X-XCX-X-XOX&XyXyXW.U.@XI.&XiX).o.+..X&X$X$XyX$XP.&XpX+Xl.e.v.n.n.n.2X9X[.M.f.q.@.f.f.@.@.q.w.e.e.i.i.",
"I.r.r.N.eX+X+XeXiX&X#X=XiXiX=X#XiXyXyXiXiXiX#Xl.l.k.oXZXVX).).=XyXJ.C.R.tXyX$XyX$XI.N.m.2X3Xa.2X9X[.M.h.q.@.@.@.q.q.r.r.r.r.t.t.",
"5XK.K.5XyXyXU.I.eX+Xl.r.l.].#X#XU.U.U.+X#X=X).^.^.^..XjXVX=XoX=XY.C.C.J.W.tX$XU.rXwXwX5X2Xa.a.n.B.M.x.g.g.h.g.g.eX+X+X+XU.U.U.U.",
"S.L.K.t.t.H.yXpXr.e.e.r.r.e.N.eXp.i.t.r.k.(.(.^. X X X(.(.`.|.M.l.Y.$XY.G.P.@XY.@XwXwXwXI.n.a.n.v.M.v.M.N.].{.{.eXeXwXrXrX6XrXtX",
"t.S.6X4XS.u.t.t.t.N.I.N.e.7.r.r.y.r.$.$.k.k.(.(. X X<.+.+.%.&.q.g.N.#X].N.].OX].M.N.].N.N.N.N.b.N.b.v.N.V.+X+X+XN.N.H.H.H.A.A.A.",
"L.C.t.Z.K.K.K.K.I.m.b.v.B.N.V.V.w.$.$.f.j.h.*.<.*.*.<.(.h.%.@.f.h.....j.}.=X'.k.k.k.7.r.l.N.P.b.I.m.b.b.b.b.b.i.I.H.H.Z.Z.A.C.C.",
"6XW.L.H.H.H.H.I.N.N.N.N.N.B.V.{.|.|.|._.f.&.&.f.f.&.$.c. .#.#.&.h.h.c.`.} %.j.k.k.q.r.t.t.b.H.L.s.p.p.p.p.p.b.m.b.K.L.A.C.C.F.T.",
"rX6XW.U.U.I.P.N.I.I.V.N.N.B.B.[.*.*.h.%.$.$.w.y.2X] 2X' c.&.c.=. .=.$.-.=.&...h.M.N.I.U.H.C.C.Z.S.S.S.S.s.s.s.s.p.Z.S.Z.Z.D.F.7X",
"U.W.rXrXrXwX@XI.b.v.v.e.e.e.e.f.*.(.h.&.w.y.y.3Xa.2X] z.` &...*.[.@.x.|.qX_.9XB.V.5XrX6XL.D.D.D.D.u.u.u.u.p.p.p.s.S.K.L.L.4X7X7X",
"H.J.U.6XrXrXwXwXI.I.V.b.v.v.v.M.|.|.|.M.v.a.3X3X4.2Xw.z.0X+.oX>.).).}.}.ZX}.j.V.eXwX5X4X4X4XD.D.D.S.s.s.S.K.K.K.m.s.K.K.4X4X4X4X",
"Z.Z.H.L.U.5X5X5XK.K.V.m.m.m.m.N.{.].{.V.m.n.a.s.a.eXeXj.oX^.hXlX.X* * o   - jXCXCXiX@XP.U.6X4Xu.S.p.p.p.b.m.b.v.v.v.v.m.K.K.K.p.",
"S.S.Z.Z.Z.S.K.K.u.u.u.i.i.i.p.p.n.m.m.m.m.s.b.v.N.g.)..X.XAX% o - # # - # o * o ).).).].#XyXwXI.wXU.I.V.I.V.B.v.v.M.B.B.V.N.m.m.",
"S.S.S.u.s.s.S.S.S.S.S.S.S.K.K.4Xd.d.s.s.s.m.V.].#X)..X- =     1 , # # 3 # , 1 o 7 s /..X.XoX=X#XiXwX@X+XeXeX}.[.g.x.M.M.M.M.B.V.",
"m.m.m.m.m.m.m.s.s.s.p.p.p.d.d.d.D.D.d.y.a.B.].)..XhX$ o @ @ - # H gXJ J fXH 3 #   7 ,. X X^.(.j.q.7.....k.h.h.%...%.h.h.&.f.x._.",
"h.h.&.@.w.w.w.w.V.B.n.a.d.d.4.D.R.G.9X2.;.`.=XjXlX- @ , # P DXDXS / R / / / c m . 1 & hX<.<._.$.f.&.&.=.<.<.<.<.=.=.=.=.-.%.%.=.",
"=.*.&.f.x.B.V.V.V.V.V.2Xa.d.4.u.0.&XqX2.2.qXjXX =   3 K B KXPXDX^ U U b b / / H , O X & 1. .` eXf.;.;.-.<.<.<.*.-.-.&.&.%.%.=.h.",
"v.v.i.i.m.m.m.m.m.b.p.p.s.d.5.u.iXl._.qX0X(.$ = @ 5 H gXS KX1X1XI _ ) ) ( D L m G @ @ X  XhX0X%.c.z.c.f.h.h.h.=.&.f.f.f.f.j.x.'.",
"K.K.s.s.s.s.p.p.K.b.u.t.p.S.S.K.l.'.k.p o.$ X @ # 4 J S R BX1X( T ~ Y V JXNXL t q K # - o ,.XXXX[.n.v.v.M.M.x.g.z.v.v.v.N.N.N.].",
"i.d.p.s.s.s.m.m.I.I.N.P.I.+XP.N...| 8./.o = = # B L ) I E I W z ) _ ^ C vXKXIXN N H L # . $ AXXX{.m.m.b.N.b.b.b.b.b.b.H.L.I.I.P.",
"i.n.m.n.n.v.v.v.g.M.].}.|.).9.+.(.} lXlX  2 . G c / I E Q I Q T _ E ^ C 1XbXDXKXq J N 3 # O & hX].H.p.Z.S.S.S.S.K.K.L.U.6X6XW.W.",
"[.qX|.`.h.%.......%.(.(.<.>.:.X.X.jXSX1 2 . d M D Q I T C Y T ! ! ! I ^ bXbXDXKXL Z fXM 5 . & hX}.H.H.S.A.L.L.L.4XT.W.6XtXtXrXW.",
"`.XXXX(.<.O. .}  .O.+.O.O.:.:.,.>.hXxX> + h G c / E Q C C ^ R E n ! Q C F vXnXvXA M c fXt 2 + % =XP.P.L.L.7X7X7X7X6XW.W.$XW.L.J.",
"+.+.>.>.,.>..XVX| (.} ` +.jXhXhX:.% @ > f f H M R Q z DXDXDXW Q ! ! E T Y C C S S c Z H y d ; 1 jX=X&XP.L.4X7X7XL.6XrX$XY.G.G.H.",
"p ^.^.| o..XCXiXl.7.` l.jXVXSX X1 % + > f G q M ( V ( DXDXPXnXW ! ! E U T Y Y W S Z c m t d , . * ).=X#XL.S.4.D.L.H.b.+X&X&XG.7.",
"6.*X-X0.0.-XFX*XdXW.C.W.&XOX;X* % + 2 r t K G m k S V C NXPXKXJXE ! ! U U U T W D J M H G G r , = $ jX}.l.5X4Xu.H.b.l.OX#XP.7.' ",
"E.,X<X<X*X*X*X!.F.F.aXaX,XFX;X- % + e K H q H 4 N L S ^ ^ NXKXDXR E ! ! ~ U T R S J M m m t q 5 . 2 o =XN.I.u.S.t.P.&X&XOXl.7.3.",
">X!.%XsX,X~.~.!.8XF.F.7XG.OX* o < j d zXmXm N B 4 B S W V W F C W Q E E U T Q W / Z M c N H m y 2 X - ).iXp.4.4Xp.@XiXiX&XOXY.$X",
"7XT.T.R.Y.Y.J.A.D.7XtXrX#XkXX 2 + h e MXmXL A M c Z Z l ) Q C Y W R V l l I R W v c Z M N N N G e 2   jXl.Z.dXZ.6X@X*X&X&XiXyXrX",
"4X4XU.N.l.].N.b.4.5X5Xj..XlXX ; , f h MXvXBX( S ( c Z v l b ) I Y D V z z V C W v Z Z Z L L F y f 1 = o &XW.C.7X6XY.G.OX*X%X$XJ.",
"d.d.i.N.{.].N.V.2Xn.c.0XZXhX& < > f f y mXBXS W Z ( A ( R ) x Q Y Y Y C C W W W S J c L JXKXJXt h   - $ #XU.6X4XH.H.G.G.@X$XrXrX",
"S.Z.Z.H.I.V.N.M.V.[.`.`.`.O.6   ; 2 r d d t H J A L A DXJXNX( D Q T T T T Y Y C D J N KXJXMXzXf j ; % $ VXq.b.5XK.b.b.b.N.N.N.N.",
"Z.Z.Z.p.p.b.i.e.$.&.&.=.=.-.[ 6 O > > K w K m m B B F vXnXKXJXA W E I I I Y ^ ^ L k m mXmXzXh j j < X = (.}.9X] n.n.n.m.m.m.m.m.",
"S.s.s.s.m.b.v.v.r.g.j.h.=.h.*.+.- O @ . d r G t B 4 B L cXvXMXJ J / / ( ^ S M c B H q MXMXd h e O X % .XoX'.g.e.e.v.m.V.m.b.p.b.",
"a.a.s.m.m.I.I.I.V.+X].l.k.j.'.oX X$ o 2 1 @ w d y G y y G t t H M M M M B B B N t y t d r @ . 2 % 1 $ .X(.k.q.z.r.e.B.V.m.p.p.p.",
"a.a.a.a.m.m.I.wXP.P.G.l.l.P.#X#X(.VX^.o o @ 2 > # y d y d K r r G G G G m t t t d d h e 2 O . $ X ,.^.ZX`.+.......f.M.V.V.b.s.S.",
"n.2X2Xm.m.I.wXrXY.Y.Y.Y.Y.$X$X@XiXuXoXhX1 O O > > @ > > > r f h r r d d f w 2 , + 0 + ; O O 2 X  XVXO.O.XX`._.h.%.h._.'.N.b.m.K.",
"i.n.2X5XwXrXrXtXtX%X%X%X%X%XW.$XM.[.VXa i O 1 > , + 2 > > > > @ , > > > > > > : 0 : 0 ; ; hX/.hX>.<.-.<.`.O. .<.<.<.(.h.j.z.i.d.",
"4.e.K.5XrXtX%XQ.%XQ.Q.Q.Q.T.Q.rXv.f.8 a $ 1 + ; xXHXzX+ > @ O @ @ @ @ @ > > > : : : : 0 + g hX1.1.<.1.<.O.1.1.<.<.<.<.*.%.q.r.r.",
"I.H.H.C.J.R.Q.sX>XQ.Q.Q.7X6XS.t.r.` 8 p % O ; xXGXxXxXxXzXxXxXxXkXbXkXxXxXxXGXGX2 + 0 : g g { 1.1.<.<.<.<.<.<.1.1.1.1.(.(.f.r.] ",
"H.H.J.J.R.E.Q.>X!.Q.T.A.Z.Z.t.4.V...9 o.$ O O GXxXzXxXUXUXSXSXUXLXDXDXLXUXUXHXxXGX2 : + g :.:.1.1.<.-.<.<.1.1.XX1.1.1.<.*._.{.eX",
"J.Y.W.Q.Q.Q.E.E.!.Q.7XL.u.d.d.d.N.9 +.a i % 2 cXxXxXSXIXIXSXlXkXPXPXPXPXPXUXMXzXxX; + 2 g i { XXXXXX0XXX1.O.{ { :.>.>.<.(._.M.B.",
"$X$XtXtX%X%XE.E.E.Q.Q.A.u.p.s.2XN.8 +.9 ,.% X = xXxXlXlXDXIXSXkXDXDXDXDXDXSXkXlXxX2 < 7 i i { O.} +.`.`.*.O.O.O.O.+.>.(.oX}.V.v.",
"wXwX6XW.W.Q.Q.>XQ.Q.J.C.p.s.s.s.v.7.` | p 9 $ $ = /.AXkXkXlXlXlXAXkXkXkXkXkXkXkX. o u a u 7 p o.| | | | 7.'.uXCX9.o.} | k.#X@X@X",
"m.m.m.H.J.W.Q.,X,XQ.J.C.S.K.p.t.i.v.' ` } o.a a i o.a u a a a a a u u u u u a 8./.8.a 7 7 o.=X).CXOX0.7.P.yXiX#X).9.| | 0.G.Y.L.",
"n.a.i.p.H.J.R.E.sX,XE.R.W.6XU.u.2Xm.B.` +.8 O.X.X.X.p a a a i a g i i a o.o.8./.a /.8.s p ).CXCX<X-X*X*XsXsX%XY.iX&X&X&X%X%XT.A.",
"n.n.m.m.H.H.J.J.Q.Q.T.T.6X6XU.H.d.2Xn.V.{.k.| } | } p 9 p a a u i u u o./.^.8.8.8.0.s 6.OX<X-XOX*X,XsX,XR.J.Q.sX%X%X*X*XE.!.~.A.",
"4XL.L.K.S.Z.Z.C.J.6X6X4XZ.u.Z.5Xp.p.s.s.s.m.m.N.l.' ' 6.6.6.0.*XOXl.6.6.6.3.3.3.6.:X~.,X,X,X,X,XE.Q.%XQ.Q.Q.Q.Q.Q.Q.Q.E.E.E.!.!.",
"6X6XT.L.A.A.A.L.p.Z.S.S.Z.p.K.K.K.K.s.s.d.d.u.p.U.P.P.&X$XG.R.dXsX%X$X*X%X%X%X,X~.E.,XsX,X>X>XE.T.W.6X6XQ.W.Q.Q.>X>X>X>X>X>X>X>X",
"7XQ.T.A.A.J.L.W.L.Z.p.p.p.H.p.t.H.H.Z.s.u.s.S.K.b.P.@X@XP.C.J.W.$XU.@XtXyXtX$XW.R.%XtX%XQ.R.R.R.L.T.W.T.T.T.T.T.Q.Q.Q.Q.>X>X>X>X",
"Q.T.!.J.J.T.W.W.tXU.L.H.I.I.I.b.P.P.H.H.s.s.s.m.N.I.+XN.t.p.S.L.H.H.H.U.rXU.H.H.p.H.J.U.U.J.J.L.Z.S.L.J.A.Z.A.A.W.Q.Q.Q.Q.Q.Q.Q.",
"Q.Q.Q.Q.Q.Q.Q.rXrXrX@X@XwXeXeXyX&X&X@XI.H.p.p.p.V.wXV.m.m.5XK.s.p.p.H.U.wX5X5X5Xb.K.I.I.I.K.b.p.p.Z.Z.Z.Z.Z.Z.Z.6X6X6X7XQ.Q.W.T.",
"!.!.Q.Q.W.W.W.U.U.@XI.N.N.N.].+X#X#X#XP.I.K.m.m.v.v.v.m.m.m.d.4.s.i.i.b.b.b.b.m.b.b.m.V.V.N.v.i.p.s.S.S.Z.p.Z.S.4XL.L.L.L.L.J.J.",
"A.A.A.J.J.J.H.H.I.N.l.g.q.q.q.q.k.k.l.M.N.B.n.B.V.B.N.I.5X4XS.S.4XK.K.K.m.i.i.b.v.v.v.n.B.B.B.B.a.s.m.m.s.p.s.m.K.K.H.H.Z.Z.Z.Z.",
"J.A.S.Z.Z.H.H.V.N.v.g.q.k.h.f.h.k.h.h.f.f.w.r.$.{.B.v.b.p.u.D.7XS.b.H.K.K.b.b.V.5XV.V.B.B.B.B.B.i.a.m.m.p.i.i.p.b.b.m.m.K.m.m.b.",
"K.K.K.K.K.m.b.v.e.f.f.@.$.%.&.=.*.<.=.&.#.$.#.w.@.V.V.N.rX6XT.7X6XL.H.H.H.N.m.I.m.V.{.v.#.@.f.B.B.n.n.n.n.n.n.n.m.m.m.m.m.m.m.m.",
"p.p.m.m.m.n.v.z.#.$.@.&.=.&.&.-.-.-.-.;.#.#.#.w.z.eX+X@XyXtXJ.T.yXyXyXyXwXN.e.r.v.v.v.g.f.@.w.w.B.n.n.V.V.V.B.n.v.n.n.V.V.V.V.m.",
"m.m.m.n.y.e.w.$.w.#.&.x.qX`.c.`.<.<.-.;.#.#.#.#...g.g.l.Y.$XR.W.@X@X@X@X+Xl.r.r.r.q.q.g.x.x.f.@.f.z.B.B.B.B.z.z.w.z.v.B.V.V.B.v.",
"n.n.n.v.y.w.w.#.w.#.c.9X9X[.[.qX`.<.&.&.c.c.c.c...k.7.7.l.G.R.$X+Xl.l.l.l.l.l.].q.q.g.M.[.[.x.f.f.z.B.[.B.z.f.@.@.w.f.c.x.c.g.f.",
"r.e.y.z.v.n.B.B.z.z.M.[.B.z.x.[._.h.f.c.B.9X[.[.}.oX=X].l.l.P.+XuX}.].l.M.M.'.}.x.M.'.[.[.[.x.x.x.[.[.[.[.x.f.@.@.#.f.&.f.&.@.@.",
"e.e.y.v.v.N.V.{.{.{.{.V.B.M.B.].}.].].V.V.B.z.g.'._.|.|.'.].#X].'._.'.oX}.'.h.&.[.[.[._.c.f.f.f.x._.[.[.x.f.%.@.h.f.f.&.&.&.&.&.",
"N.N.B.B.N.b.N.N.N.N.N.v.N.+XP.l.N.OX#XI.N.v.g.h.%. ...+.+.'.}.j. . .%.(._.h.%.$._.c.h.=.&.&.#.@.&.h.x.h.h.&.%.&.`._._.c.h.h.h.h.",
"N.N.N.N.N.N.N.N.' ' ' ' 7.P.b.3.3.7.l.P.I.I.+X}.0X+.} } } *._... . . .+.%.*.=.h.&.-.$.$.;.&.#.$.%.h.h.h.h.f.h._.|.|.|.[.[.`.`.`."
};
