/* XPM */
static char *_2418_c15273ebf1eff102afd753f4ac1efdb94fe7a31ce3fe2c32f7be1a81374a96fb[] = {
/* columns rows colors chars-per-pixel */
"64 64 251 2 ",
"   c #040A04",
".  c #140B07",
"X  c #071604",
"o  c #161908",
"O  c #080617",
"+  c #150B17",
"@  c #0B1518",
"#  c #161817",
"$  c #231B08",
"%  c #251B1B",
"&  c #082302",
"*  c #172506",
"=  c #1A2418",
"-  c #1C3209",
";  c #252707",
":  c #25271B",
">  c #2A3515",
",  c #0B0427",
"<  c #191727",
"1  c #1B1837",
"2  c #190C30",
"3  c #221A24",
"4  c #231936",
"5  c #1A2425",
"6  c #1D2D2D",
"7  c #272726",
"8  c #273427",
"9  c #272637",
"0  c #322D31",
"q  c #2D4420",
"w  c #587136",
"e  c #647E35",
"r  c #465C22",
"t  c #1E1842",
"y  c #291E45",
"u  c #2A2645",
"i  c #2E2D43",
"p  c #56704A",
"a  c #667A48",
"s  c #667D57",
"d  c #76785A",
"f  c #68714F",
"g  c #6F7864",
"h  c #857A57",
"j  c #877768",
"k  c #887A6F",
"l  c #6B8637",
"z  c #768936",
"x  c #78953A",
"c  c #708B2B",
"v  c #74A53C",
"b  c #56884A",
"n  c #698948",
"m  c #768946",
"M  c #6C9649",
"N  c #799848",
"B  c #688856",
"V  c #788957",
"C  c #6C9457",
"Z  c #789857",
"A  c #7DA54C",
"S  c #7DA94B",
"D  c #77A649",
"F  c #7CA552",
"G  c #7CAA54",
"H  c #7CAA5C",
"J  c #75A757",
"K  c #7DB156",
"L  c #75AA4F",
"P  c #7A8769",
"I  c #7A9967",
"U  c #70906B",
"Y  c #7BA463",
"T  c #79A768",
"R  c #7AAC6F",
"E  c #8B9139",
"W  c #8FAA38",
"Q  c #ABBD3E",
"!  c #878A45",
"~  c #879946",
"^  c #93974B",
"/  c #888659",
"(  c #879758",
")  c #949051",
"_  c #85A244",
"`  c #83A44E",
"'  c #84AB4C",
"]  c #8BAB4C",
"[  c #88A747",
"{  c #96AB49",
"}  c #8CB449",
"|  c #9BB444",
" . c #94B44C",
".. c #9BB54C",
"X. c #94BB4C",
"o. c #9CBB4C",
"O. c #96BA45",
"+. c #83A453",
"@. c #8BA454",
"#. c #83AB53",
"$. c #8AAC53",
"%. c #83AC5B",
"&. c #89A95B",
"*. c #93AC5C",
"=. c #97AA56",
"-. c #8CB354",
";. c #8CB35B",
":. c #88B559",
">. c #94B454",
",. c #9BB554",
"<. c #95BA53",
"1. c #9CBA54",
"2. c #94B45B",
"3. c #9BB55A",
"4. c #94BA5B",
"5. c #9BBB5B",
"6. c #A6AE4A",
"7. c #A3B44C",
"8. c #ABB34D",
"9. c #A2BA4D",
"0. c #A7B949",
"q. c #B3B64B",
"w. c #A5AB59",
"e. c #A3B453",
"r. c #ABB453",
"t. c #A3BA53",
"y. c #ACBB54",
"u. c #A4B35B",
"i. c #ACB45B",
"p. c #A3BB5B",
"a. c #ACBC5B",
"s. c #B3B553",
"d. c #B3BB55",
"f. c #BABC55",
"g. c #BCB65B",
"h. c #B3BD5B",
"j. c #BBBC5B",
"k. c #B7B556",
"l. c #B2AE51",
"z. c #888868",
"x. c #869966",
"c. c #91906F",
"v. c #84AC63",
"b. c #88A768",
"n. c #97AC69",
"m. c #8BB564",
"M. c #8AB767",
"N. c #95B463",
"B. c #9CB462",
"V. c #93BC63",
"C. c #9CBC63",
"Z. c #96B36B",
"A. c #9CB46B",
"S. c #9CBB6C",
"D. c #92BC6A",
"F. c #89A675",
"G. c #99AB74",
"H. c #85B377",
"J. c #9AB874",
"K. c #A5AD63",
"L. c #A4BB63",
"P. c #ACBD63",
"I. c #A3BB6B",
"U. c #A8B668",
"Y. c #B2BC64",
"T. c #BCBB63",
"R. c #B5BA6B",
"E. c #A5A876",
"W. c #A5B877",
"Q. c #B7B977",
"!. c #BBAF65",
"~. c #A18E6F",
"^. c #C2BC5C",
"/. c #C2BC64",
"(. c #C2BA74",
"). c #9AC154",
"_. c #99C14E",
"`. c #B5C44A",
"'. c #ACC359",
"]. c #B4C25B",
"[. c #B8C459",
"{. c #ADC146",
"}. c #97C267",
"|. c #97C272",
" X c #AAC368",
".X c #B4C263",
"XX c #BBC363",
"oX c #B6C568",
"OX c #A9C477",
"+X c #B7C374",
"@X c #B6D16C",
"#X c #C6CB5D",
"$X c #C4C667",
"%X c #CDCB72",
"&X c #7CA983",
"*X c #8D9085",
"=X c #92B08D",
"-X c #A9B885",
";X c #B4B38E",
":X c #BBB6AC",
">X c #9EBCA0",
",X c #C5BB98",
"<X c #CCB98F",
"1X c #CAB7A7",
"2X c #A8C583",
"3X c #B8C686",
"4X c #BCD184",
"5X c #C8C589",
"6X c #D5C588",
"7X c #CAC29A",
"8X c #D8C999",
"9X c #D8D28F",
"0X c #E9D798",
"qX c #CCC7A6",
"wX c #D5CAA8",
"eX c #DBD5A8",
"rX c #C9C5B7",
"tX c #DCD6B7",
"yX c #D6C8B6",
"uX c #E6D5A8",
"iX c #E5DABB",
"pX c #F4DAB7",
"aX c #E6CEB4",
"sX c #EAE5AA",
"dX c #EBE3B9",
"fX c #F7E5B9",
"gX c #F6EBAA",
"hX c #D6D1CC",
"jX c #E5DAC7",
"kX c #E6DCD4",
"lX c #F3D7C5",
"zX c #EAE4C8",
"xX c #F6EAC8",
"cX c #FCF4C9",
"vX c #E8E4D5",
"bX c #F4E9D8",
"nX c #FFFDDB",
"mX c #FCF4D7",
"MX c #E9E9E8",
"NX c #F7EBE6",
"BX c #FFFEE4",
"VX c #FEF5EB",
"CX c #FFFDEC",
"ZX c #FAF4E6",
"AX c #FDF5F3",
"SX c #FFFDF3",
"DX c #FEF5FE",
"FX c #FEFCFD",
"GX c #F5F7FA",
"HX c #F6F2F6",
"JX c #D8DBEE",
/* pixels */
"N.Z.N.*.A.W.A.Z m / ( / V V / / c.h ! w.$Xf.`.`.Q [.[.@.V P k P I  XOXN m @.*.F +.N G %.K L L K G ' S A D A :.;.}.4.4.-.<.} X.X.",
"B.C.B.N.&.~ m m Q.OXW.G.( / c.G.E.) ) k.T.`.`.[.[.[.oXK.x.V P c.G.OX+XA.+.@.B.I.b.@.@.;.;.G %.:.:.;.$.#.' G :.m.}.:.4.4.).).t.).",
"C.~ x N ~ N =.4XI.W.3X3XQ.W.Q.3XQ.Q.U.U.oXoXh.i.Y.L. X+XG.z.x.G.OXR.R.R.R.U.U.5XU.=.=.3.B.B.2.C.C.S.2.%.F ` +.#.D A _ [ [ {  . .",
"'._ W 1. XL.L.OXOXR.W.+XW.OXW.U.+XR.+X+X+X+XU.*.@.&.J.3X2Xn.F.W.+Xw.w.P.Q.+XR.R.R.U.K.U.L.p.3.L.S.V.2.#.+.A A A ` ' [ [ [ [ { { ",
"'.t.t.'.oXoX'.p.oXL.@.@.*.U.I.P.L.P.P.U.I.W.n.x.x.x.n.2XOXJ.|. XL.e.=.3.Y.R.R.U.R.oXR..Xp.t.,.<.5.2.*.$.#.$.$.&. X XP.L.a.p.a.a.",
"9.t.7.| | 1.oX@X_ [ { [ _ @.B. X<. .$.@.b.b.F.x.F.b.b.H %.m.;. .] t. XV.e.p.L.U.U.Y. X Xp.,.1.} >.2.>.2.3.V.L.C.OX X XY..X]..XXX",
"{ 0.].'.7.| { { { ,.p.3.] _ _ [ ] _ A N ( H b.I b.T I Z F D D D ' -.).).;.4.3.2.2.>.<.1.<.X._._.1.,.<.2.L.L.}.L.2.,.,.e.8.8.r.l.",
"d.6.{ 6.t.r.t.p.p.3.,.>.2.4.5.4.' W D @.v.%.v.T I Y v.v.H D S K K v v K }.}.;.#.S [ A v } X._._.1.1.,.,.,.,... .p.u.r.7.7.6.6.6.",
"].h.a.r.e.7.t.t.t.3.3.3.5.4.5.C.-.4.}.;.#.F G H %.F M.M M M.L J K D K L D M ;.+.#.A $.<.v W )._.O.o.o.o.....1.o...t.t.8.6.6.q.q.",
".X.Xa.a.a.u.u.5.p.p.p.5.2.5.4.4.%.F A G D x D :.}.:.M J v.Y b.J L H J 2XZ &.Z Z Z.B.2.,.1.X.O.W 9.9.9.9.9.o.7.o...o.r.9.0.0.q.`.",
"a.h..X.X.XP.p.p.,.>.{ ] ] ] ] #.+.F A #.#.} -.).#.:.|.M.Z R U H.F.n.b.V -X-Xn.;XW.5X+XR.%Xt.W 0.| O.| |  .| o. .9.9.t.{.'.`.[.[.",
"e.t.a.'..X.X.X Xp.5.3.3.2.>.>.2.;.N.N.:.-.4.}. X X|.Z b.=XI =X*X-XG.> * ; . qXj E.;XQ.K.R.k.8.d.0.9.| o.o.'.t.1.1.o.9.t.'.'.'.`.",
"7.,.r.t.a.'.'..Xp.t.5.t.,.5.1.5.N.;.@.N N N &.Z.Z.& & - U >X8 X   o o : o . $ > qXE.<XR.R.Y.a.{ 7.7.....1.1.,.>. .>.1.1.t.t.t.1.",
"r.7.7.7.7.t.t.t. ...|  .......>.2.x l x m l Z G.& * * > 5 = < = 3 7 = X 0 % : o $ $ / K.R.R.$X.X].p.p.5.5.C.3.2.>.2.4.4.4.1.1.1.",
"9.0.9.| 7.| 9.9.9.9.o.9.9.t.t.'.x l c m N V B P - = @ @ @ @ # 6 5 @ hXJXGXGXGX= o ; x.b.OXC.1.1.oX XP.P. XI.S.C.%.;.V.;.2.;.4.V.",
"t.1.o.1.o.o.o.9. .o.o.O.X.O.o.X.c ~ N n B x.f = # = = rX1X: : # @ MXGXGXFXGXFX@ 8 X ; & Z n.A $.@._ N A +.&.F F Z F %.+.G #.;.;.",
"%.#.' S ' ' ' W ).).} _.W } _.c x M D n B &X2 O 3 % j j 8X8X1XyXzXtXCXSXCXFXSXFX7 7 X = & - I T %.K S J T T T T H H H G J J A G ",
"+.G G #.:.4.:._.)._.O.'._._.1.c l l l Z g 5 < 9 % j lX<X%X0XpXpXiXtXmXBXBXVXSXFX:XrXbX& * = X =XH K L J J T Y Y J J L G A S G H ",
"<.X. .X.o.o._.o.o.o.| 9._.....c N n n I 6 @ 1 O 0 j wXpX0X0XlXZXCXZXjXbXCXmXiX;XtXyXvXvX  7 @ =XM.' :.K %.v.%.H J G #.#.#.:.>.4.",
"o.9.o.o.o.| O.O.9...| { ....{ z V P a p O i # 7 j k <XpXpX%XuXZXSXSXkXbXmXwX7XqXiXBXZXSXFX@ 5 =XS.4.4.>.*.m.*.*.*.$.>.,.,.,.<.1.",
"O.O.O.o._.o.o.o.t.p.p.L.U.B.! n w g r 8 5 1 5 z.j <XlXxX0X6XsXBXCXFXjXkXzXqXaXxXnXnXCXSXMX5 @ 6 S.1.1.,.3.3.,.3.,.,.1.t.t.t.t.t.",
"O.X.o.X.o. . .>.$.*.J.A.J.F.n s p f 8 < t , k c.~.uXZXxXpX8XfXnXCXHXkXbXSXmXxXjXCXbXSXMXFX5 6 @ U.t.e...e.r.t.9.r.r.r.h.].].].d.",
"V.}.D.V.K L N Z C J F.T F.U p p g f : 5 2 2 *Xj 6X8XVXlXxX8X,XqXtXjXCXCXVXSXAXSXAXFXFXSXGX  5 o G.u.,.t.y.y.'.y.].a.h.].XX[.].d.",
"M.M.M.v.J C n M C U I B U U p s p k o < 1 3 o wX6X<XVXlXxXaXqXwXvXtXBXCXZXSXFXDXFXFXFXFXhX8 = * E.p.w.i.a.].[.[.].].]..X[.h.y.8.",
"Z Z x.Z Z I n.2XI B n s F.*XI s f w d 0 4 + $ 8X6XpXVXAXVXbXVXVXBXBXbXCXVXSXAXDXDXMXDXkXhX7 o X * U.U..X'.7.#X0.y.].oX.Xi.e.6.7.",
"a x.x.m m U.3X2XG.( Z ( W.x.Z V d h z.  < 0 h ~.<XuXVXAXAXbXSXFXSXCXmXZXCXCXbXkXbXFXVXAXFXHX@ 8 * n.W.=.oXo.W 0.y.t.w.p.Y.Y.w.W ",
"! (.Q.) ^ R.%XR.R.K.K.i.Q.^ E ) ) V z.> # 3 j h 8XpXVXSXVXvXGXFXFXAXSXbXCXzXaXqX,XyXCXSXFXFXFX@ o q E.3...| {.O.e.=.=.K.U.w.E c ",
"/.(.(./.!.!.!.k././.$X/.!.E E ) x.Z V z.$ + > h <XpXVXVXmXzXGXFXGXFXFXvXjXwX8X<XdXcXCXbXFXFXGXFX*   W.P.{ 9.'.W { t.Y.U.w.=.~ E ",
"/.l.^.$X/.l.l.k.l./.%Xh.k.E E E ! I m x.@ 0 . ~.aXpXVXmXxXuXvXMXFXFXVXvXwXwX8XuXwXuXbXSXMXFXFXFX: * Q.*.y.{.W Q | a.+X+XU.U.i.P.",
"g.^.d.s.8.8.6.r.6.j.$Xu.=.E z m a a B a * : + yXaXpXmXpXsX8XhXhXFXFXkXjXjXnXcXcXpX,XCXCXDXDXFXO # * E.w.7.{.Q Q d.a.Y.R.R.+XXX.X",
"].'.a...| 1.t.,.,.5.OXS.A.M l a p p B s =   3 yX1X1XpX0XgX0XnXSXCXBXzXjXmXBXCXBXBXyX:XFXFXZXFX: # > G.U.W Q #X{.[.r.w.i.R.R.Y.s.",
".. . .1.p.,.<.5.C.;.}.D.2Xn b b B U w a = < 0 j 1XaXpXaXgXsXnXCXCXCXCXzXCXBXBXVXSX1XhX1XZXSX: o : c.Q.P.'.`.{.`.8.e.w.w.U.Y..XY.",
"9.7.7.e.p.5.2.2.:.}.}.M.J b b C b B w n 7 + ~.h 1XyXDXDXsXsXcXBXFXFXbXmXjXnXnXBXzXNXSX:XSXvX= o * G.G.B.,.p...{ p.3.3.3.,.,.t.7.",
"7.7.7.,.3.=.>.] N S L L L b b b B Z z a 7 7 j ) 8XlXDXDXmXdXdXBXVXAXSXjXiXnXnXnXzXCXSXFXMXFX# o o W.n.U.*.C.>.<.4.4.5.3.,.,.o.o.",
"9.9.1.,.u.3.>.>.[ ] ' A M b w B C Z m a < 0 d <X0XaXGXDXnXsX;XnXBXBXxXeXcXfXdXwXBXCXVXAXFXFX< 7 = G.G.3XB.*.$.} ] >.3.5.1... .7.",
"o.o.1.1.5.5.L.p.1.p.3.2.G M n n Z n N P + 3 j pX0XpXVXZXnXsXwXBXmXnXqXxXdXqXzXcXyXSXSXGXFXFXFX@ X r x.Z.*.] $.] _ $.3.C.1.....| ",
"_.X.-.X.5.5.P. X,.r.u.u.=.! e / M m Z c.3 2 z.(.9XgXnXBXcXsXeXqXqX7XeXzXnXdXtXtXzXCXCXFXGXFXJXi * X H.H.&.` #.N N #.2.C.5.1.7.t.",
"_._.).).5.p..XoX6.i.s.i.w.! ! ) N Z V f 2 0 ~.) 9XgXxXcXuXcXzXjXtX;XBXiXCXCXCXCXxXhXCXSXFXFXGX1 8 & =XR b.%.#.M A &.2.2.3.,.t.t.",
"} _.). X X.X.XT.T.^.d.f.!.w.! ^ ~ V B 7 2 y j h ) (.cXnXdXeX% . . : hXSXFXAXNXBXzX3X3XBXZXMX5 @   q U C R R Y H H %.%.&.&.>.>...",
"v W 1. XoX.XT.Y.#Xf.s.f.$Xi.^ ! m a V # y , % ) ) (.gXdXpXxX. 0 % o % DXAXSXSXCXzXwXtX-XvX: # = & &XR T R v.J T Y Y I F +.@.` [ ",
"{.t.9.w.r.i.T./.^.^.f.q.#XY.z z n a * < t t + z.8X9X7XxXnXZXFXJX+ % 0 kXDXAXAXCXeXxXqXqXrX* 8 5 6 U =XR C R T T T T T b.v.&.N N ",
"7.7.w.r.s.g.^.^.f.q.f.6.i.t.c l z V * + t y 3 c.5X<XyXrXSXFXDXDXVX. . NXbXSXkXjXBXbXBXBXMX7 #   U &X&XT R H.R H.T T T Y Y m.}.OX",
"8.8.d.g.g./.g.g.k.^.[.7.7.{ z l N V X 8 t 4   k tX:XrXrXMXFXFXFXhXbXjXaXjXzXzXBXbXSXSXFXFX0 O 0 >X=XH.H.R J b b B U T v.b.m.N.3.",
"[.[.].$XT.j.^.g.f.j.f.7...>.~ x e ( P @ < 4 9 7 :XhX*X# 0 < O # # % zXxXQ.cXnXnXCXFXFXGXGX< < 5 b T v.H.T C M T C C I b.J.I.B.2.",
"].'.'.h.T.T.!.^.f.f.8.6.{ >.` l x m B P 5 # @ # *X< 9 < i O 9 : + : $ lXeXsXeXeXZXFXDXDXO 9 0 o B V N N @.*.I.4X( m n m @.U.P.P.",
"_.o.o.t.r.h.j.$X^.f.l.r.i.K.L.l c N P P @ 8 5 . 6   1 1 O i . # 0 + $ wX5X9X5XiXkXMXDXy 4 < X ;X3XU.^ E u.$X XK.K.( ! ! ^ i.i.h.",
"O.O.O...e.e.s.g.$X^.s.j.Y.R. Xz [ r V a P o 8 # @ 9 1 u 2 GXFX# y 2 4 wX<X) eX;XkX3 4 + 3 : ; ;X(.^.l.l.$X$XT.i.+XR.R.R.T.^.k.q.",
"_._.X.o.e.r.w.8.j.j.s..XY.P.oXx c W l x.Z B : = 5 1 1 t t 1 FX3 2 y + % o / wXqX$ 3 % 7 o ;X3Xi.l.$X$X#Xf.6.k.%XT.T.T.T.g.l.l.l.",
"_.'.0.8.7.7.6.6.0.'.[.].1.| t.L.c z z N m P P # < 9 1 t 1 DXDX< 2 u 1 1 i , 0 . $ ; $ ;X9X(.!.$Xg.f.[.j.f.j.f.j.T.^.^.g.^.^.l.^.",
"[.[.d.y.8.8.9.y.| 7.9.9.7...t.a.z E z ~ l a V = # O u y 1 1 , 4 5 O 1 u , 1 4 7 ; E./.$XE g.6Xl.h.h.].].h.h.j.f.^.^./.^.^.^.^.^.",
"[.f.q.8.8.r.y.h.r.7.......1...{ i.{ z E ! ( V o 5 5 , O 1 9 FXFXFX= @ 9 9 9 # o E.Q.w.$X$Xd.Y.w.i.y.j.d.d.s.k.d.j.j.f.f.^.^.^.^.",
"j.f.d.d.s.d.h.h.XXa.e.u.a.a.u.,.Y.^ e z m ( V >   = 5 5 @ # GX* ZX* X 5 5 <   > -XU.,.r..X7..Xw.9.9.8.y.8.9.8.r.d.j.j.j.k.^.^.l.",
"^.[.f.j.T.j.j.Y..X.Xa.P.P. X XoX+X%XQ.W.B.E.W.F.q   8 * - X q X - b.>X=X  q X - x.I.oX{ ,.{  X=...7.7.9.7...7.7.].].XXj.f.d.j.d.",
"f.k.f.j.j.h.h.a.a.P.P.3.3.B.B.S.=.=.U.U.B.I.W.J.Z.& -   & - & n.V.OX*.-X-   & G.W.{ } X.@X} <. .1...9.t.7...7.7.].'.d.y.q.s.y.8.",
"q.8.8.r.r.r.e.u.p.3.=.$.+.` ` ` N.@.@.3.B.I.N.Z.2XF.J.J.J.I.Z.P.p.L.3.n.I.W.J.S.@.<.'.X.<.<.4.<.,.o.1.o.1.o.1.o...t.t.9.e.9.7...",
"8.8.7.7.,.e.t.3.3.>.#.#.@.@.%.+.+.N &.;.$.' D ' v.OXn.S.I.3.P.'.a.| e.U.=.I.@.2. X<.X.<.).).-.5. .X.1.<... ...,...1...1.e...e.1.",
"t.t.t.t.t.1.,.4.@.#.#.A D F H H J K K L L L S S ` S.K.3.oX.Xd.XX[.8.9.e.u.,.p.L.3.p.1.} [ D ' 4.).<.X.4.<.<.<. .1.1.1.1.1.1.1.1.",
"....1.1.1.<.-.} ' D S G H J G J J J L L L L S S $.I.I.U.oXXXq.d.#X[.[.oXoXe.{ _ {  .<.] ' _ ' ' ;.<.4.).5.).1.<.4.<.<.5.).5.).4.",
"1.1.<.X.} ] _ S ' S G :.M.}.:.M.K K L L K L L S N $.=.=.i.j.k.f.'.i.y.a.a.{ [ ~ [ _ ' ' -.:.' D ' -.<.4.4.4.:.-.' ] 4.4.5.5.4.;.",
"4.<.<.4.} ' [ D ' S :.}.}.M.}.|.R H K K K _._.K ~ ` ~ ^ { w.h.j.p.e.{ { { { ,.,.` ' $.:.).}.:.#.' :.;.}.;.:.#.S A ' #.-.:.:.-.#.",
"' [ } -.<.<.2.4.} -.-.V.).:.:.V.v.%.%.:.V.).V.4.}.I.I.B.=.=.i.u.OXI.B.=.2.2.2.C.K M.m.}.}.}.:.:.:.V.V.D.M.;.' A S G #.S #.G ` S ",
"] } } >.4.5.5.}.L.}.L.C.:.;.2.B.S.Z.D.V.V.V.-.$.N.m.Z.A.n.B.U.K.n.n.Z.S.S.2.#.G }.}.M.M.K K K L :.V.D.V.;.+.F A %.+.G G F S F F ",
"2.5.3.2.,.3.3.,.>.3. .{ =.L.p.=.B.G.A.B.C.2.-.$.( M V Z Z N.I.b.m C J v.M.+.F D R M.R K J L L L G &.;.%.%.A F #.M.m.m.%.%.:.%.%.",
"1.3.2.,.3.3.3.p.z x E z _ u.=.~ ! ( =.B.L.L.I.}.S.F n n n ( m.Z Z C C Z F H H H J J J J J J L L F %.%.&.%.+.%.m.D.D.D.V.M.M.M.M."
};
