/* XPM */
static char *_0694_7cf9e8177cf5e1ac31ab8083e7f270d9b29ef7c5f0a4556740f146e21fd46d00[] = {
/* columns rows colors chars-per-pixel */
"64 64 256 2 ",
"   c #050903",
".  c #140A03",
"X  c #031303",
"o  c #0A1703",
"O  c #161805",
"+  c #050816",
"@  c #140A17",
"#  c #0B1617",
"$  c #171919",
"%  c #241B09",
"&  c #261B16",
"*  c #1A2707",
"=  c #192417",
"-  c #122B07",
";  c #292708",
":  c #272617",
">  c #263717",
",  c #2E3510",
"<  c #071825",
"1  c #171828",
"2  c #191935",
"3  c #0C122F",
"4  c #251B26",
"5  c #231E34",
"6  c #1A2627",
"7  c #1D2435",
"8  c #272826",
"9  c #342825",
"0  c #293827",
"q  c #262635",
"w  c #323232",
"e  c #463830",
"r  c #2E451E",
"t  c #527036",
"y  c #6B793B",
"u  c #282946",
"i  c #342947",
"p  c #161E43",
"a  c #1F4140",
"s  c #5D7B48",
"d  c #597053",
"f  c #69784F",
"g  c #667B68",
"h  c #797869",
"j  c #7A7476",
"k  c #556754",
"l  c #89775A",
"z  c #887B67",
"x  c #8D7B72",
"c  c #5B823D",
"v  c #6A873D",
"b  c #7A8A39",
"n  c #7A933A",
"m  c #708E33",
"M  c #7EA539",
"N  c #59834E",
"B  c #698A47",
"V  c #788847",
"C  c #6D9549",
"Z  c #79994A",
"A  c #678656",
"S  c #798856",
"D  c #6C9556",
"F  c #779856",
"G  c #7DA54C",
"H  c #7DAA4C",
"J  c #78A64A",
"K  c #75A555",
"L  c #7BA553",
"P  c #7CAA54",
"I  c #7CA55C",
"U  c #7CAB5C",
"Y  c #76A859",
"T  c #7EB15A",
"R  c #76AC4F",
"E  c #788A67",
"W  c #799764",
"Q  c #7A9774",
"!  c #6D896F",
"~  c #79A766",
"^  c #6EA371",
"/  c #78AB75",
"(  c #74A96B",
")  c #848D3A",
"_  c #88913D",
"`  c #8DAC39",
"'  c #B1B93F",
"]  c #B1C03F",
"[  c #878B49",
"{  c #879949",
"}  c #959A4A",
"|  c #858955",
" . c #879756",
".. c #979856",
"X. c #928F51",
"o. c #84A344",
"O. c #83A44C",
"+. c #89A44B",
"@. c #84AB4C",
"#. c #8BAB4C",
"$. c #89A744",
"%. c #9AAE4B",
"&. c #95AA48",
"*. c #8AB34B",
"=. c #94B54D",
"-. c #9BB54C",
";. c #9CBA4C",
":. c #98B847",
">. c #83A553",
",. c #84AB54",
"<. c #8BAC54",
"1. c #83AC5A",
"2. c #8BAC5C",
"3. c #88A457",
"4. c #96A957",
"5. c #8CB254",
"6. c #8BB35B",
"7. c #88B559",
"8. c #93B454",
"9. c #9BB553",
"0. c #95BA54",
"q. c #9CBA54",
"w. c #94B45B",
"e. c #9AB55A",
"r. c #94BA5B",
"t. c #9BBB5B",
"y. c #A6AE48",
"u. c #A3B44D",
"i. c #AAB34C",
"p. c #A2BA4D",
"a. c #A7B849",
"s. c #B5B84B",
"d. c #A7AD56",
"f. c #A3B453",
"g. c #ABB352",
"h. c #A3BA53",
"j. c #ABBB55",
"k. c #A3B35A",
"l. c #A3BB5A",
"z. c #ACBC5B",
"x. c #ABB55A",
"c. c #B3B554",
"v. c #B3BB55",
"b. c #B4B55C",
"n. c #B3BD5B",
"m. c #BBBC5B",
"M. c #BBB854",
"N. c #B2AE56",
"B. c #879A66",
"V. c #908E6F",
"C. c #A38E70",
"Z. c #83AC62",
"A. c #87A769",
"S. c #98AA67",
"D. c #8CB463",
"F. c #8BB767",
"G. c #94B463",
"H. c #94BB63",
"J. c #9CBC63",
"K. c #9CBC6C",
"L. c #98B669",
"P. c #87A777",
"I. c #98AB77",
"U. c #9AB875",
"Y. c #8AB478",
"T. c #A5AB66",
"R. c #A3BB63",
"E. c #ABBC62",
"W. c #A7B768",
"Q. c #B2BC64",
"!. c #B7B967",
"~. c #A6BA77",
"^. c #B5B875",
"/. c #AAAC77",
"(. c #C2BC5B",
"). c #C7BC6E",
"_. c #99C15A",
"`. c #9BC241",
"'. c #AAC259",
"]. c #B4C255",
"[. c #B4C25C",
"{. c #BAC35C",
"}. c #B9C754",
"|. c #AFC74D",
" X c #98C267",
".X c #98C170",
"XX c #ADC263",
"oX c #ADC36B",
"OX c #A5C269",
"+X c #B4C263",
"@X c #BBC363",
"#X c #B6C569",
"$X c #A9C577",
"%X c #B5C675",
"&X c #B7D378",
"*X c #C3C359",
"=X c #C4C567",
"-X c #C5C673",
";X c #6E8B86",
":X c #8D8B87",
">X c #92B189",
",X c #A9B985",
"<X c #B3B28C",
"1X c #B7B7AB",
"2X c #9CB4A6",
"3X c #D4BC9A",
"4X c #C9B892",
"5X c #C8BCA7",
"6X c #CEBAAA",
"7X c #ABC486",
"8X c #B5C686",
"9X c #B5CA90",
"0X c #A9C5A2",
"qX c #D6C89A",
"wX c #CFC991",
"eX c #CCC2A8",
"rX c #D7C8A7",
"tX c #D4C7B6",
"yX c #DBD4B7",
"uX c #D5D0AB",
"iX c #E9D4AB",
"pX c #E7D7BA",
"aX c #F3DAB7",
"sX c #E9D1AD",
"dX c #EBE3BA",
"fX c #F5EAB4",
"gX c #E0D99D",
"hX c #BDC1C0",
"jX c #D6CCC6",
"kX c #DBD5C3",
"lX c #DCD5D3",
"zX c #E8DCC6",
"xX c #EADAD0",
"cX c #EDE4CB",
"vX c #EBE4C4",
"bX c #F6E6CA",
"nX c #FDF9C9",
"mX c #E9E3D7",
"MX c #F8EAD9",
"NX c #FCF3DC",
"BX c #FFFCDD",
"VX c #FCF7D5",
"CX c #EEF0DA",
"ZX c #DEDCE5",
"AX c #E4DEE3",
"SX c #EAE7E8",
"DX c #F8ECE7",
"FX c #FDF4E3",
"GX c #FFFDE4",
"HX c #FFFCEC",
"JX c #FBF3EA",
"KX c #FFFDF4",
"LX c #F4FEFE",
"PX c #FEFDFD",
"IX c #FBF4F6",
"UX c #EDECF9",
/* pixels */
"G.L.S.2.L.~.T.F V |  .S S S | V.V.z | T.(.}.s.}.] }.'.} V | | S B.,X,XF B Z.A.F F I I T ~ K K T R ,.H G J H 7.7. Xr.r.0.=.*.:.:.",
"J.J.L.G.2.Z V V ~.8X^.I. .| V.I./.C...T.m.m.|.}.}.{.#XL. .S E B.U.$X8XL.3.3.L.~.D.>.>.6.7.T 7.7.7.6.,.,.O.P 7.D.7.r.r.0._._._._.",
"l.o.n _ { n G.8XW.$X8X8X,X/.^.8X<X!.T.Q.#X@Xn.E.oXW.~.8XI.S  .I.~.Q.oX#XE.k.E.%Xz.%.&.q.0.0.0._. XK.w.,.>.G ,.,.H G o.@.+.&.:.:.",
"'.$.o.q.oXE.R.oX%X~.W.^.%X%X~.T.^.%X#X#X#X#XW.4.B.B./.9X7XI.A.~.#Xu.y.x.@X@X{.*Xn.p.u.p.p.p.p.q.t.K.6.<.>.G G L ,.O.@.+.$.$.&.$.",
"XXq.f.[.#XoX'.l.oXR.4.+.4.W.W.W._.'.'.l.R.W.S.B.B.P.>X,X,X>X.XoXk.f.%.i.n.{.].c.v.].].].a.a.a.;.q.w.2.<.3.<.<.<.OXOXW.E.E.z.z.n.",
"a.p.a.:.:.h.{.&X$.+.+.$.O.+.t.OX:.:.` $.>.2.A.B.P.P.P./ A.L.7.0.&.l.'.l.9.f.j.j.j.[.[.[.j.-.:.-.8.w.8.w.t.J.J.J.OXoXoXE.Q.[.+X@X",
"%.a.[.'.u.-.%.&.%.9.l.e.#.o.o.$.` ` M M O.>.B.~ P.Q / W F K H H ,.F.H.H.w.J.w.w.8.e.q.9.0.0.0.0.9.9.9.e.J.R.OXR.e.e.f.f.g.i.g.i.",
"j.y.&.y.h.a.f.l.l.9.9.8.w.t.t.r.$.M M @.,.1.1.~ Q W P.A.~ P J H T K K ~ U..XD.3.>.O.G O.5.8.r.8.t.q.q.=.9.9.=.&.l.l.f.u.y.i.y.y.",
"[.n.x.f.f.f.f.l.f.e.e.e.e.t.t.H.J.7.r.0.J ,.F.U ~ Z.D I K J H 7.~ Y./ D A.F 1.2. .O.>.<.<.8.w.q.;.:.-.;.-.=.-.9.9.f.h.i.y.y.s.s.",
"+X+Xn.z.x.h.k.t.l.l.l.t.e.r.t.r.G L 7.,.J H C T H.I Y.F.C R  Xv Z.D Y.A.A.A.A.{ L.K.R.R.9.8.9.q.p.p.p.a.p.;.p.;.;.p.a.a.a.a.s.}.",
"z.n.+X+X+XXXz.l.8.8.8.<.<.#.#.,.L I 1.,.G r.,.&XK..XI F I U.C Z.A.B.,XI.I.T.^...!.!.#X!.j.a.i.i.:.` :.:.;.:.;.:.-.;.a.p.j.].}.}.",
"f.j.z.[.XX+XoXXXl.l.e.9.8.8.8.w.D.L.L.6.5.t.$X,.X > - Y.A./ A.P.* * ; ; O ; ^.^.^.^.!.@X{.m.i.` a.a.;.;.p.h.q.h.;.h.h.'.|.'.'.|.",
"u.u.f.h.j.'.XX[.h.h.q.l.f.e.q.t.J.J.OXJ.J.>.R.- r X > ! 2XP.X > * : o   , O , /.wX^.N.d.m.@Xv.u.j.;.=.9.9.t.9.8.=.8.q.q.h.'.q.;.",
"f.u.u.u.-.u.h.h.=.%.-.:.=.-.=.q.q.t.'.r.OXL.~.- o > # = = w LX= PX+ u w $ :   * I.X.f v ..E.oX#X[.'.l.l.l.t.e.w.8.w.r.r.r.e.q.9.",
"p.a.p.;.;.a.a.;.p.p.;._.h.`.h.|.`.`.=.&.R.7XS 0 # 8 < 7 1 + LXLXLX2 3 < + 7 = = h f s y B  .G.R.oXoXE.R.OXOXJ.H.<.6.w.D.w.6.r.H.",
"q.q.9.p.q.;.;.;.;.;.;.:.:.:.:.:.` '.9.S.S.,X* $ 6 1 2 3 1 7 3 q 3 p p p u < 6 # g g f A v c D F 3.O.Z { >.1.>.L F I 1.1.U ,.<.D.",
"1.1.P H @.@.@.M _._._.*.` `.`.`._.8.$XI.O : @ & 4 @ & @ $ 5 2 p LXLXp p 3 q + 6 g g N N t B t Y.U T K K ~ T Y ~ U U ~ U P L P U ",
"I 1.,.,.5.0._._._.=.=.0.'.`.` ` e.A.O : @ 4 4 lX5X:X% 9 w   u 3 LX2 3 p i 1 6 $ 7 k N ^ c D s N Z.T K K T Y Y U K K Y P K L U U ",
"w.8.=.0.;.;.:.`.h.&.&.;.`.:.a.q.X r = $ 4 & lX6XyXl uX1X@ 4 2 3 UXLX3 5 + @ 9 = # 6 N d c t B.s D.F.T H 1.,.L 1.J L ,.3.1.<.w.w.",
"h.q.;.;.;.:.:.=.h.-.-.9.&.9.h.4.* = # 1 IXAXDX6XwX4XuXdX. $ 2 7 q 1 5 5 @ w O . # 0 = W t v D B.6.r.8.5.8.8.<.8.5.w.w.w.e.w.e.t.",
":.:.;.`.`.;.p.;.h.l.e.W.W.$X4.r = 3 u UXIXIXJXaXnXwXwXiX, $ 2 1 1   1 q & O z % < q + g A W f  .+.=.q.9.q.t.9.9.9.9.-.l.l.h.l.k.",
"=.0.0.0.0.8.8.8.>.K.L.U.I.I.W X 7 + PXPXPXPXHXVXnXnXwXuXzX9 + 7 8 e   & z pX5X: 1 6 6 = S B | V n %.u.f.j.j.a.f.j.g.j.z.[.+X[.n.",
" X XH.F.T K Z F C A./ P.! Q ^ < < u UXPXUXDXNXBXnXqXfXdXcXjXZXPXDXIXIX6X3X4XrXl @ u < @ ; S S [ ) %.a.u.j.j.j.'.j.v.n.{.@X@X@Xn.",
"F.F.Y.Z.I D D B D D A Q ! ! ;X< 1 1 PXPXPXKXFXzXdXBXdXdXO $ SXKXKXPXIXtXiX4XiXx 4 2 q 1 O f | V ) u.z.h.j.[.].{.[.].[.].[.n.x.g.",
"D F W W S B.Y.7XD F A f :X2X6 # = = 1XZXjXjXDXHXHXGXBXyX: . : xXJXHXJXbXsX).3Xx @ i 5 @ : l ..| { %.#Xz.j.+Xj.j.'.].+Xn.x.f.u.d.",
"y ..A.V f /.9X%XI.{ | A.I.1X# 0 o ; zX1X5XjXjXKXHXIXHXKXO : : O ; zXzXbXsXqXC.l q @ 5 4 E | ..y ) +.E.k.9.z.f.f.j.f.u.x.Q.Q.4.} ",
"[ !.^.X.X.^.wX!.b.!.Q.^.4XO & O , CXGXHX1XjXmXDXPXDXKXFXFXO O % O cXbXFXaXqXl C.:X@ $ 9 B.f T.[ b { R.e.9.l.-.f.f.-.%.k.x.d.{ b ",
"(.).).).!.).b.N.=Xc.(.-X!.; . & HXGXCXCXHXxXmXKXIXKXmXKXkXeX5XCXdXbXxXNXNXbX3Xl :X4 $ z  .[ X. .[ +.E.k.e.z.f.h.%.f.E.E.k.} { { ",
"(.N.m.=X).N.N.s.(.s.*X-XT.; O & KXKXKXHXHXVXcXdXzXzXHXMX5XtXzX<XfXuXHXHXFX6XbXtXj @ = >X .{ [  .b Z k.f.f.l.u.j.%.z.#X#XE.x.W.!.",
"s.(.M.x.x.N.g.i.` *X=Xx./.O 8 < PXUXIXIXFXGXuXvXdXzXzXyXcXHXzXGXqXuXNXHXHXMXzXtXV.$ O V v V | X.b { 9.k.f.z.u.z.v.z.n.n.!.#X#X^.",
"|.}.j.9.4.e.e.9.|.:.t.U.I.2X< u u IXPXIXHXdXVXyXdXnXdXcXcXGXHXVXwXnXHXKXIXxX6X6Xx = * V { b V y b ) d.k.x.j.j.{.{.j.i.g.Q.@X!.T.",
"`.` =.9.R.J.t.t.=._. XU.2X>X< p 3 IXPXPXNXGXdXnXnXnXdXvXGXFXHXGXdXgXGXHXIXxX6XC.z * * B V b v | b ) 4.x.j.'.p.{.u.i.%.y.x.Q.!.#X",
"h.9.9.q.l.l.q.=.0.0.K.Y./ ! a < + UXIXjXJXHXzXBXBXGXcXkXGXLXIXGXnXgXbXBXVXsX3Xl x 8 O f B B B v _ m f.%.l.e.9.8.k.q.q.9.=.q.q.f.",
"9.9.9.9.9.=.&.$.n o.3.Z.Q >XX # w SXPXjX1XpXNXGXBXGXMXCXHXHXIXHXnXgXdXaXiX3X3XC.9 @ # B.S v B V n m e.8.e.w.r.8.r.0.e.0.q.;.;.;.",
"q.t.q.e.q.0.=.=.$.#.L.A.! 0 = 6 IXPXKXMXyXtXMXVXBXGXGXcXlXHXKXCXnXdXdXpXsX3XsX6X& $ o W V C F V V m R.e.t.8.<.#.#.8.e.q.q.;.=.;.",
"_.0.q.r.q.q.'.l.'.4.4.I.I.  = 8 PXKXKXHXHX6XzXBXVXVXCXyXzXHXLXyXuXyXcXmXNXaXsX5X: 8 o E B C Z B n n R.w.w.O.<.O.O.#.0.t.q.=.-.=.",
"0.*._.*.0.q.'.'.u.z...S./.9 O SXPXKXDXFXHXvXrX<XpXeXeXdXGXHXHXFXyXzXDXIXHXaX3XC.  : = E B v B v v v H.2.6.>.G G J >.r.t.q.q.q.h.",
"_._._._._.l.'.#X&.@X!.W.T.O : KXKXKXKXKXFXpXbXyX3XrXyXbXGXHXKXKXDXMXIXIXJXzX3Xx 8 = * d V B s s c c D.U Z.I U I L ,.w.w.9.9.q.l.",
"*.0._.OX'.+X+X+X!.x.Q.).<X, O O IXPXJXKXJXxXyX4X3XBXGXMXFXHXKXKXHXMXIXIXFXzXuXV.j 6 # > A D s A N c ( ~ / ~ T Y I 1.3.,.<.8.8.8.",
"` =.q.[.#X+X[.{.*Xc.E.^.^.,XO > 8 SXLXKXKXHXzXcXzXGXHXNXHXKXJXKXGXxXJXKXFXzXrXl V.6 # = s f d ! N N / ( / ~ ( ~ ~ K K L L @.>.+.",
"k.f.d.y.x.c.m.=XM.=Xn.T.%X,X* o = < ZXSXPXKXHXFXJXFXHXFXmXKXIXKXBXpXHXHXMXaX3XeX: 1 # = d g g d N ^ ^ ^ ^ / ( ^ ~ ~ ~ U U 1.Z Z ",
"g.i.g.c.c.b.(.M.y.{.z.z.G.K.B > 8 1 ZXPXPXKXJXHXHXFXFXHXKXAXlXtXwXbXpXrXVXrXrXeX$ 1 6 < = g ! g ! ^ / ^ / Y./ / ( ( ~ I I D.K.$X",
"g.x.b.!.!.M.m.M.s.*Xv.'.} S.7X- = 2 PXLXPXKXHXHXNXHXKXKXJXlXSXeXwXwXsXbXnX3XsXx j q 6 < o E ! h ! / 7X>X/ ^ N N A D I A.A.D.F.L.",
"n.m.@X(.(.(.(.M.(.}.v.j.<.w.$XX   q PXPXDXKXJXxXzXJXHXMXxXMXPXNXgXwXaXnXnXiXl x :X6 < # 9 k g k t ^ >XY.^ D D K D D F F.K.K.L.G.",
"'.[.n.m.m.m.(.(.(.' ' y.l.R.J., = q PXPXJXJXHXyXzXrXzXzXcXFXHXGXfX).iXbXaX3Xx l q 2 1 : k t f f t B V V F S.U.9X .C v V 3.W.E.E.",
"q.q.f.k.b.b.M.(.(.(.s.y.k.E.W.B.= 6 hXKXKXFXbXtX3X5XbXbXcXHXFXBXfX).aXbX3Xl C.& @ 5 + k f f f ..S.4.X.{ T.~.~.^.L.} b ) } k.E.E.",
"0.:.=.-.f.i.M.M.*X*Xs.s.g.Q.E.,X  8 8 kXkXFX<XuXqXnXBXVXzXBXGXVXgXfXiX3XaXl e . q 2 8 k f [ f ..b.m.b.Q.).-X!.Q.%X!.!.n.!.m.b.N.",
";.0.q.u.f.i.i.i.s.*Xi.=Xc.!.Q.S.- = O = CX<XzXNXGXGXBXNXvXpXVXpXaXqXqX3X3Xx % & @ 4 :Xh y } y.) N.=X).!.!.N.N.=X!.m.m.m.M.N.s.N.",
"'.'.j.a.i.u.y.y.a.].{.'.a.-.f.W.I.* = X : = $ PXPXPXPXKXNXNXsX5X5XjXjXh V.9 % % ; z C.l X.} _ } !.m.m.m.m.m.m.m.m.m.(.m.M.(.(.N.",
"{.[.v.j.i.p.a.j.u.-.f.a.;.-.h.E.I.,X,X* * -   = PXZXPXPXPXtX; ; : $ 1XlX@ O . ; V.B.| [ N._ _ N.b.{.[.{.m.n.n.m.(.(.(.(.(.(.(.(.",
"{.m.c.a.i.g.j.n.j.a.%.-.-.h.-.-.Q.S.k.B.,X* > = LXPXLXSXZX: & $ O = : - O * ; E V.V [ ..X.) { m.z.j.n.v.j.c.M.M.m.m.m.m.(.(.(.(.",
"m.n.M.s.c.c.n.n.[.z.l.k.z.l.k.9.&.f.Q.#X4.  , o o 7 # 1 1 : o > * o * O O , X <XS y [ [ ) ) %.f.f.u.j.a.i.f.a.g.n.m.M.m.(.N.(.(.",
"(.}.m.m.m.{.m.+X+X!.E.E.XXoXoXoXz.=Xp.$.W.W./.> > X w # = = - X , A./.- * * 8XS.S.{ V Z n e.XX$.-.u.u.p.-.u.u.u.[.[.{.{.M.m.v.M.",
"M.M.m.n.m.n.z.b.z.E.l.k.e.e.J.k.h.l.'.XXw.L.U.A.>X= X o o 9XB.,XA.~.S.W. .L.2.$X~.<.2.e.5.t. X=.-.-.h.p.u.-.-.a.'.n.j.j.c.j.g.j.",
"y.i.i.g.g.g.f.l.l.e.8.<.>.O.>.{ { { O.G.G.$XU.~.U.Y.A.8X$X>.&Xe.oXe.4.&XR.3.&X+.<.w.OXoXr.5.r.0.q.;.;.;.;.p.q.h.p.f.u.h.u.u.-.u.",
"i.g.i.a.-.f.k.e.e.w.<.>.>.1.>.1.A.A.3.3.1.1.Z 1.U.L.~.<.0.h.a.}.+X4.f.4.e.E.+.R.t.t.r.*.5.r. X0.=.0.q.0.=.=.=.-.9.;.q.h.q.f.q.-.",
"a.h.h.h.h.q.8.0.<.>.,.J J P U U ( ~ ~ ~ P L P P { J.k.9.}.|.] }.[.j.f.f.f.9.q.l.e._.J.8.o.H #.r.r.0.0.0.q.0.0.0.q._.0.q.q.q.q.q.",
"9.=.q.q.q.0.5.=.o.H P R U P P U ( ( Y Y R P H H 6.OXR.x.{.}.] s.@X#X#X#X+Xh.&.$.&.&.8.#.@.o.O.@.0.0.0._._.0.0.0.8.0.0.t._.t.t.0.",
"q.0.0.0.5.*.$.J @.H H 7. XT 7.F.T T R R R R R J Z <.4.&.x.m.c.M.[.x.E.Q.l.9.$._ $.$.$.<.5.w.>.o.,.5.r.r.r.r.5.5.#.*.8.r.r.t.r.0.",
"_.0.0.=.*.@.o.H ,.H 7. X X XF..X7.T R R *.7._.*.Z >. .{ 4.k.Q.Q.R.9.&.+.%.&.9.0.O.@.#.r.J.H.6.7.,.5.7.r.r.7.,.>.G @.,.7.6.7.5.,.",
"$.#.#.*.8.r.r.t.5.5.5.H. X7.5.H.6.<.#.*._._._.r.OX~.U.L.S.T.T.W.$XK.G.w.w.w.w.H.7.5.r.H.H.H.D.6.7.H. XH.D.7.O.J P G ,.P ,.H L H ",
"#.*.*.8.0.t.t. X_.J.R.t.7.6.w.e.J.t.r.r._.0.5.<.D.D.U.I.A.~.~.I.S.D.L.K.K.D.,.G r.H.D.7.1.1.1.1.7.D.H.H.6.>.L J 1.,.P P P G L L ",
"e.r.e.8.e.8.9.9.e.e.9.%.4.R.l.4.S.T.T.J.0.8.2.<.>.B C F F F.U.Z.C D Y Z.F.1.L J 7.T T T R U Y K 1.1.D.1.1.L L P D.D.F.1.1.7.1.7.",
"q.e.e.e.e.e.e.l.b n n m } k.%.{ [  .4.T.R.R.R.R..XL B B B I D.D C D C D Y Y P T R R J R K R Y K L 1.1.1.1.P 1.F.K.H.H.F.D.F.F.D."
};
