/* XPM */
static char *a5658e74c0444385900a674a1890ff3ez9fhHG4H2YmUVxbF[] = {
/* columns rows colors chars-per-pixel */
"64 64 255 2 ",
"   c #050804",
".  c #0C1503",
"X  c #091607",
"o  c #151808",
"O  c #080A16",
"+  c #091616",
"@  c #161919",
"#  c #160C10",
"$  c #231D16",
"%  c #201B0C",
"&  c #192508",
"*  c #192518",
"=  c #122A08",
"-  c #242807",
";  c #252819",
":  c #2A3214",
">  c #0B0C26",
",  c #181727",
"<  c #130C35",
"1  c #1B1A39",
"2  c #101229",
"3  c #241B26",
"4  c #251C35",
"5  c #1B2526",
"6  c #1B2730",
"7  c #262729",
"8  c #263125",
"9  c #252837",
"0  c #293336",
"q  c #3A3432",
"w  c #322D2A",
"e  c #5C7834",
"r  c #69753B",
"t  c #1B1942",
"y  c #282648",
"u  c #343147",
"i  c #251D47",
"p  c #4D5A4E",
"a  c #597745",
"s  c #5A7958",
"d  c #516956",
"f  c #667856",
"g  c #70764E",
"h  c #597262",
"j  c #677969",
"k  c #70756E",
"l  c #2E4622",
"z  c #867958",
"x  c #867B75",
"c  c #85796C",
"v  c #788A39",
"b  c #738C32",
"n  c #78A63B",
"m  c #768A48",
"M  c #7A9848",
"N  c #678B58",
"B  c #798958",
"V  c #799958",
"C  c #6A904A",
"Z  c #7DA54D",
"A  c #7CA949",
"S  c #7CA553",
"D  c #7DAA52",
"F  c #7BA45A",
"G  c #7CAA5C",
"H  c #75A658",
"J  c #7EB057",
"K  c #76AB4A",
"L  c #769A65",
"P  c #758C70",
"I  c #7CA464",
"U  c #7BA56C",
"Y  c #79A768",
"T  c #79A673",
"R  c #7EB263",
"E  c #5D8552",
"W  c #838E3C",
"Q  c #98B63E",
"!  c #8DA839",
"~  c #A6B73E",
"^  c #95C23C",
"/  c #868A46",
"(  c #89974B",
")  c #95974A",
"_  c #868B56",
"`  c #879856",
"'  c #959A55",
"]  c #958C4B",
"[  c #83A54C",
"{  c #83AB4C",
"}  c #8BAB4C",
"|  c #88A547",
" . c #96AB49",
".. c #8AB548",
"X. c #9BB445",
"o. c #9BBB44",
"O. c #94B54C",
"+. c #9BB54C",
"@. c #94BA4D",
"#. c #9BBA4C",
"$. c #94BB44",
"%. c #83A554",
"&. c #84AB54",
"*. c #8AAC53",
"=. c #83A45B",
"-. c #84AB5B",
";. c #8AAC5B",
":. c #8CA457",
">. c #94AB53",
",. c #93AD5C",
"<. c #99AA55",
"1. c #8CB354",
"2. c #8CB35B",
"3. c #8AB859",
"4. c #94B454",
"5. c #9BB553",
"6. c #94BA53",
"7. c #9CBA53",
"8. c #93B45C",
"9. c #9BB65B",
"0. c #94BA5B",
"q. c #9BBB5B",
"w. c #A5AC4A",
"e. c #A3B444",
"r. c #A3B44C",
"t. c #A9B44C",
"y. c #A2BA4C",
"u. c #A8B946",
"i. c #B3B94C",
"p. c #A6AD59",
"a. c #A3B453",
"s. c #ABB453",
"d. c #A3BB53",
"f. c #ABBB54",
"g. c #A4B45A",
"h. c #ABB55B",
"j. c #A3BA5B",
"k. c #ACBB5B",
"l. c #B4BB55",
"z. c #B4B55B",
"x. c #B3BD5B",
"c. c #BBBC5B",
"v. c #BBB655",
"b. c #B4AD54",
"n. c #889866",
"m. c #899974",
"M. c #908C70",
"N. c #A3916B",
"B. c #83AB63",
"V. c #87A867",
"C. c #97AC67",
"Z. c #8CB563",
"A. c #88B466",
"S. c #94B463",
"D. c #9BB463",
"F. c #94BB63",
"G. c #9BBC64",
"H. c #97BA6A",
"J. c #8AA976",
"K. c #98AA74",
"L. c #98B873",
"P. c #89B476",
"I. c #A6AA66",
"U. c #A3BC62",
"Y. c #ABBC62",
"T. c #A7B768",
"R. c #B4BD63",
"E. c #BABC63",
"W. c #B7B968",
"Q. c #A7AA73",
"!. c #A7B876",
"~. c #B6B977",
"^. c #A49D4D",
"/. c #C2BB5A",
"(. c #C7B877",
"). c #C4B96B",
"_. c #96C249",
"`. c #98C257",
"'. c #A5C44C",
"]. c #ACC25D",
"[. c #A8C357",
"{. c #B4C35B",
"}. c #B8C358",
"|. c #B1C146",
" X c #9BC364",
".X c #97C270",
"XX c #ADC263",
"oX c #A8C46A",
"OX c #B4C264",
"+X c #BAC364",
"@X c #B5C26B",
"#X c #BBC36A",
"$X c #B7CA66",
"%X c #ABC376",
"&X c #B7C475",
"*X c #BAD274",
"=X c #C2C36A",
"-X c #C7C775",
";X c #D5C967",
":X c #8A7F8F",
">X c #768983",
",X c #9AB489",
"<X c #A6B887",
"1X c #B2B392",
"2X c #B8B8A7",
"3X c #8F8181",
"4X c #CABB99",
"5X c #D1BB8E",
"6X c #C7B8A6",
"7X c #C7B9AF",
"8X c #B6C586",
"9X c #B5C88F",
"0X c #C9C59B",
"qX c #D8C599",
"wX c #D2C78B",
"eX c #E5CC94",
"rX c #CBC6A9",
"tX c #D8C9A8",
"yX c #DBD4A9",
"uX c #CCC5B7",
"iX c #D5CAB6",
"pX c #DBD6B9",
"aX c #CAD1B0",
"sX c #E6D7AA",
"dX c #E7DAB9",
"fX c #EDD6AE",
"gX c #E9E5B9",
"hX c #F8E6B8",
"jX c #FDE1AF",
"kX c #D7C9C3",
"lX c #DAD5C7",
"zX c #CFCFCA",
"xX c #E7DCC8",
"cX c #ECDACF",
"vX c #EBE5C7",
"bX c #F6E9C7",
"nX c #FDF7CC",
"mX c #EBE4D6",
"MX c #F5ECD6",
"NX c #FFFED4",
"BX c #FEFCDD",
"VX c #FBF5D9",
"CX c #EFF2D2",
"ZX c #E9E8E5",
"AX c #F7ECE8",
"SX c #FCF4E4",
"DX c #FFFDE4",
"FX c #FCF3EB",
"GX c #FFFEEC",
"HX c #F3F2E9",
"JX c #FFFDF4",
"KX c #FEFDFD",
"LX c #F6F7FA",
"PX c #EEEAF8",
"IX c #DEE1D1",
/* pixels */
"S.H.S.,.H.%XC.M m B _ _ B B _ _ M.z _ I.#XR.x.+Xs.@X~.' B P P P n.!.!.` m ` C.` ` V =.B.-.H S G &.{ D Z Z D ;.3.F.0.0.6.@.@.O.O.",
"D.D.D.S.:.M m m !.8X<XK.` _ n.Q.Q.' ' I.W.R.x.+X+X#X%XQ.n.B P m.C.&X&XI.` :.C.!.C.:.:.S.Z.&.&.2.2.2.1.&.Z &.;.3.3.3.0.0.7.7.`.[.",
"G.| v M ( M ,.8XT.%X8X8X!.!.~.8X~.W.I.R.#X@Xx.k.Y.j.Y.&XC.B V C.@XR.R.#XR.h.W.-XT.p.<.5.g.9.9.q.G.G.8.&.%.Z &.&.Z Z [ { }  .O.O.",
"j.| | 9.oXU.U.oX%X!.T.!.%X%X!.T.@X@X@X@X@X@Xj.>.} :.U.*X%X,.,.T.+Xt.w.z.=XE.E.=XE.h.s.h.f.a.a.d.G.D.8.*.[ Z Z Z [ [ [ | | |  . .",
"].d.d.].$X$Xk.j.oXj.>.:.,.D.T.T.k.k.k.j.U.T.S.` ` %.S.oXoXoX X].d.e.w.t.x.+XE.z.E.E.E.R.k.a.r.a.9.8.2.*.*.*.*.*.oXU.U.U.Y.k.k.k.",
"y.f.d.X. .a.$X*X| } } | | } 9.oX5.4.>.%.:.;.V.` V.B.=.%.*.8.6.O. .d.].d.a.g.k.h.Y.R.@XOXk.a.5.9.8.8.4.8.9.G.G.G.oXoXXXOXOXOXOX+X",
" .y.{.[.y.X. . . .9.j.9.} ( | [ ;.%.M V =.B.V.V.V.V.I V V S D D { 3.0.0.8.S.D.8.8.8.D.8.0.0.0.0.9.5.4.9.q.U.U.U.9.5.a.a.a.t.t.t.",
"f.w. .r.d.d.d.d.j.9.5.4.0.9.q.G.-.F F B.V.V.V.I I I R B.R F F G J K K J H..XZ.*.%.%.[ [ *.8.0.4.q.7.5.5.5.5.5.O.j.a.a.t.e.t.t.t.",
"{.x.f.a.a.a.a.j.9.9.9.9.9.q.q.G.Z.L.A.L.F G S B.G G H B.B.H Y A.D 3.K J -.M 2.Z *.M b *.[  X0.O.X.X.+.+.+.+.5.7.5.d.f.t.e.e.i.l.",
"OXR.x.k.k.j.g.9.j.j.q.9.9.0.0.F.%.G M -.Z 3.{ 3. X&.D B.V P.V.V D n 2.{ [ 8.M *.>.oX$X*X! !  .[.y.y.y.y.#.#.#.#.+.y.y.t.t.u.i.}.",
"k.x.OXOXOXXXY.j.5.4.>.} } } } { Z &.{ 1.n n ..oX..6. X&.C B.V V.8.[ 9.>.<.U.<.g.k.k.f.{.f.}.e.e.o.X.X.X.X.X.X.X.#.y.d.f.f.}.}.}.",
"a.s.k.{.OXOXXXXXj.j.q.5.4.4.4.4.0.6.6.[.[.`.@...`. XF.%.V.V.V.C.:.U.T.&X&XW.W.p.#X=X+X}.}.i.~ ~ e.y.+.#.y.d.d.d.7.7.d.d.[.[.[.[.",
"r.r.a.d.k.].].].d.d.j.7.7.7.7.7.7.`.`.O.} 1.G.oXS.V.C.K.9XL <XK.<XK.!.Q.Q.~.~.-XW.W.h.w.c.l.t.u.y.+.+.+.7.7.5.4.4.4.4.7.d.d.d.#.",
"y.y.r.r.r.y.d.d.X.X.X.+.O.+.+.@...#.].4.D.L.!.J.<X= : :   & 9XJ.,X2Xo - - o 0X1X~.Q.' ) *X*XOX].XXk.j.j.j.q.0.4.4.8.0.0.9.9.5.5.",
"y.y.y.X.r.+.y.y.y.y.y.y.y.d.d.[.#.7.9.:.9X1XP 8 * O @ + * 8   ; * + 5 @ @ ; . & n.m.m.V !.S.S.%X&XXXY.U.oXoXG.F.*.2.8.8.8.8.0.q.",
"7.7.7.7.7.7.7.7.+.#.o.o.X.+.9.9.D.!.n.: . X 0 , 1 6 KXKX@ 7 o * 2 9 + 5 5 X 8 + * * X * L J.V.=.%.( M M =.-.=.F V G -.-.D &.1.2.",
"V.=.%.[ { *.=.%.0.7.[.Q X.9.C.<X& . 8 * O 9 9 , 9 PXKXLXKXHXq , 2 1 LXLXGX- . ; , > 9 , 0 X J.Y R H R C Y I U L T T U Y H Z A A ",
"I G D { 3.0.H.H.oX| ! '.7.T.<X. * @ + 9 9 > O @ LXKXKXJXJXKXZXPXKXKXLXJXDXVX- ; , y < > , 8 P U Y R H .XH R V P.L Y Y I F S A { ",
"3.3...$.$.@.0.0.O.#.'.'.X.,.m.: . 8 zXKXKXKXZXLXKXHXJXFXHXKXKXLXLXLXKXJXDXDXGX2XKXPXKX1 6 + = <XF.{ n n { A D Z S =.B.B.-.2.1.4.",
"`._._.^ ^ $.@.O...[.Q ! XXL.= * ; IXJXHXLXKXKXzXZXFXGXGXGXSXuXkXKXLXKXZXGXDX2XlXFXKXKXLX@ . 8 J.oX_._.b _.o.[.! 1.8.8.S.D.9.9.9.",
"$.$.^ ^ ^ $.6.7.7.XX#.oXT.<XX . mXrXGXJXHXKXFXJXGXGXMXBXDXiX1XJXJXKXIXJXJXxX6XuXJXAXKXHXHX; o - :.q.O.[.! '.o.'.+.5.9.g.U.U.j.g.",
"@.$.$.$.$.$.O.4.G.,.:.C.  & 8 * 2XVXVXDXJXJXJXSXGXvXvXvXiXiXiXGXGXvXGXGXlX7XuXcXSXSXGXGXlX; o o 1X!.C.oXk.r.! ! y.d.k.Y.R.OXR.R.",
"D.G.q.4.} [ M M m ` <X<X8 + 2 , lX1XCXGXMXJXGXGXpXpXvXpXvXBXVXxXpXBXpXxXmXcXlXSXDXBXDXMXxXmX$ @ @ . & - ( T.wXOXx.x.R.@X#X#X@XR.",
"L.L.C.C.` M m m B n.P X , 2 1 KXGXrXrXxXMXGXJXGXvXrXrX1XDXDXGXDXNXgXpXmXFXKXJXSXdXBXNXbXrX7XkX3 2 u @ . : Q.&Xg.OXOXR.R.R.R.h.h.",
"B L n.` V ` K.<XB j m.5 , LXKXLXSXVXpX7XJXJXJXJXGXDXiXrXGXVXGXDXNXgXtXVXJXFXFXGXDXtXhXdX6XxX7X4 1 1 4 @ : <XT.@Xk.OX@XR.h.p.g.p.",
"g n.m.m m K.9X8X9Xf . + 9 KXLXKXGXDXSXuXJXAXJXJXJXGXiXrXGXGXJXVXNXyXvXSXJXKXJXmXDXbXsXbXvX7X# 3 i 1 , * o ' @Xa.k.a.a.j.R.R.p.) ",
"` !.!.` ( %X*XT.!.9X: * @ KXKXJXGXDXGXkXKXFXKXJXJXSXlXrXmXSXJXxXgXsXpXGXJXKXmXJXdXbXtXrXiXk 7 , O , * m.!.T.k.! y.X. .g.T.I.( v ",
"T.&X8X%XT.Y.k.k.R.8X. ; ; JXGXCXDXMXMXkXJXKXKXFXFXAXMXxXkXIXAXIXgXyXVXiXSXFX; % % MXpX  % w # 7 w * & K.U. .X.}.Q t.k.k.g.:.( ( ",
"OXk.R.*XOXy.e.u.k.&X& ;   IXDXBXVXVXmXcXZXFXFXZXJXSXGXGXmXmXFXFXBXVXpXlXSX. q o ; kX; q w   , 7 X ; . !.<.XX! Q Q f.$XOXY.g.Y.W.",
"{.{.k.k.y.e.~ e.a.T.aX  7 8 lXCXvXDXSXGXmXmXmXJXJXSXGXGXSXJXJXJXDXDXGX1XlX;   @ ZXzX+ ,   7 0 O 0 ZXGX& T.g.OX{.{.f.z.x.OX+X#X@X",
"}.}.k.r.w.u.~ ~ OXQ.,Xu ,   ; pXdXBXDXGXFXlXlXJXGXDXGXGXMXJXGXJXGXGXDXrXlX% o HXIXPX, , 9 , , , 2 KX7 o K.` W.@X+Xf.t.a.z.}.l.s.",
"u.X. .a.d.y.o.y.>.!.1XO 7 , @ iXvXNXBXVXDXiXrXDXVXDXDXBXpXGXHXJXGXVXDXrXpX. : zXKXLX9 , + LXLXKXy PXKX7 o 0X!.Y.g.a.w.r.s.x.}.}.",
"t.t.r.5.7.7.6.3.H.L.,X& o 7 $ kXdXhXsXhXhXwXyXnXhXNXNXtXrXVXGXDXdXrX0XgXgXdXvXGXKXLX, 9 + LX+ LXt < 9 @ & J.!.8.q.5.5.5.5.a.g.g.",
"y.r.X.O.@.1.1.J G V B <X. ; # 6XfXjX5X5XeXqXsXgXnXgXyXsXdXxXxXxXCXgXdXgXdXsXvXDXGXKX@ O 0 + , 9 t 1 , + . ,X.X&.0.0.0.9.9.9.a.g.",
"a.a.+.#.7.6.1.3..XV.n.K.o   AXlXqXhXhXfXdXyXbXGXDXDXVXVXbXdXdXvXDXDXBXVXbXhXbXDXGXKX3 9 > 1 y > y 1 , 8 = K.=.%.1.4.9.q.9.5.5.a.",
"d.d.5.#.7.7.`. X%.!.!.. - w 7X7X5XwXeXhXDXMXmXSXFXJXGXDXxXdXhXnXGXJXGXBXNXbXhXhX6X1XkX3 9 < 1 t 2 , + o = V -.-.Z *.8.q.9.+.+.r.",
"9.9.5.+.+.d.[.XXXXI.Q.- - o 2XM.sXqXtXfXDXFXSXJXJXFXSXDXnXfXjXNXFXFXSXBXnXjXeXwXdXtXx 3 2 1 < t , 7 8   = V L.V M *.8.q.9.5.7.d.",
"q.q.j.d.d.f.{.{.@X) ~.- . o w c 4X5X4XN.4X6XpXcXxXcXbXdXtX5X5XqXbXcXcXhXjXeXeXwX(.tX6X3X3XO y 1 5 X * l N V.V.V F -.Z.S.8.5.7.d.",
"8.q.U.].{.}.}.}.v.-XI.1X- & o o M.M.N.z 4XtXtX4XsXhXdXyXqXtXsXtXtXtXsXfXeX(.(.eXfX4XiXx x 3 6 + * X = N ,XY L P.Y I B.-.;.1.O.O.",
"[ *.j.].{.}.v./.v.=X~.Q.1Xo & ; o ; c M.iX4X4XyXqX' g N.4XtX4X6X4XqXsXsX(.] N.5X4X6XxXM.$ @ @ * T ,XT J.U U Y U U Y I H S D { { ",
"G.q.9.r.t.i././.v.b.(.wXQ.m.m.o $ @ q k c M.4XyXz N.z 6XpXrXk N.z 0XtXtXz M.z M.x x 3 $ # * * f s L J.T U Y U T T T T Y R D A n ",
"9.9.9.a.i.v././.;X/.-XI._ g f * @ @   q M.c w o M.k ; % o $ ; k M.M.g M.c c q # 9 , 3 , 5 + = f N N L U U U U T T T U Y G A. X X",
"q.j.k.x.l.v.v.v.v.b.E./ v m B f ; @ 7 @ O 4 , , 4 4 , , 7 @ o ; o . o 7 7 3 , 4 < i < 2 6 0 P P E N L J.J.L N N N L L Y B.Z.3.3.",
"].XXOX{.}.c.v.v./.z.-XW m / m n.m.. + 7 7 1 > y < 2 1 , 7 * * X 5 * * @ 9 2 1 1 y t y 1 O d p s a a V V.V.V N V N V L V.L.H.0.4.",
"].].{.x.x.c.c.c.).E.W.v v v b m g P j o + 0 O 2 2 y k j j h P j h j >Xd p 5 9 , 2 , , k j d j a g r e m ` C.T.!.` m m m :.U.XX].",
"y.y.t.t.s.z.c.E.E.h.p.v W v v M m B J.f : . * P k j P h s d N s P h d p P k d w 7   p p f f B n._ g r / I.&X&X~.I.' / W ) g.k.f.",
"e.e.e.e.t.s.z.R.-X#XW.<. .v W b ` e r M m m V e m C E a N N E s s d s f B B _ n._ n.M.r g r !.( _ ' I.W.).-XE.p.=XE.W.R.E.E.l.t.",
"e.e.u.u.t.t.s.s.R.W.@X@XY.W } b b M v b M b v M v M C e a a a s s a a B n.` / ( ] / / r / ' ( W / W.-X=Xz.z././.c.c.E.E.v.v.b.t.",
"|.|.u.u.e.e.e.w.f.XXOXY.j.9.>.( M m v m m m m m m m ( ` _ _ _ _ B B _ _ ' ) ] / ] / / ] ] ) ^.b.R.R.E.c.c.c.c.c.c./././.v.v.v.v.",
"}.}.i.u.u.u.t.f.X.r.d.a.d.j.j.9.j.>.( M m m m M m / / ( / ] _ _ _ / / / / ] ) ) ) ) ) w.b.b.c.).x.}.{.}.c.x.c.c././././././././.",
"+XE.z.s.s.s.z.x.r.t.r.X.X.y.y.y.y.+.+. .<.4.>.>.b b b b b v W W ' ' ( ( ' <.p.p.p.p.p.R.#XE.E.x.f.f.x.l.l.l.l.l.c.c.c.c././././.",
"E.W.R.Y.z.z.x.x.x.f.f.y.e.o.e.e.e.u.t.f.].].[.d.d.'.'.y.y.y.f.k.<.<.g.T.Y.Y.Y.h.Y.h.k.R.R.k.a.w.r.y.s.s.t.t.t.t.x.c.c.c.c.c.c.c.",
"E.E.E.E.W.E.E.R.x.k.k.[.[.[.[.[.{.{.f.r.X.X.X.#.$.o.o.Q Q Q Q X.+.g.j.Y.XXY.j.5.5.5.a.j.j.5.5.d.+.r.r.r.r.r.r.t.{.}.}.}.c.c.x.l.",
"z.z.c.E.R.x.x.k.k.j.g.j.j.5.5.9.g.g.d.d.5.+.#.#.$.o.#.o.o.o.o.o.d.d.a.a.a.7.5.+.+.5.7.j.5.O.5.[.+.#.y.y.r.+.r.y.[.f.f.f.f.f.f.s.",
"u.u.t.u.t.t.a.g.j.8.,.,.;.%.V =.` :.S.G.U.G.q.9.0.0.5.7.7.#.#.y.[.d.r.+.+.+.7.7.d.7.7.7.7.4.4.6.+.#.7.7.#.+.#.7.d.d.a.a.r.r.r.r.",
"~ ~ ~ ~ e.r.a.q.9.,.;.V.B.I I V.V.V.V.-.%.S *.*.D.D.D.9.9.a.f.[.f.y.y.r.r.y.7.5.7.O.O.6.q.q.6.6.O.@.7.7.+.O.O.+.5.5.7.7.d.7.7.5.",
"e.e.u.y.y.#.5.4.*.&.%.F F I Y U U U Y I F S S %.S H.L.D.%X@Xz.+X}.f.e.r.r.r.y.d.5.j.q.4.| A } 6.7.6.6.6.6.6.6.6.7.7.7.7.7.7.7.7.",
"X.X.#.#.#.@.4.1.Z Z S G G G G Y Y Y Y H H D D &.;.%X!.!.&X#Xz.l.=X$X$X$X{.a. .|  . .4.} { [ [ { 6.6.0.q.q.q.6.6.4.6.6.q.q.q.q.5.",
"q.q.q.0.1.} { A { A A 3. X3.3.3.R R H K K A A A M :.:.<.Y.x.l.l.x.k.k.k.j.<.| | | | [ *.8.1.*.Z &.1.0.0.0.0.1.1.{ 1.4.0.q.0.0.4.",
"F.F.S.8.2.&.{ A 1.A 1.`.`.`.6.`.A.G K A ........Z [ ` (  .a.i.}.h.<.} } >.>.8.D.[ %.*.8.G.F.2.&.&.1.0.F.0.2.&.D Z { &.3.2.3.1.&.",
"-.;.;.2.8.8.0.0.1.1.O.6.6.....0.2.;.{ .._._._.6. XH.!.D.<.<.y.y.oXG.8.8.8.8.S.H.2.Z.S.H.H.Z.A.2.2.F.F.F.F.2.&.Z Z D &.D &.D Z D ",
"*.*.*.8.0.q.G.G.q.q.q.q.5.4.4.9.G.D.9.6._.$.$...8.Z.L.L.S.9.j.+.8.Z.S.H.H.Z.-.G H.H.Z.A.B.-.G -.2.Z.H.F.2.&.S Z -.&.&.S S S S S ",
"#.#.@.@.5.5.5.9.4.9.8.>.9.T.U.,.C.I.U.j.#.O.O.} S N V L V S.G.*.C C F B.A.B.F H A.A.R G G H H H D -.2.-.%.S S D Z.Z.Z.-.-.-.-.;.",
"o.o.#.#.#.5.9.9.b v v v ` T.C.( _ ` <.a.d.d.j.G.L.L N N N G 2.M C C C V H G R R G H H H H G H H S %.-.-.%.&.-.Z.H.H.H.Z.Z.A.Z.Z."
};
