/* XPM */
static char *_5182_8626a0b390d35bee4b56448b6b306a0bc6796e30d2a21f04b31247d903a3872d[] = {
/* columns rows colors chars-per-pixel */
"64 64 254 2 ",
"   c #050804",
".  c #0A1605",
"X  c #161807",
"o  c #090B18",
"O  c #081416",
"+  c #171917",
"@  c #170C11",
"#  c #231C15",
"$  c #231C0B",
"%  c #192508",
"&  c #1A2618",
"*  c #112A07",
"=  c #242906",
"-  c #242818",
";  c #273416",
":  c #2E2F11",
">  c #0D1625",
",  c #181726",
"<  c #1A1938",
"1  c #0F0C2B",
"2  c #241C27",
"3  c #251A35",
"4  c #1B2427",
"5  c #1D2636",
"6  c #1E3525",
"7  c #252728",
"8  c #272835",
"9  c #373434",
"0  c #2E3029",
"q  c #413D34",
"w  c #64783B",
"e  c #73733B",
"r  c #59722E",
"t  c #1C1941",
"y  c #282546",
"u  c #353147",
"i  c #232145",
"p  c #50584E",
"a  c #5B7646",
"s  c #556859",
"d  c #5C785A",
"f  c #516C4E",
"g  c #667856",
"h  c #70764F",
"j  c #6A7B69",
"k  c #71756E",
"l  c #5B6F62",
"z  c #2E4622",
"x  c #877B57",
"c  c #867C76",
"v  c #827768",
"b  c #788A39",
"n  c #758D33",
"m  c #78A63B",
"M  c #778A47",
"N  c #7A9848",
"B  c #688B58",
"V  c #798956",
"C  c #799958",
"Z  c #6A914B",
"A  c #7DA44C",
"S  c #7DAA4D",
"D  c #7BA947",
"F  c #7CA553",
"G  c #7DAA53",
"H  c #7AA45A",
"J  c #7CAA5C",
"K  c #75A658",
"L  c #7AAD50",
"P  c #7A8568",
"I  c #759A65",
"U  c #748D71",
"Y  c #7CA463",
"T  c #7BA56C",
"R  c #79A768",
"E  c #79A673",
"W  c #7EB263",
"Q  c #5D885B",
"!  c #838E3C",
"~  c #96AA3B",
"^  c #97B63D",
"/  c #89AB39",
"(  c #A7B83E",
")  c #95C23B",
"_  c #868A46",
"`  c #918B42",
"'  c #87974A",
"]  c #95974A",
"[  c #878B56",
"{  c #879856",
"}  c #959A54",
"|  c #988B56",
" . c #83A54C",
".. c #83AB4D",
"X. c #8BAB4C",
"o. c #88A547",
"O. c #96AB49",
"+. c #89B548",
"@. c #9BB445",
"#. c #9BBA44",
"$. c #94B54C",
"%. c #9BB54C",
"&. c #94B94D",
"*. c #9CBA4D",
"=. c #94BA44",
"-. c #84A554",
";. c #83AB54",
":. c #8AAC53",
">. c #83A55B",
",. c #84AC5B",
"<. c #8BA758",
"1. c #94AC53",
"2. c #97AB58",
"3. c #8CB254",
"4. c #8CB35B",
"5. c #8AB859",
"6. c #94B454",
"7. c #9BB553",
"8. c #94BB53",
"9. c #9CBA53",
"0. c #93B45C",
"q. c #9CB55B",
"w. c #94BA5B",
"e. c #9BBB5B",
"r. c #A5AD4A",
"t. c #A3B443",
"y. c #A3B54C",
"u. c #AAB44C",
"i. c #A2BA4C",
"p. c #A9B947",
"a. c #B3B94C",
"s. c #A6AD59",
"d. c #A3B453",
"f. c #AAB453",
"g. c #A3BB53",
"h. c #ABBB54",
"j. c #A4B45A",
"k. c #AAB55C",
"l. c #A3BA5B",
"z. c #ABBB5B",
"x. c #B4BB55",
"c. c #B3BD5B",
"v. c #BBBC5B",
"b. c #B9B657",
"n. c #B4AD55",
"m. c #889964",
"M. c #889773",
"N. c #938D6E",
"B. c #86A966",
"V. c #97AC67",
"C. c #8CB564",
"Z. c #88B465",
"A. c #94B463",
"S. c #9BB563",
"D. c #94BB63",
"F. c #9BBC64",
"G. c #97B96B",
"H. c #89AA74",
"J. c #97A975",
"K. c #98B973",
"L. c #89B476",
"P. c #A6AB66",
"I. c #A3BC62",
"U. c #ACBB62",
"Y. c #A7B768",
"T. c #B4BD63",
"R. c #BABC63",
"E. c #B7B968",
"W. c #A6AA73",
"Q. c #A7B876",
"!. c #B5B977",
"~. c #A3965A",
"^. c #C2BB5A",
"/. c #C6B972",
"(. c #96C248",
"). c #99C259",
"_. c #8EC051",
"`. c #A5C44C",
"'. c #ACC256",
"]. c #ACC25D",
"[. c #A5C458",
"{. c #B4C354",
"}. c #B4C25B",
"|. c #BAC35A",
" X c #B0C246",
".X c #9BC465",
"XX c #97C270",
"oX c #ADC263",
"OX c #A8C46A",
"+X c #B4C264",
"@X c #BAC364",
"#X c #BAC36A",
"$X c #B6C668",
"%X c #ACC476",
"&X c #B7C576",
"*X c #B9D26F",
"=X c #C2C36A",
"-X c #C7C775",
";X c #D1D173",
":X c #798883",
">X c #888585",
",X c #9BB588",
"<X c #A8B987",
"1X c #B0B392",
"2X c #BBB6A5",
"3X c #CABB98",
"4X c #CEBC90",
"5X c #C9BBA7",
"6X c #C7B9B5",
"7X c #B5C486",
"8X c #B8CB91",
"9X c #C9C498",
"0X c #D8C69B",
"qX c #D4C993",
"wX c #E5CD92",
"eX c #CAC7AA",
"rX c #D9CAA9",
"tX c #D9D4AA",
"yX c #CAC4B7",
"uX c #D3CBB7",
"iX c #DAD7B8",
"pX c #CDD3B3",
"aX c #E5D5A9",
"sX c #E8D9B6",
"dX c #EBD4AB",
"fX c #E7E5BA",
"gX c #F8E6BA",
"hX c #FBE3AF",
"jX c #DAD6C5",
"kX c #D2CDC7",
"lX c #E5DBC8",
"zX c #E7DCD4",
"xX c #F5D8CA",
"cX c #EBE6C9",
"vX c #F4E8C7",
"bX c #EAE7D8",
"nX c #F5EBDA",
"mX c #FEFDD5",
"MX c #FDFCDD",
"NX c #F9F4D7",
"BX c #F9F5CB",
"VX c #E8E8E6",
"CX c #F8EBE7",
"ZX c #FCF4E3",
"AX c #FEFDE4",
"SX c #FDF5ED",
"DX c #FFFEEC",
"FX c #F4F3E6",
"GX c #EEF3F9",
"HX c #FFFDF3",
"JX c #FEFDFC",
"KX c #F8F6F8",
"LX c #EEEAF2",
"PX c #E0DFE7",
/* pixels */
"$.=.$.&.8.5.).).Z.5.S A A A ..G ,.K A ,.Z.H { B.{ V.{ M { Q.Q.{ P U P k } Y.#Xh.@Xc.R.-XP.[ x N.[ V V [ [ [ V M { V.Q.G.V.A.G.A.",
"[.).9.8.w.8.5.D.Z.5.G A G 3.4.4.0.;.G C.2.-.{ 2.Q.V.<.} Y.&X&XV.M.N.V m.W.&X*X@X@Xc.@XE.P.| ~.W.W.M.[ [ J.%X7XQ.M M N :.S.S.S.S.",
"$.$.X.X.X. . .A G ;.A  .,.A.F..Xe.q.7.j.2.2.s.Y.-XT.n.U.E.@XT.$XJ.C V V.%XOXU.U.z.z.@X@XE.U.E.!.9X<XQ.Q.7X7X!.Y.8X0.' ' N b o.F.",
"~ O.O.o.o. . .G A A A -.;.0.D.I.l.d.g.f.k.f.n.T.#X/.E.^.n.r.u.@XY.2.2.%X&XS.} O.1.I.#X&X+X+XT.E.j.Q.&X<XQ.Y.%X%X$Xe.l.OX7./ o.z.",
"z.z.z.U.I.I.Y.OX<.<.;.:.:.4.0.q.g.d.d.z.T.T.R.R.k.R.@Xv.u.r.y.d.].)..XOXOX0.-.{ { V.I.I.l.z.].z.oXY.Y.2.' 1.l.$Xl.[.$X$X].g.g.].",
"@X}.T.T.+XoXOXOXF.I.F.q.0.2.0.7.7.%.d.k.T.$XT.U.k.z.j.d.g.].g.$.&.5.5.;.,.B.B.B.{ B.<.<.<.X.6.q.OXS. .o.o.X.X.o.*X$Xi.O.@.g.h.y.",
"u.u.n.f.d.d.q.q.I..XF.e.q.7.6.q.w.q.0.0.A.S.0.0.A.S.0.0.w.5.5.L S G F C C Y I B.B.I B.>.C  .<.:. . .' X.q.l.7.O.O.%.%.y.'.x.p.@.",
"r.u.r.t.d.d.d.l.1.7.7.9.7.%.9.e.3.w.w.3. .A ;.;.;.C.XXD.;.D D J J K H W B.Y B.I B.I B.B.B.C H >.e.e.8.8.6.7.7.l.z.d.f.d.@.@.r.f.",
"a.a.r.y.u.f.g.7.*.%.*.%.*.*.*.@.$.8.). .X.n N  .A 5.A J K D 5.K Z.T H R W K J J ,.A J F K.Z.K.C.D.e.w.e.q.q.j.e.7.d.y.d.d.k.c.}.",
"{.a.p.t.i.i.y.%.9.i.*.i.i.*.i.i.[.$./ o.*X*XOX1. .N 0...G 4.m F C R L.H B.G ;..X5...5.F Z.N Y J D.e.0.q.e.e.l.l.d.l.l.l.c.c.+X}.",
"|.{.{. Xh.i.i.*.@.*.@.@.@.@.#.^ ( t.|.a.].g.z.h.k.1.l.2.:.e.-.0.Z.C B.Z 5..X8.+.[.+.m m +.D ..A  .X.X.:.X.1.1.6.l.z.+X+X+X+Xc.z.",
" X{.'.'.[.i.*.9.9.g.).i.i.@.i.t.( (  X{.|.@X=X=Xs.E.!.-X&XY.Y.} H.B.B.,.;.D..Xw.+.$.).[.OX8.8.e.6.6.6.6.q.9.l.l.oXOX+X+X}.z.f.d.",
"i.9.g.g.9.8.6.6.6.7.9.7.9.%.%.y.p.u.x.v.n.k.E.E./.E.!.W.W.Q.J.Q.J.<Xm.8XL.C.V.C.OX.X3.X.$.).(.9.9.9.e.9.9.e.g.g.].].].z.g.d.d.%.",
"9.e.e.e.e.w.6.0.6.q.F.l.l.g.z.+Xz.+X*X-X] } W.W.1X9XX : ; . 2X<X,X8X*   ; ; * ,XH.K.K.A.6.[.*.+.9.$.%.%.%.%.%.%.g.g.y.i.y.y.y.d.",
"w.w.4.0.A.C.4.,.D.F.OXOXY.I.OX$X%XG.V.Q.C M.M.M.% . & & O 6 O O 4   ; 4 . > O & 7 U 8X7X-.q.9.*.g.`.g.*.i.*.i.i.i.i.i.@.@.i.p.i.",
"4.3.;.G ,.>.H C H >.>.-.F A ' >.C B.H.I ; . % & O 7 . & 6 O 5 > + O 7 + JXKX4 < , 8 O . : <.Y.S.S.7.%.*.#.@.*.*.7.9.9.9.g.9.9.g.",
"D D A K R R E E I E I R B W R R Y H.. 6 4 5 O 4 = . = AXGXJX5 1 + 0 LXJXGXJXGX8 , 8 5   4 ; . * <XV.0.#.^ `.).0.<.>.;.;. .G >.B.",
"+...S J Y R R I L.K W K XXK W R I I 6 > > 1 y + $ $ vXNXHXVXJXJXLXVXJXFXSXHXJXLXO o O 5 4 O & & . <XI.9.) / +.%XG.G.w.5...S J Y ",
"5.3.3.>.>.B.J H A A o.+.m m D _.,X* * 4 < JXPXJX2XAXAXZXDXJXGXGXGXHXHXbXFXHXVXJXKXVXJXJXJXkX6 . ; m.1.%.`.`.).3.D.w._.(.(.(.&.5.",
"e.e.q.A.A.0.0.:./ ).(.(.m (.(..XB.; . + KXJXJXCXjX2XMXNXbXHXGXJXyXyXbXHXAXDXbXzXkXKXJXGXVXHXzX* & % F.OX/ ^ [.X.6.8.=.(.) (.(._.",
"k.I.I.l.j.j.7.%.`.^  X/ '.$.d.<.= . - FXbXJXbXHXyX6XlXHXHXyXHXHXHX1XuXAXNXbXAXDXJXFXJXVXDXDXeXbX. . <XI.$X8.OXw.e.8.(.) ) ) / ) ",
"T.T.T.+XU.k.g.u.~ / i.].oXS.W.1XX X # lXDXDXnXZXxXyX6XkXHXDXjXAXDXuXpXuXcXlXcXDXFXSXHXHXFXNXNX2X+ 6 *   V.<.2.S.0.6.=.=.) (.(.+.",
"T.T.#X#X+XT.c.}.+XqXY.' : % o + + # bXlXvXMXNXDXSXjXzXVXbXpXAXiXlXNXNXlXuXvXiXjXHXSXHXbXDXbX1XjX, > + 6 <X<Xm.M C N ' ;.0.e.).D.",
"k.k.T.+XT.T.T.+Xj.-XW.: . , u 1 2 kXyX5XvXNXZXsXCXSXKXSXbXiXfXmXAXDXDXAX1XpXyXlXDXHXHXFXzXeXeXDXJX< > + O j M.B B M N { C.A.V.G.",
"s.s.s.U.T.$XT.U.#XY.<X: + 5 < 3 3 6XzX5XsXvXrXAXHXCXKXKXZXpXfXmXDXDXnXDXeXuXDXDXKXSXJXHX6XjXNXFXGXKXGX> 4 >XP B 1XJ.m.C { m.C V ",
"} 2.Y.T.k.d.d.h.7.&X} % - , t i 2 @ 6XzXvXsXvXAXjXJXKXKXZXcXtXmXnXJXSXDX6XuXDXHXKXKXCXKXuXZXAXDXJXGXJX4 O . g eX7X8XJ.M h H.m.h ",
"b ' P.Y.j.O.t.i./ z.Y.7XM.- , o 2 3 c kXrXeXvXjXKXzXKXKXHXiXiXvXlXKXFXbX6XjXFXHXSXJXCXJXyXSXZXDXHXHXJX+ & : 8X!.Y.-X%X{ { Q.Q.' ",
"_ ' 1.j.z.c.y.~ |.^ 1.Y.J.* % 0 3 @ 0 #   jXnXX # 2 SXCXuXBXsXfXbXFXzXkXcXnXFXSXCXJXKXSXkXbXvXAXcXAXHX- - . 7XY.z.].oXY.!.&X&XY.",
"!.U.k.U.$X@Xh.^ ^ ~ T.2.Q.. -   3 2   0 9 0 kX& $ q X ZXjXiXNXMXFXFXVXcXDXDXFXHXVXCXSXCXzXcXNXNXmXAXjX  - % !.z.h.@.y.@X*XU.z.}.",
"@XE.@X+Xc.z.'.x.|.+XI.P.% DXzX8 @ 8 8 o + + kXVX@   + jX1XDXAXZXHXFXDXFXDXAXbXDXHXzXbXbXDXMXMXvXcXiX7 6   uXQ.f.( ( y.y.k.z.}.{.",
"f.c.|.c.u.d.f.@X#XE.{ J.X 2 JX1 , , , 8 , 4 GXkXFX@ X jX5XZXDXZXHXFXDXbXFXMXNXDXDXjXjXZXDXMXmXfXpX-   , u ,XQ.+X( t.y.y.y.x.{.{.",
"|.v.c.f.d.r.d.s.U.Q.9X% 7 KXLXi KXKXGXO , 8 KXJXjX; X sXeXDXnXAXDXFXAXjXmXAXAXNXNXeXpXAXNXmXBXcXuX$ , 4 o 1XQ.1.g.#.y.g.d.O.( t.",
"s.d.d.7.7.7.9.e.0.Q.H.* + y t t GXO GXO 5 , KXJXDXcXfXcXfX9XeXiXFXDXMXeXeXmXmXfXBXtXqXfXhXaXvXsXjX# 2 $ + ,XJ.K.w.8.).).*.y.y.y.",
"j.j.j.q.8.w.w.8.;.K.Q.* O 1 t t 5 > O 8   @ JXSXAXcXtXfXfXfXfXBXjXlXzXcXiXtXcXmXfXfXqXaX4X4XgXhX5X@ $ @ ,XB I ,.L 5.5.&.=.@.y.u.",
"d.y.d.7.e.e.6.,...>.J.% 6 > t y > i < o < + CXCXAXvXgXgXmXNXZXZXvXcXsXcXnXZXZXDXHXxXiXsXdXgXgX0XjXCX@ $ J.m.B.OX5.8.8.8.9.y.i.g.",
"y.%.7.e.e.0.;.A :.>.C * % O > > 5 t 1 y 2 kX2X5XfXgXvXBXAXAXSXSXNXgXsXlXZXHXHXCXCXzXvXZXgX0XqX4X6X6X: $ . K.Q.-..X9.9.9.*.9.d.g.",
"d.*.7.e.e.A.;.A C K.C ; . 6 7 > i < t > 2 c dXdXqXwXhXgXnXnXCXCXmXhXsXBXAXZXCXKXJXCXZXZXdX0X0XdXN.6XX = = W.Y.U.oX[.i.%.%.7.7.j.",
"g.9.9.w.A.C.>.H K B.B.B z & . 4 5 t 1 :Xc 5XrX4XwXwXwXhXhXxXxXxX3XqX4X0XsXvXlXxXxXiX5X3Xc 3X4X3Xv 0 $ . = !.] c.|.{.h.g.g.e.e.e.",
"&.$.3.:.,.R W R E I T ,Xd * . 4 O 8 , k c 5X3XdXwX/./.wXdXdXrXrX0XdXrX0X0XfXhXaX4X0XrX3Xx ~.v N.@ X % = !.P.-Xb.|.v.{.}.].oXF.0.",
"..D S F K I R E R R T R E E ,XE & + + + c xX5X3X4X~.~./.dXdX3X3X3X3XrX0X~.e | qXaX4X3XdXc v : @ - + % 1X!././.b.^.^.|.}.].e.X.' ",
"m D J W R R E E E E I E E E U d g & & + 7 2 c c c x c x dXdXeXx N.x 5XsX3Xx N.x rX4XN.v h 9 @ # X U M.W././.n.^.^.^.a.a.t.7.S.F.",
".X).5.Y R R E E E E R R E I B B d & O , + , 2 8 @ 9 v v v x N.M.v 0 $ @ $ : v N.X 0 v N.0 @ # # % h h [ P./.^.;X^. X^.a.f.7.q.q.",
"_.5.Z.B.T I B Q B B I H.E I Q Q U P 6 5 1 t y 1 3 1 2 8 2 + X X - X $ # + # 3 3 2 , 3 @ + 7 + - g { V b ` /.n.^.^.^.( a.c.[.e.e.",
"5.D.XXG.Z.I C I C Z C B.B.C a a d p s o t y t y 3 < , < + - + & . - & 7 , 3 1 1 y 1 < 3 7 . . N.m.V _ M ! /.n.^.^.^.^.^.}.+X].].",
"oXoXl.<.M M M { %XQ.V.{ M r w g a j p k k 3 3 1 2 2 4 p s :Xj s j U s j k k u > , o 9 O % j P B M b b b ! E.E.^.R.v.v.v.}.}.].'.",
"g.h.s.] _ ! } P.E.&X&Xs._ e M [ [ V h g p p @ 3 0 s k P p s l U l Q f d l :Xj k k -   ; g J.V N N b b _ b s.n.E.R.v.c.f.u.i.i.i.",
"u.b.R.R.n.E.R./.s./.-XE.Y.P.| | [ W.e h a ~.~.| N.[ V V s d f d d Q Q Q f Q a Z w { N Z M w r C n ! n O.2.T.#X-XE.b.f.f.t.t.t.t.",
"u.n.n.E.^.R.v.v.^.^.b.b./.;XE._ _ { | _ e h _ | ] _ { m.V a f d d a a Z a n N b ' b b M n b C n n O.! Y.T.$XE.T.s.d.u.t.u.p.t.t.",
"^.n.^.^.^.v.^.R.v.v.v.v.c.R.R.T.n.~.` ` ` ` ` ` ` ` | { [ [ M x [ [ [ [ [ ' M M M M N M M b N b ' 1.q.j.U.+XoXf.r.@.t.( p.p. X X",
"^.^.^.^.^.^.^.^.v.v.v.v.|.}.c.x.^.E.b.n.r.] ` ] } ] ` _ _ _ _ [ | [ | ` ' _ ! ! N M M M N ' 1.I.1.g.l.j.d.g.%.@.h.h.u.t.p.a.{.|.",
"^.^.^.^.v.^.x.v.b.x.x.h.x.x.x.f.c.R.R.=Xn.s.s.s.P.s.2.} ' ] } } _ b n n n n n n 1.1.7.2.1.%.%.y.@.`.i.@.@.t.y.y.x.z.f.n.f.b.|.=X",
"^.b.b.^.v.c.v.v.u.u.u.d.f.h.d.y.r.d.U.T.E.T.k.U.k.U.Y.T.Y.k.q.2.z.f.i.i.p.p.`.i.g.'.].'.h.i.i.t.i.t.t.@.i.h.h.c.c.c.k.E.k.E.R.R.",
"b.x.v.v.|.@X|.|.y.y.y.y.i.i.y.@.g.7.7.l.l.j.1.7.7.j.oXoXU.l.d.%.%.^ ^ ^ #.#.^ #.@.#.=.O.y.f.}.|.'.`.'.'.z.'.c.+X+XR.E.E./.E.E./.",
"u.f.h.h.x.h.].h.y.y.%.y.i.9.*.7.g.8.$.9.[.9.%.7.%.7.7.g.7.d.d.g.@.#.) `.(.*.(.#.*.*.%.*.g.l.l.g.9.7.7.l.l.l.j.z.c.c.T.v.b.E.b.b.",
"y.y.y.y.g.i.y.*.d.*.%.9.*.9.*.8.8.6.6.e.9.9.9.g.g.g.%.%.y.y.g.`.`.*.i.%.9.9.w.9.w.e.F.OXF.A.<.C >.-.{ <.<.0.q.I.j.d.f.r.u.a.u.p.",
"d.9.7.g.9.7.9.7.9.$.$.*.9.9.&.$.8.8.9.).8.$.$.9.7.%.g.y.y.i.h.h.'.z.d.7.q.S.G.G.;. .-.F >.V.B.E B.I Y B.B.<.2.q.e.d.@.( ( ( ( ( ",
"9.9.9.9.9.9.).9.$.8.8.9.&.8.8.9.8.X.D o.$.e.z.%.g.y.%.y.i.i.h.{.=Xc.E.&XY.K.G.{ G G K J Y R E R T R R K H ,.,.X.6.%.*.i.p.`.( ( ",
"9.w.e.).w.8.8.$.9.w.w.).).8.8.w... .o.o.:.$.6.O.o.O.g.}.|.@X@X=Xx.f.R.!.Y.Q.Q.B.+.L G L K J R R R R J K F G D D 3.6.8.*.*.#.=.^ ",
"w.w.e.e.w.6.3...3.3.w.w.w.5.3...A X.3.0.:.o.o.o.o.o.O.z.].z.c.c.x.b.v.U.2.<.:.N D D D L L L W W 5.L _.XX5.S D ..D ..X.3.0.e.).F.",
";.;.4.5.3.,...A D ;.5.0.w.5.5.;.;.C.F.D.0.:.-. .q.1.1.1.X.1.2.f.{.a.d.O.'  . .o.m _.(.+.L L L W .X_._.).).3.....D  .;.3.0.A.D.D.",
"S S ;.G ..G ..G A G 4.C..XD.C.C.5.Z.C.Z.D.Z.C.C.F.A.0.0.0.A.F.OXi.i.1.2.V.Q.Y..X&.(.(.(.+...,.4.).+.+._.9.&.3.3.e.D.w.0.4.4.<.>.",
"G A G A K G ,.;.A F ;.4.G.D.C.4.J W Z.Z.Z.G.C.K.H ,.A.K.XXC.A.4.7.h.q.A.J.G.A.4.X.+.(.(.*.e.S.Y._.8.6.9.e.l.e..X.Xe.D.0.0.:.:.:.",
",.5.,.,.5.Z.C.Z.F F F ;.,.C.,.G K K K K W W W Z.K K B.Z.W K Z Z 3.F.V.C I I B >.:.$.@.*.e.I.W.V.V.Y.Y.0.7.0.q.q.7.7.6.7.&.$.*.*.",
"Z.C.C.Z.C.Z.XXG.C.,.-.,.,.:.,.K K K W K K K K K W R J K L Z Z Z N 4.C B B B I K.F.).g.g.s.2.{ _ [ V.S.} M b b n q.7.9.@.*.*.#.=."
};
