/* XPM */
static char *_6db8ddaf38f41aba4221beb4a7abe21VTiVRWBaVhD1TCsq[] = {
/* columns rows colors chars-per-pixel */
"64 64 233 2 ",
"   c #335A5D",
".  c #2C5E5F",
"X  c #3C605C",
"o  c #3B5E64",
"O  c #366363",
"+  c #396664",
"@  c #3E6C6B",
"#  c #3A676B",
"$  c #3E7273",
"%  c #3B726F",
"&  c #446B6C",
"*  c #496C6C",
"=  c #426466",
"-  c #42726E",
";  c #48756E",
":  c #486E71",
">  c #447472",
",  c #4A7574",
"<  c #4C7A77",
"1  c #4C7578",
"2  c #4C7A7B",
"3  c #477A7A",
"4  c #537A7C",
"5  c #547978",
"6  c #517365",
"7  c #4E807D",
"8  c #59867B",
"9  c #6B917C",
"0  c #4D7F81",
"q  c #537D81",
"w  c #548383",
"e  c #5A8484",
"r  c #5C8C8B",
"t  c #5A8886",
"y  c #5E918D",
"u  c #598E90",
"i  c #559693",
"p  c #5D9394",
"a  c #5E9A96",
"s  c #5E9B9B",
"d  c #5C979D",
"f  c #4D8083",
"g  c #618F8C",
"h  c #638A85",
"j  c #62948E",
"k  c #6C928B",
"l  c #6B9A8B",
"z  c #699786",
"x  c #729C8D",
"c  c #639493",
"v  c #6B9695",
"b  c #649A95",
"n  c #6A9B95",
"m  c #619699",
"M  c #6B9599",
"N  c #659B9C",
"B  c #6A9C9B",
"V  c #729693",
"C  c #729C94",
"Z  c #7A9D95",
"A  c #729C9B",
"S  c #76999B",
"D  c #628E91",
"F  c #5EA09A",
"G  c #76A18E",
"H  c #6DA196",
"J  c #63A29D",
"K  c #6CA19D",
"L  c #72A29D",
"P  c #7BA29B",
"I  c #76A696",
"U  c #649DA1",
"Y  c #6A9EA1",
"T  c #749DA1",
"R  c #5DA4A4",
"E  c #66A2A2",
"W  c #6CA3A4",
"Q  c #6BAAA5",
"!  c #6EA7A8",
"~  c #6DABAA",
"^  c #72A4A4",
"/  c #7BA4A4",
"(  c #72A6A9",
")  c #73AAAB",
"_  c #7BACAB",
"`  c #78A9A3",
"'  c #73B0AC",
"]  c #7BB3AE",
"[  c #79AEB1",
"{  c #74ACB0",
"}  c #7DB3B4",
"|  c #7DB9B5",
" . c #7EB6B9",
".. c #7EBABA",
"X. c #71B5B4",
"o. c #66B0B3",
"O. c #7AC4C7",
"+. c #90AE8C",
"@. c #86A897",
"#. c #89B29A",
"$. c #99BC9D",
"%. c #85A98F",
"&. c #ADBE9E",
"*. c #85ACA7",
"=. c #8EBCAD",
"-. c #86B4AC",
";. c #96BBA4",
":. c #9BBBA6",
">. c #93BDAC",
",. c #9BBEAD",
"<. c #96B6A5",
"1. c #82B4B3",
"2. c #84B9B6",
"3. c #8CBBB4",
"4. c #81B6B9",
"5. c #84BBBC",
"6. c #8BBDBC",
"7. c #8AB4B8",
"8. c #92BEB4",
"9. c #99BDB2",
"0. c #92BEBB",
"q. c #86AEB0",
"w. c #9EC09F",
"e. c #A9C19D",
"r. c #95C1AC",
"t. c #9EC4AC",
"y. c #9EC1A3",
"u. c #8EC2B6",
"i. c #86C2BD",
"p. c #8CC3BD",
"a. c #94C2B5",
"s. c #9BC3B4",
"d. c #9CCAB4",
"f. c #93C3BC",
"g. c #9BC4BB",
"h. c #9DCABC",
"j. c #94C8BA",
"k. c #A2C3A5",
"l. c #AECDAC",
"z. c #A5C7AB",
"x. c #B3CEAF",
"c. c #A2C5B5",
"v. c #A4CBB2",
"b. c #ABCAB5",
"n. c #A3C4BA",
"m. c #A3CBBB",
"M. c #ABCDBD",
"N. c #AAD4B9",
"B. c #BCD5BB",
"V. c #BBDCBC",
"C. c #B6D7B8",
"Z. c #B3D1AB",
"A. c #BCE1BE",
"S. c #C4D7B5",
"D. c #CDDCB4",
"F. c #C4DBBA",
"G. c #CDDEBA",
"H. c #C3D7BE",
"J. c #D3DDB5",
"K. c #C5D5AE",
"L. c #C4E4BE",
"P. c #CDE2BB",
"I. c #D8E3BB",
"U. c #85BEC1",
"Y. c #89BEC1",
"T. c #8DBECA",
"R. c #85BFC9",
"E. c #91BEC2",
"W. c #90BFCF",
"Q. c #86C2C3",
"!. c #8CC3C4",
"~. c #8CC9C5",
"^. c #84C4CA",
"/. c #8BC4CA",
"(. c #8DC9CA",
"). c #85C9CB",
"_. c #92C4C4",
"`. c #9AC6C2",
"'. c #92C9C6",
"]. c #9CC9C2",
"[. c #91C6C9",
"{. c #99C5CA",
"}. c #93CACB",
"|. c #9BCCCB",
" X c #9CD1C5",
".X c #97D1CE",
"XX c #8BC5D0",
"oX c #8BC9D1",
"OX c #93CED0",
"+X c #99CED1",
"@X c #95D0D2",
"#X c #9BD2D4",
"$X c #9DDAD8",
"%X c #A4CCC3",
"&X c #ABD2C4",
"*X c #ABD5CA",
"=X c #A8D6C8",
"-X c #B1D5C3",
";X c #B4DBC4",
":X c #BCDCC4",
">X c #B4DBCC",
",X c #BBDDCC",
"<X c #B6D6C9",
"1X c #A7D9D9",
"2X c #B4DED2",
"3X c #BADED2",
"4X c #B3DFDA",
"5X c #BCDFD9",
"6X c #A3CCD0",
"7X c #BDE1C3",
"8X c #BBE2CC",
"9X c #B9E3CB",
"0X c #AFE2DD",
"qX c #BCE4D3",
"wX c #BCE9D3",
"eX c #BCE3DB",
"rX c #B8E4D7",
"tX c #A8DEE0",
"yX c #B4E4E3",
"uX c #B4F3EE",
"iX c #ADE0E4",
"pX c #CBDFC3",
"aX c #C1DEC9",
"sX c #C3E3C3",
"dX c #C4E3CB",
"fX c #C5E9C9",
"gX c #CAE6C9",
"hX c #D2E5C3",
"jX c #C2E3D4",
"kX c #CAEAD3",
"lX c #C5E9DA",
"zX c #CAF0D9",
"xX c #C2ECE3",
/* pixels */
"p.].6.K ^ 6.}.Y././.!.!.!.~.~.~.(.Q.(.5.|.5.(.!.!.!.!.!.!.!.!.!.Y N Y W N ( 4.5.!./././.!.!.!.[.T.T./._.f.a.r.$.e.K.I.I.J.J.D.D.",
"|._ n ) 6.!.!.[././.!.!.!.~.~.~.!.Y.(.5.}.Y.(.!.!.!.!.!.!.!.!.!.N m N N m ( !.}././.!.!.!.!.!.!./././.}. X=X9XfXF.G.J.D.D.P.P.P.",
"p.K b 4.|./.Y.}././.!.!.!.~.~.~.~.Q./.Y.(.Q./.!.!.!.!.!.!.!.!.!.) W W N p Y 5.}./.!.!.!./.!.!.Y.[.Y.6.6.a.d.N.C.F.G.hXG.S.S.F.L.",
"N ) 5.!./././.Q././.!.!.!.~.~.~.i.!./.!.!.Q.!.!.!.!.!.!.!.!.!.!.Y.4.4.) a m ) } 4.5.!././.!.!.Y.{.{._.f.u.r.;.$.x.S.pXhXpXB.l.k.",
"N Q.#X(.Y./.(.U./.!.!.!./.!.!.!.Q.(.(.!.Y.!./.!.!.!.!.!.!.!.!.!.[.[.[.5.Y a N Y W [ Y.[./.!.!._.0.0.0.a.j.s.t.z.V.B.H.pXaXb.#.z ",
"Q.^.!.!.Q././././.!.!.!./.!.!.!.p.}.!.Q. .!.!./.!.!.!.!.!.!.!.!.!.!.[.Y.W N Y N N W | Y.!.!.!._.`.g.a.s.h.N.;X9XaXgXkX:X:.G x I ",
"@XQ.5.^.(.^./.oX/.!.!./.!.!.!.!.5.|.!.!.) !.Q./.!.!.!.!.!.!.!.!.!.Y.!.4.W N W Y N Y W } 5.!./._.eXeX3X9X9XwXlXzX:XdXaXc.x 8 H f.",
"i.~.(.(./././.(./.!.!./.!.!.!.!.5.}.5.5.! !.!./.!.!.!.!.!.!.!.!.}.!.5.} N m Y N W N N W 4./.[.6.5XjXjXqXwXwX9X>XjXn.@.Z Z L 1.~.",
"i.i.i.~.Q.Y.Q./.Y././.!.!._.'.!.} #X!.N W Y.!.[./.Y.!.[.[.!.!./.[.Y.W N Y m W [./.5.[ Y m N [ 6.8.s.s.>.=.r.s.s.9.P Z P v K 5.~.",
"u.p.p.p.p.!.!./.Y.!.Q.5.Y././.!.[.#X5.N N W } }./.!.!.!.!.5.!.}.!.Y.) N N ( | [.!.5.} ) Y N N m C C x l l l l l P k k A ^ } $XuX",
"=Xh.j.u.p.f.p.Y.[.[.[._.[.}./.Y.5.5.} ( W m Y 6.[.[.[.[.!.6.Y._.!.!.5.) W 4.}.!.#X+X[.Y.4.) W M C C C n L L K v / P V v n K 4.$X",
"wX;Xd.r.8.j._.f.Y.Y.!.!.!.Y.} ) W W W ( W m m ^ 5.6.!.}.}.[.!.Y.[.!.[.Y.} !.#XY.5.} ) Y N m m c v v b b b b t >   * * , c ^ !.uX",
"8X;Xv.>.>.g.h.f.f._._.[./.4.( N ^ Y N p c Y ^ B ( Y Y _ Y.}.[.6.Y.| /.+X!.!.}.5.[.[.!.4.} } 5._._.p.p.i.5.' p 3 : 5 : * e g K p.",
"sXsXV.z.;.>.8.3.0.0._.[.Y.) U d m N W W ( Y.Y.Y W p 0 f m [ } ) ) ) Y.}.[.!.!.!.!./.[.!.5.5.!.}.!.~.!.!.Q...W r : * = * e L 2. X",
"Z.L.fXC.v.c.g.g.0.0._.!. .W U N Y W 4.Y.!.+X[.B W u > # 2 m Y N N | !.!.!./.!./.!./.[.[./.!.!.!.Q.^.^.).(.(.Y.[ v 4 * * 4 P 3.u.",
"+.l.fXdX:X,XqXeXeXyXyXiX#X/.R.(.[.Y.}.}.6.Y.6.B c w > # 3 m W W N [.+X5.Y.[._.[.!.!.!./.~.~.~.Q.(.(.^.^.^.(.Q.5.E.v 1 & ; g P n ",
"%.t.;X,X8XjXqX2XeX4X+X[././././. .|.5._.|._.7.1 4 , + 3 B N p W Y.{.{.6.Y.[._.5.!.p.p.p.p.p.p.i.Q.^.).^.^.Q.Q.Q.4.6XB > > - r n ",
"8 9 @.s.c.,.>.s.g.f.0.Y.Q./.XX/.!./.'.6.E.7.e   o # # 2 ^ 6.!.5.[.Y._ Y ( 6.[.!.!.!.p.p.p.p.p.i.(.^.^.^.Q.^./.(./.'.W t > > B n ",
"@.%.:.:X:Xt.;.m.>.8.0.f._.[.!.Q.(.| [.6._.6XT M M q 2 D } '.i.W W Y N N ) !.[.!.!.!.!.!.!.^.^.!.Q.Q.Q.Q.Q.!././.}.} ( b @ - B b ",
":XC.V.kX7Xy.$.z.t.s.a.j.f._.p.p.[.5./.6.6.7.A T / & @ ^ _./.| E i a J W } Q./.Q.!././././.^././.Y.p.p.'.'._.!.6._.1._ n 3 - j L ",
"sXsXsXV.l.w.$.k.z.t.r.>.a.f.f.p.p.[.~.|.6.B M r 4   3 1.[.5.) a Q Q J F J ' Q.OX/././././.XXXX/._.f.f.f.f.f.f.p.f._.3.L j w y p.",
"V.sXgXV.C.V.sXsX:XC.v.s.a.a.a.p.p..X| 6.1.M _ T O e 1.[.!.4.) a J J F i i J ..}././././././.XX/.f.a.8.3.=.8.j.].f.].6.K K b c |.",
"k.C.sXsXsXgXgXfXkXdX9X;X&Xh.a.3.!.5.( N c r r q 2 _ {.'._.'.!.Q.s J Q Q ! ) 4.~.!.!.!.!._._._.E.s.c.n.s.s.s.%X*X=Xf.3.K c K n 2.",
";.b.:XdXdXsX:X:XdXdXqXqX2X=Xh.f.K a ( N W ( 3 + E.|.Y.5.!.!.5.}./.!.Q.Q.Y.5.!.].p.f.f.f.f.f.0.9.c.-X,XjX8X>XqXeXxXa.f.^ r L L n ",
"6 Z <.<.c.,XjXjX,X3X>XeXxX=X` j K a N W 2 . 2 !._._._.!.!.!.!./.T./././.Y.Y.f.f.a.j.s.r.>.z.;XkXjXzXkX,X>XqXeX2X%X-.3.L L b B $ ",
"X * * 5 @.n.n.9.9.n.g.0.3./ v B W N B | 6.6.5.!._.!.!.!.!.!.!.!./.XXT.T.Y.E.`.].a.m.,XfXsXA.A.7X;XM.,.,.M.qX2Xm.-.L ` b n b b % ",
"1 1 & & h V V V v A A v M c c ( a ) 5./.|.#X|.!._.!.!.!.!.!.!.!.[.W.T.T.E.E.`.%X&X;X7XsXsXsXL.sXdX-X9.>.m.>X=X8.` n K c N N N 3 ",
"Y Y c D M A v A A A v n ( W N W N 5.#X/.| 4.6.p.!.!.!.!.!.!.!.!././.[.T.E.E.`.].%Xm.t.t.z.N.V.7X8X2X=Xg.f.g.].f.6.1.` K W ! W p ",
"Y Y N ( E.{.6.3.0._.6.6.6.) N s !.!.!.!.!.'./.~.!.!.!.!.!.!.!.!.Y./.[.[.!.!.f.f.3.3.=.>.s.d.d.s.a.].].f.3.3.p._.}.'.5.4.4...! N ",
"d {  .5.[.[._.'._.|.|.'.4.E a E /.!.p./.[.}.~.~.~.~.!.!.!.!.!./.Y.Q./././.!.6.6.p.p.p.p.f.p.u.3.3.3.6.6.p._.!.6.p.}.!.}.(.^.E N ",
"d Q.#X/.5.4.5._.2.p.!.i.| Q s Q ) 5.}.'.5.5.5.!.~.~.~.~.!.!.!.!.Q.~.~.~.~.Q.!.!.OX}./.Q.Y.Q./.[.[.!.!./.[.'.Q.Y...(.5.(.(.^.U U ",
"U U./...!.|.'.p.!.!.p.p.}.5.E N N 5.}.!.4.~.}.~.~.~.~.!.!.!.!.!.~.~.!.~.~.!.(.(.Q./.XX(.XX/././.Y.Q.!./.Q.Y.Q.(.Q.@X..^.Q.Q.N W ",
"5.}.[.!.!.!.!._.6.6.!./.!.4.) N W Y [.5.#X5.#X!./././.!.!.!.!.!.!./.!./.!.!.!.!.!./././././././.^.^.^.^.^./././.Q.}.5.[.4.a K N ",
"W 5.!.!.[./.6.!./.!.!./.!.4.) Y m N 5.!./.4./.[.!.!.!.!.!.!.!.!.!.!._.!.!.!.!.!.!.!._._._._.!././.XX/.XX/././.Q.5./.5.|.p.K K n ",
"W 4.!.!.[.!.Y.!./.!.!././.Y.} ) W Y ( !.!.!.Y.}.!.!.!.!.!.!.!.!.!.!.!.!.!.!.!.!.!.!.!.!.!.!.!.!./././.(././.Q.Y.Y./.6.[.5.K B b ",
"5.[./.Y.!.!.!.[.!.!.!.!././.!.5.5.Y p ) }.[.!.!.!.!.!.!.!.!.!.!.!.!.!.!.!.!.!.!.!.!.!.!.!.!.!.!.!.!.!.!.!.!././.[./.!.!.} W N b ",
"}.+X/.5./.[.!./.!.!.!.!./.[././.}.W m p |.4.Y.!.!.!.!.!.!.!.!.!././././././.!.!.Q.!.!.!.!.!.!.!._._.E.0.0._._._._.!./.!.5.| ( W ",
"5./.!.!.}.}.!.!./././.!.!.!.!.!.}.4.} a /.W 4.}.!.!.!.!.!.!.!.!././././.!./.!.!.Q.!.!.!.!.!./._.f.0.0.8.3.3.6.6.p.6.}.[.}.}.| } ",
"( 5.!.!.[.[.!./.!././.!.!.!.!.!.!.[.5.N 4.Y ( !.!.!.!.!.!.!.!.!.!.~.~.~.~.~.~.~.~.~.~.~.~.~.~.p.8.9.g.g.].].`.`.|.6._.5.5.!.) ) ",
"W 5./.!.!.!.!.+X6.!.!.!.!.!.!./.5.[.( m W W p W !.!.!.!.!.!.!.!.!.~.~.~.~.~.~.~.~.~.~.~.~.~.~.f.g.n.&X2XrXrXrX4X0X_.p.W N ! a s ",
"!.!.!.!.!.!.!.!.!./.[.[./.!.!.!.Y p Y m N N N [./.[.5.Y W 5.}././.2.2.!.'.p.5./.'.p.!.[.!.5.'.0XlXlX,XlX>XxX4XyXn K W N N E W E ",
"!.!.!.!.!.!.!.!.|.!.| ( Y Y W W W p W [ !.Y.W 4./.}.5.W m ( 4.5.!.!.!.!.p.p.!./.'.6.6.!.'.p.5.6.>.<XqX3X*X>X-.h B n n K W ) } 5.",
"!.!.!.!.!.!.!.!.}.5.) N m N N W W N W } }.[.} 5.Y.[.[.4.W N W W ) 2.p.p.p.'.}.'._.!.p.p.!._.].].g.M.n.P Z P P t B b n ) 4.5.!.@X",
"!.!.!.!.!.!.!.!._ W N N N N N a m N W | [.!.5.}.!./.[.Y.) m m N c B _ 2.6.p.6.2.p.}.}.1.B c c v C h V k Z h C ^ n c W 5.[.!.Q.(.",
"!.!.!.!.!.!.!.!.}.[./.[.[./.5.} u N ) !.#X[.Y.!.|./.5.| ( N N ( m w t K _ ^ B ^ 7 c ^ ^ K B L L C k P C C < g L B m W 5.[.~.Y.Q.",
"!.!.!.!.!.!.!.!./.!.Y.Y.!.!.5.4.( ) N [ }.[./.5./.!./.[.Y.} W B M > O 2 g t g ^ _ L c y c n c g L L v ; + O 4 r L b N ) 5.~.!./.",
"!.!.!.!.!.!.!.!.[./.!./.[.[.}.|.!.Y.N ) Y.5.[./.5.!.|.+X[.4.W p M < O @ 1 2 w c c < + > e c B L + > < 2 @ & @ > K N N W | /.~.!.",
"/././././.!.!.!.!.!./.Q.Y.Y.Y.!.Y.#XY./.}.4.[.[././.!.} ) ( W N ^ c 2 > & @ @ & > @ 1 g B v v A / B M 6.M w O > B B N ( 4.[./.5.",
"R.^.XXoXoX(.^.^.^././././.!.!.Q./././././.!.!.!.Y.} W N N N N N B N c N Y W W B !.!.!._.!._.!.!.!.!.!.'.[.6.( p N N p W N !.[.Q.",
"(./.U.U.U.Q.Q./././././././././././././.!.!.!.!.@X}.!.!.Q./././.[.5.) W ( | !.[.!.!.!.!.!.!.!.!./.!.!._.[.Y.} W ( W W N m ) !.5.",
"g.f.f.].].p.6.!.!.!.!.Q.Q.Q.Q.Q.!.!.!.!.!.!.!.!.!.Q.Q.!.!./.!.Q.}.!.5.5.Y./.[.[.!.!.!.!.!.!.!.!./.!.!.!.!.!.Y.5.5.| Y.N N N !.!.",
"<.:.b.,X,Xm.8.3.f.f.f.!.!.Q.Q.!.!.!.!.!.!.!.!.~.!.!.Q.!.!.!.Q.Q.5.Y.!.}.|.[.!.5.!.!.!.!.!.!.!.!.!.!.!.!.!.!.[.[.[./.[.) Y W /.[.",
"&.k.B.gXgXB.b.c.s.a.f.f.p.!.~.'.f.f.f.f.p.p.!.!.'.[.(.(././././.[./.!.!.!./.[.[.!.!.!.!.!.!.!.!.!.!.!.!.!.!./.[.!.[.Y.5.W 5.[.[.",
"D.D.G.G.pXsXsXdX,.9.8.a.p.p._.'.f.f.f.f.f.p.p.p.p.p.Q.!.Q.Q.!.!.[.[.!.Y.Y.!.[.[.!.!.!.!.!.!.!.!.!.!.!./.!.!.!.!.!.[.5.[.} +X[.!.",
"G.hXhXF.H.gXdX:XM.m.m.g.a.u.u.u.a.a.f.f.f.f.f.f.p.!.[.(./.!./.(.!.!./.[./.!.!.!.!.!.!.!.!.!.!.!.!.!.!.!.!.!.!.!.[./.[.[.!.|.[.4.",
"k.V.dX:X:X:Xb.<.kXjX>X&Xh.j.a.u.a.a.a.a.f.f.f.f.6.!.[.(.!.Q.U.Q./._./.!.!.!./.[.!.!.!.!.!.!.!.!.[.!.!.!.!./.!.!./.5.|.5./.5.!.( ",
"l =.h.qX>XqXc.<.c.>XlXqX9XwXwXwX2X2X2X%Xj.3.0.f.f.!.!.Y.Y.Q.^.(.+X/.5.Y.!.!.!./.!.!.!.!.!.!.!.!.!.!.!.!.!.!.!.!.Y././.Y.!.[.5.W ",
"b ' ]  X].0X*X*Xs.&X,X,X8XwXwX>XeXeXrX*X].f.f._.6.p./.(.(.(.Q.5.5.Y.!.[.[.[.!.!.!.!.!.!.!.!.!.!.!.!.!.!.!.!.!.!./.[.[.!./.[.5.) ",
"R R i E J _ q.3.g.%Xm.s.s.r.#.G l n L L ` _ 1.6.}.'.Q.Q.Q.(.}.OX5././.Y.5.!./.!.!.!.!.!.!.!.!.!.!.!.!.!.!.!.!.!./.!.!.!.!.!.Y.5.",
"O.o.d s s N B _ v v k k x I G z j b n n N n W W N N E N U ! } Y.|.}.5.( ( 5.[.!.!.!.!.!.!.!.!.!.!.!.!.!.!.!.!.!.!.Y.!././.!.!.[.",
").X.~ W W m v A 1 , * ; 8 l H H W W W B b c a a W | /.}.!.Q.!.[.!.5.) N ) !.}.Y.!.!.!.!.!.!.!.!.!.!.!.!.!.!.!.!./.!._.}.[.!.!.[.",
"~.| ] N c 1 > & & & # - 2 y N Q a s N N E W W W 4.!.}.!.{ E N W W Y N W 5.+X}.5.!.!.!.!.!.!.!.!.!.!.!.!.!.!.!.!.!./._./.!.Y.Y.Y.",
" Xj.j.A k , , & & , w p U ~ ..^.(./././.!.!.Q.Q.}.}.!.} W s N N W N m W 5.[.[.!.!.!.!.!.!.!.!.!.!.!.!.!.!.!.!.!.Y./.!.5.Y.[.|.[.",
"=.>.s.C Z k Z S / q.E.[./.Q.^.).^.^.^./././.!.!.Q.Q.!.(.[.[./.!.5.) N N ( | !.}.!.!.!.!.!.!.!.!.!.!.!.!.!.!.!.!.!.[._.5.[.1XyXtX"
};
